<?xml version="1.0" encoding="UTF-8" standalone="no"?>
<!-- Created with Inkscape (http://www.inkscape.org/) -->

<svg
   xmlns:dc="http://purl.org/dc/elements/1.1/"
   xmlns:cc="http://creativecommons.org/ns#"
   xmlns:rdf="http://www.w3.org/1999/02/22-rdf-syntax-ns#"
   xmlns:svg="http://www.w3.org/2000/svg"
   xmlns="http://www.w3.org/2000/svg"
   xmlns:sodipodi="http://sodipodi.sourceforge.net/DTD/sodipodi-0.dtd"
   xmlns:inkscape="http://www.inkscape.org/namespaces/inkscape"
   width="1000"
   height="114"
   viewBox="0 0 264.58333 30.162499"
   version="1.1"
   id="svg833"
   inkscape:version="0.92.4 (5da689c313, 2019-01-14)"
   sodipodi:docname="logo.svg">
  <defs
     id="defs827" />
  <sodipodi:namedview
     id="base"
     pagecolor="#ffffff"
     bordercolor="#666666"
     borderopacity="1.0"
     inkscape:pageopacity="0.0"
     inkscape:pageshadow="2"
     inkscape:zoom="0.98994949"
     inkscape:cx="379.90713"
     inkscape:cy="20.29228"
     inkscape:document-units="mm"
     inkscape:current-layer="layer1"
     showgrid="false"
     inkscape:pagecheckerboard="true"
     units="px"
     inkscape:window-width="1920"
     inkscape:window-height="1137"
     inkscape:window-x="-8"
     inkscape:window-y="344"
     inkscape:window-maximized="1" />
  <metadata
     id="metadata830">
    <rdf:RDF>
      <cc:Work
         rdf:about="">
        <dc:format>image/svg+xml</dc:format>
        <dc:type
           rdf:resource="http://purl.org/dc/dcmitype/StillImage" />
        <dc:title />
      </cc:Work>
    </rdf:RDF>
  </metadata>
  <g
     inkscape:label="Layer 1"
     inkscape:groupmode="layer"
     id="layer1"
     transform="translate(0,-266.8375)">
    <rect
       style="fill:#ffffff;fill-opacity:1;stroke:#ffffff;stroke-width:0;stroke-miterlimit:4;stroke-dasharray:none;stroke-opacity:1"
       id="rect1573"
       width="7.7932506"
       height="7.6833391"
       x="75.595016"
       y="278.90198" />
    <rect
       style="fill:#ffffff;fill-opacity:1;stroke:#ffffff;stroke-width:0;stroke-miterlimit:4;stroke-dasharray:none;stroke-opacity:1"
       id="rect1575"
       width="86.202942"
       height="16.329569"
       x="98.607277"
       y="274.46155" />
    <g
       id="g1571"
       style="fill:#0000bb;fill-opacity:1">
      <g
         transform="translate(0.53453906,1.6036172)"
         id="g1482"
         style="fill:#0000bb;fill-opacity:1">
        <g
           id="text1458"
           style="font-style:normal;font-variant:normal;font-weight:normal;font-stretch:normal;font-size:28.22222137px;line-height:1.25;font-family:'SF Atarian System';-inkscape-font-specification:'SF Atarian System';letter-spacing:0px;word-spacing:0px;fill:#0000bb;fill-opacity:1;stroke:#ffffff;stroke-width:3.5999999;stroke-miterlimit:4;stroke-dasharray:none;stroke-opacity:1"
           aria-label="favorites">
          <path
             inkscape:connector-curvature="0"
             id="path1484"
             style="font-size:31.75px;stroke:#ffffff;stroke-width:3.5999999;stroke-miterlimit:4;stroke-dasharray:none;stroke-opacity:1;fill:#0000bb;fill-opacity:1"
             d="m 103.79332,274.99609 h -5.720581 v 4.65088 h 3.596681 v 2.54248 h -3.596681 v 7.19336 h -2.542481 v -15.23938 q 0,-0.66662 0.511597,-1.17822 0.527099,-0.5116 1.193725,-0.5116 h 6.55774 z" />
          <path
             inkscape:connector-curvature="0"
             id="path1486"
             style="font-size:31.75px;stroke:#ffffff;stroke-width:3.5999999;stroke-miterlimit:4;stroke-dasharray:none;stroke-opacity:1;fill:#0000bb;fill-opacity:1"
             d="m 115.94762,289.38281 h -2.6355 l -1.0697,-3.81372 h -4.7284 l -1.0852,3.81372 h -2.62 l 4.26331,-15.23938 q 0.48059,-1.68982 1.79834,-1.68982 1.31775,0 1.79834,1.68982 z m -4.41834,-6.3562 -1.65881,-5.86011 -1.64331,5.86011 z" />
          <path
             inkscape:connector-curvature="0"
             id="path1488"
             style="font-size:31.75px;stroke:#ffffff;stroke-width:3.5999999;stroke-miterlimit:4;stroke-dasharray:none;stroke-opacity:1;fill:#0000bb;fill-opacity:1"
             d="m 126.79967,272.45361 -4.27881,15.23938 q -0.48059,1.68982 -1.79834,1.68982 -1.31775,0 -1.79834,-1.68982 l -4.26331,-15.23938 h 2.62 l 3.44165,12.21631 3.44165,-12.21631 z" />
          <path
             inkscape:connector-curvature="0"
             id="path1490"
             style="font-size:31.75px;stroke:#ffffff;stroke-width:3.5999999;stroke-miterlimit:4;stroke-dasharray:none;stroke-opacity:1;fill:#0000bb;fill-opacity:1"
             d="m 136.11693,284.73193 q 0,1.82935 -1.41077,3.24012 -1.41077,1.41076 -3.24011,1.41076 -1.82935,0 -3.24011,-1.41076 -1.41077,-1.41077 -1.41077,-3.24012 v -7.62744 q 0,-1.82934 1.41077,-3.24011 1.41076,-1.41077 3.24011,-1.41077 1.82934,0 3.24011,1.41077 1.41077,1.41077 1.41077,3.24011 z m -2.52698,0 v -7.62744 q 0,-0.83716 -0.63562,-1.47278 -0.63562,-0.63562 -1.48828,-0.63562 -0.85266,0 -1.48828,0.63562 -0.62012,0.62012 -0.62012,1.47278 v 7.62744 q 0,0.85266 0.62012,1.47278 0.63562,0.63562 1.48828,0.63562 0.85266,0 1.48828,-0.63562 0.63562,-0.63562 0.63562,-1.47278 z" />
          <path
             inkscape:connector-curvature="0"
             id="path1492"
             style="font-size:31.75px;stroke:#ffffff;stroke-width:3.5999999;stroke-miterlimit:4;stroke-dasharray:none;stroke-opacity:1;fill:#0000bb;fill-opacity:1"
             d="m 148.30223,289.38281 h -2.96106 l -3.50366,-5.47253 q -0.74414,-1.16272 -0.74414,-1.78284 0,-1.16272 1.0852,-1.95337 0.5271,-0.29455 1.0387,-0.58911 0.5116,-0.29455 1.0387,-0.60461 1.0852,-0.75965 1.0852,-1.87586 0,-0.83716 -0.63562,-1.47278 -0.63562,-0.63562 -1.48828,-0.63562 h -2.54248 v 14.38672 h -2.54248 v -15.23938 q 0,-0.66662 0.5116,-1.17822 0.5271,-0.5116 1.19372,-0.5116 h 3.37964 q 1.81384,0 3.22461,1.31775 1.42627,1.33325 1.42627,3.11609 0,1.78284 -1.20923,3.22461 -1.17822,1.42627 -2.94556,1.96887 z" />
          <path
             inkscape:connector-curvature="0"
             id="path1494"
             style="font-size:31.75px;stroke:#ffffff;stroke-width:3.5999999;stroke-miterlimit:4;stroke-dasharray:none;stroke-opacity:1;fill:#0000bb;fill-opacity:1"
             d="m 152.82909,289.38281 h -2.54248 v -16.9292 h 2.54248 z" />
          <path
             inkscape:connector-curvature="0"
             id="path1496"
             style="font-size:31.75px;stroke:#ffffff;stroke-width:3.5999999;stroke-miterlimit:4;stroke-dasharray:none;stroke-opacity:1;fill:#0000bb;fill-opacity:1"
             d="m 163.75865,274.99609 h -3.39514 v 14.38672 h -2.52698 v -14.38672 h -3.39514 v -2.54248 h 9.31726 z" />
          <path
             inkscape:connector-curvature="0"
             id="path1498"
             style="font-size:31.75px;stroke:#ffffff;stroke-width:3.5999999;stroke-miterlimit:4;stroke-dasharray:none;stroke-opacity:1;fill:#0000bb;fill-opacity:1"
             d="m 173.61852,289.38281 h -6.55774 q -0.66663,0 -1.19373,-0.51159 -0.5116,-0.5271 -0.5116,-1.17823 v -13.54956 q 0,-0.66662 0.5116,-1.17822 0.5271,-0.5116 1.19373,-0.5116 h 6.55774 v 2.54248 h -5.72059 v 4.65088 h 3.59668 v 2.54248 h -3.59668 v 4.65088 h 5.72059 z" />
          <path
             inkscape:connector-curvature="0"
             id="path1500"
             style="font-size:31.75px;stroke:#ffffff;stroke-width:3.5999999;stroke-miterlimit:4;stroke-dasharray:none;stroke-opacity:1;fill:#0000bb;fill-opacity:1"
             d="m 185.58678,284.73193 q 0,1.81385 -1.42627,3.24012 -1.41077,1.41076 -3.22461,1.41076 -1.82935,0 -3.22461,-1.39526 -1.37976,-1.41077 -1.44177,-3.25562 h 2.54248 q 0.12402,0.85266 0.69763,1.47278 0.60461,0.63562 1.42627,0.63562 0.94568,0 1.55029,-0.82165 0.55811,-0.74414 0.55811,-1.72083 0,-0.83716 -0.63562,-1.47278 -0.63562,-0.63562 -1.47278,-0.63562 -1.98438,0 -3.33313,-1.53479 -1.33325,-1.55029 -1.33325,-3.55017 0,-1.82934 1.41076,-3.24011 1.41077,-1.41077 3.25562,-1.41077 1.81384,0 3.2091,1.41077 1.39527,1.39526 1.44178,3.24011 h -2.54248 q -0.10852,-0.83716 -0.69764,-1.47278 -0.58911,-0.63562 -1.41076,-0.63562 -0.96118,0 -1.5503,0.77515 -0.5736,0.75964 -0.5736,1.75183 0,0.85266 0.63562,1.48828 0.63562,0.63562 1.48828,0.63562 1.96887,0 3.34863,1.5658 1.30225,1.51929 1.30225,3.51916 z" />
        </g>
        <g
           id="text1458-4"
           style="font-style:normal;font-variant:normal;font-weight:normal;font-stretch:normal;font-size:28.22222137px;line-height:1.25;font-family:'SF Atarian System';-inkscape-font-specification:'SF Atarian System';letter-spacing:0px;word-spacing:0px;fill:#0000bb;fill-opacity:1;stroke:none;stroke-width:0.26458332"
           aria-label="favorites">
          <path
             inkscape:connector-curvature="0"
             id="path1503"
             style="font-size:31.75px;stroke-width:0.26458332;fill:#0000bb;fill-opacity:1"
             d="m 103.81857,275.17535 h -5.720578 v 4.65088 h 3.596678 v 2.54248 h -3.596678 v 7.19336 h -2.542481 v -15.23938 q 0,-0.66662 0.511597,-1.17822 0.5271,-0.5116 1.193726,-0.5116 h 6.557736 z" />
          <path
             inkscape:connector-curvature="0"
             id="path1505"
             style="font-size:31.75px;stroke-width:0.26458332;fill:#0000bb;fill-opacity:1"
             d="m 115.97287,289.56207 h -2.6355 l -1.0697,-3.81372 h -4.72839 l -1.08521,3.81372 h -2.61999 l 4.2633,-15.23938 q 0.48059,-1.68982 1.79834,-1.68982 1.31775,0 1.79834,1.68982 z m -4.41834,-6.3562 -1.65881,-5.86011 -1.64331,5.86011 z" />
          <path
             inkscape:connector-curvature="0"
             id="path1507"
             style="font-size:31.75px;stroke-width:0.26458332;fill:#0000bb;fill-opacity:1"
             d="m 126.82492,272.63287 -4.27881,15.23938 q -0.48059,1.68982 -1.79834,1.68982 -1.31775,0 -1.79834,-1.68982 l -4.2633,-15.23938 h 2.61999 l 3.44165,12.21631 3.44165,-12.21631 z" />
          <path
             inkscape:connector-curvature="0"
             id="path1509"
             style="font-size:31.75px;stroke-width:0.26458332;fill:#0000bb;fill-opacity:1"
             d="m 136.14218,284.91119 q 0,1.82935 -1.41077,3.24012 -1.41076,1.41076 -3.24011,1.41076 -1.82934,0 -3.24011,-1.41076 -1.41077,-1.41077 -1.41077,-3.24012 v -7.62744 q 0,-1.82934 1.41077,-3.24011 1.41077,-1.41077 3.24011,-1.41077 1.82935,0 3.24011,1.41077 1.41077,1.41077 1.41077,3.24011 z m -2.52698,0 v -7.62744 q 0,-0.83716 -0.63562,-1.47278 -0.63562,-0.63562 -1.48828,-0.63562 -0.85266,0 -1.48828,0.63562 -0.62012,0.62012 -0.62012,1.47278 v 7.62744 q 0,0.85266 0.62012,1.47278 0.63562,0.63562 1.48828,0.63562 0.85266,0 1.48828,-0.63562 0.63562,-0.63562 0.63562,-1.47278 z" />
          <path
             inkscape:connector-curvature="0"
             id="path1511"
             style="font-size:31.75px;stroke-width:0.26458332;fill:#0000bb;fill-opacity:1"
             d="m 148.32748,289.56207 h -2.96106 l -3.50366,-5.47253 q -0.74414,-1.16272 -0.74414,-1.78284 0,-1.16272 1.08521,-1.95337 0.5271,-0.29455 1.03869,-0.58911 0.5116,-0.29455 1.0387,-0.60461 1.0852,-0.75965 1.0852,-1.87586 0,-0.83716 -0.63562,-1.47278 -0.63562,-0.63562 -1.48828,-0.63562 h -2.54248 v 14.38672 h -2.54248 v -15.23938 q 0,-0.66662 0.5116,-1.17822 0.5271,-0.5116 1.19372,-0.5116 h 3.37964 q 1.81385,0 3.22461,1.31775 1.42627,1.33325 1.42627,3.11609 0,1.78284 -1.20923,3.22461 -1.17822,1.42627 -2.94555,1.96887 z" />
          <path
             inkscape:connector-curvature="0"
             id="path1513"
             style="font-size:31.75px;stroke-width:0.26458332;fill:#0000bb;fill-opacity:1"
             d="m 152.85434,289.56207 h -2.54248 v -16.9292 h 2.54248 z" />
          <path
             inkscape:connector-curvature="0"
             id="path1515"
             style="font-size:31.75px;stroke-width:0.26458332;fill:#0000bb;fill-opacity:1"
             d="m 163.78391,275.17535 h -3.39515 v 14.38672 h -2.52697 v -14.38672 h -3.39515 v -2.54248 h 9.31727 z" />
          <path
             inkscape:connector-curvature="0"
             id="path1517"
             style="font-size:31.75px;stroke-width:0.26458332;fill:#0000bb;fill-opacity:1"
             d="m 173.64377,289.56207 h -6.55774 q -0.66663,0 -1.19373,-0.51159 -0.51159,-0.5271 -0.51159,-1.17823 v -13.54956 q 0,-0.66662 0.51159,-1.17822 0.5271,-0.5116 1.19373,-0.5116 h 6.55774 v 2.54248 h -5.72058 v 4.65088 h 3.59668 v 2.54248 h -3.59668 v 4.65088 h 5.72058 z" />
          <path
             inkscape:connector-curvature="0"
             id="path1519"
             style="font-size:31.75px;stroke-width:0.26458332;fill:#0000bb;fill-opacity:1"
             d="m 185.61203,284.91119 q 0,1.81385 -1.42627,3.24012 -1.41077,1.41076 -3.22461,1.41076 -1.82934,0 -3.22461,-1.39526 -1.37976,-1.41077 -1.44177,-3.25562 h 2.54248 q 0.12402,0.85266 0.69763,1.47278 0.60462,0.63562 1.42627,0.63562 0.94568,0 1.55029,-0.82165 0.55811,-0.74414 0.55811,-1.72083 0,-0.83716 -0.63562,-1.47278 -0.63562,-0.63562 -1.47278,-0.63562 -1.98437,0 -3.33313,-1.53479 -1.33325,-1.55029 -1.33325,-3.55017 0,-1.82934 1.41077,-3.24011 1.41076,-1.41077 3.25561,-1.41077 1.81384,0 3.20911,1.41077 1.39526,1.39526 1.44177,3.24011 h -2.54248 q -0.10852,-0.83716 -0.69763,-1.47278 -0.58911,-0.63562 -1.41077,-0.63562 -0.96118,0 -1.55029,0.77515 -0.57361,0.75964 -0.57361,1.75183 0,0.85266 0.63562,1.48828 0.63562,0.63562 1.48828,0.63562 1.96887,0 3.34863,1.5658 1.30225,1.51929 1.30225,3.51916 z" />
        </g>
      </g>
      <g
         transform="translate(1.8708867,0.26726953)"
         id="g1545"
         style="fill:#0000bb;fill-opacity:1">
        <path
           d="m 86.777546,278.92099 -5.608641,-1.35521 -2.858757,-5.68802 -2.859107,5.68802 -5.608641,1.35521 3.841761,4.87055 -0.607222,6.52564 5.233209,-2.67786 5.23321,2.67786 -0.607574,-6.52559 z m -8.467398,7.39706 -3.991722,2.04249 0.463231,-4.97727 -2.93005,-3.71494 4.27795,-1.03362 2.180591,-4.33844 2.180592,4.33844 4.277599,1.03366 -2.93005,3.71494 0.463231,4.97726 z"
           id="path2"
           inkscape:connector-curvature="0"
           style="stroke:#ffffff;stroke-width:4;stroke-miterlimit:4;stroke-dasharray:none;stroke-opacity:1;fill:#0000bb;fill-opacity:1" />
        <path
           d="m 86.777546,278.92099 -5.608641,-1.35521 -2.858757,-5.68802 -2.859107,5.68802 -5.608641,1.35521 3.841761,4.87055 -0.607222,6.52564 5.233209,-2.67786 5.23321,2.67786 -0.607574,-6.52559 z m -8.467398,7.39706 -3.991722,2.04249 0.463231,-4.97727 -2.93005,-3.71494 4.27795,-1.03362 2.180591,-4.33844 2.180592,4.33844 4.277599,1.03366 -2.93005,3.71494 0.463231,4.97726 z"
           id="path2-1"
           inkscape:connector-curvature="0"
           style="stroke-width:0.03757789;fill:#0000bb;fill-opacity:1" />
      </g>
    </g>
  </g>
</svg>
