<?xml version="1.0" encoding="UTF-8" standalone="no"?>
<svg
   xmlns:dc="http://purl.org/dc/elements/1.1/"
   xmlns:cc="http://creativecommons.org/ns#"
   xmlns:rdf="http://www.w3.org/1999/02/22-rdf-syntax-ns#"
   xmlns:svg="http://www.w3.org/2000/svg"
   xmlns="http://www.w3.org/2000/svg"
   xmlns:xlink="http://www.w3.org/1999/xlink"
   xmlns:sodipodi="http://sodipodi.sourceforge.net/DTD/sodipodi-0.dtd"
   xmlns:inkscape="http://www.inkscape.org/namespaces/inkscape"
   viewBox="0 0 1000 113.99997"
   version="1.1"
   id="svg316"
   sodipodi:docname="logo.svg"
   inkscape:version="0.92.4 (5da689c313, 2019-01-14)">
  <metadata
     id="metadata320">
    <rdf:RDF>
      <cc:Work
         rdf:about="">
        <dc:format>image/svg+xml</dc:format>
        <dc:type
           rdf:resource="http://purl.org/dc/dcmitype/StillImage" />
        <dc:title>logo</dc:title>
      </cc:Work>
    </rdf:RDF>
  </metadata>
  <sodipodi:namedview
     pagecolor="#ffffff"
     bordercolor="#666666"
     borderopacity="1"
     objecttolerance="10"
     gridtolerance="10"
     guidetolerance="10"
     inkscape:pageopacity="0"
     inkscape:pageshadow="2"
     inkscape:window-width="1920"
     inkscape:window-height="1137"
     id="namedview318"
     showgrid="false"
     inkscape:pagecheckerboard="true"
     inkscape:zoom="2.272"
     inkscape:cx="500"
     inkscape:cy="56.999985"
     inkscape:window-x="-8"
     inkscape:window-y="344"
     inkscape:window-maximized="1"
     inkscape:current-layer="svg316" />
  <defs
     id="defs48">
    <linearGradient
       id="Dégradé_sans_nom_2"
       x1="674.14316"
       y1="-691.02061"
       x2="327.86356"
       y2="-691.02061"
       gradientTransform="matrix(1, 0, 0, -1, -0.1797, -633.19816)"
       gradientUnits="userSpaceOnUse">
      <stop
         offset="0"
         stop-color="#013a67"
         id="stop2" />
      <stop
         offset="1"
         stop-color="#6cd1ff"
         id="stop4" />
    </linearGradient>
    <linearGradient
       id="Dégradé_sans_nom_38"
       x1="361.41549"
       y1="-680.36783"
       x2="358.91541"
       y2="-677.86787"
       gradientTransform="matrix(1, 0, 0, -1, -0.1797, -633.19816)"
       gradientUnits="userSpaceOnUse">
      <stop
         offset="0"
         stop-color="#08406f"
         id="stop7" />
      <stop
         offset="1"
         stop-color="#60c5f5"
         id="stop9" />
    </linearGradient>
    <linearGradient
       id="Dégradé_sans_nom_38-2"
       x1="398.54716"
       y1="-727.97905"
       x2="396.24933"
       y2="-725.68122"
       xlink:href="#Dégradé_sans_nom_38" />
    <linearGradient
       id="Dégradé_sans_nom_38-3"
       x1="336.70692"
       y1="-715.39325"
       x2="336.70692"
       y2="-712.65969"
       xlink:href="#Dégradé_sans_nom_38" />
    <linearGradient
       id="Dégradé_sans_nom_38-4"
       x1="397.21006"
       y1="-740.19369"
       x2="397.21006"
       y2="-737.36886"
       xlink:href="#Dégradé_sans_nom_38" />
    <linearGradient
       id="Dégradé_sans_nom_38-5"
       x1="591.47428"
       y1="-715.3755"
       x2="591.47428"
       y2="-712.54434"
       xlink:href="#Dégradé_sans_nom_38" />
    <linearGradient
       id="Dégradé_sans_nom_38-6"
       x1="479.52687"
       y1="-715.92754"
       x2="479.52687"
       y2="-713.08877"
       xlink:href="#Dégradé_sans_nom_38" />
    <linearGradient
       id="Dégradé_sans_nom_38-7"
       x1="651.42252"
       y1="-644.49364"
       x2="651.42252"
       y2="-641.41149"
       xlink:href="#Dégradé_sans_nom_38" />
    <linearGradient
       id="Dégradé_sans_nom_38-8"
       x1="646.81673"
       y1="-660.03939"
       x2="646.81673"
       y2="-657.37111"
       xlink:href="#Dégradé_sans_nom_38" />
    <linearGradient
       id="Dégradé_sans_nom_38-9"
       x1="611.55009"
       y1="-687.61966"
       x2="611.55009"
       y2="-685.26194"
       xlink:href="#Dégradé_sans_nom_38" />
    <linearGradient
       id="Dégradé_sans_nom_38-10"
       x1="631.06532"
       y1="-671.69871"
       x2="631.06532"
       y2="-668.17837"
       xlink:href="#Dégradé_sans_nom_38" />
    <linearGradient
       id="Dégradé_sans_nom_38-11"
       x1="367.55128"
       y1="-699.40514"
       x2="365.30574"
       y2="-697.1596"
       xlink:href="#Dégradé_sans_nom_38" />
    <linearGradient
       id="Dégradé_sans_nom_38-12"
       x1="396.62094"
       y1="-658.55282"
       x2="393.21999"
       y2="-658.55282"
       xlink:href="#Dégradé_sans_nom_38" />
    <linearGradient
       id="Dégradé_sans_nom_38-13"
       x1="430.10185"
       y1="-668.43438"
       x2="425.8806"
       y2="-668.43438"
       xlink:href="#Dégradé_sans_nom_38" />
    <linearGradient
       id="Dégradé_sans_nom_38-14"
       x1="482.648"
       y1="-671.76544"
       x2="478.84965"
       y2="-671.76544"
       xlink:href="#Dégradé_sans_nom_38" />
    <linearGradient
       id="Dégradé_sans_nom_38-15"
       x1="541.77356"
       y1="-658.71461"
       x2="538.1603"
       y2="-658.71461"
       xlink:href="#Dégradé_sans_nom_38" />
    <linearGradient
       id="Dégradé_sans_nom_38-16"
       x1="574.5307"
       y1="-667.47438"
       x2="570.85658"
       y2="-667.47438"
       xlink:href="#Dégradé_sans_nom_38" />
    <linearGradient
       id="Dégradé_sans_nom_38-17"
       x1="384.90205"
       y1="-699.4764"
       x2="381.66274"
       y2="-699.4764"
       xlink:href="#Dégradé_sans_nom_38" />
    <linearGradient
       id="Dégradé_sans_nom_38-18"
       x1="397.25067"
       y1="-702.58173"
       x2="394.99876"
       y2="-700.32984"
       xlink:href="#Dégradé_sans_nom_38" />
    <linearGradient
       id="Dégradé_sans_nom_38-19"
       x1="671.16963"
       y1="-651.03085"
       x2="668.84394"
       y2="-648.70505"
       xlink:href="#Dégradé_sans_nom_38" />
    <linearGradient
       id="Dégradé_sans_nom_38-20"
       x1="412.93422"
       y1="-700.07246"
       x2="409.51269"
       y2="-700.07246"
       xlink:href="#Dégradé_sans_nom_38" />
    <linearGradient
       id="Dégradé_sans_nom_38-21"
       x1="414.6975"
       y1="-660.22644"
       x2="411.85314"
       y2="-657.38205"
       xlink:href="#Dégradé_sans_nom_38" />
    <linearGradient
       id="Dégradé_sans_nom_38-22"
       x1="457.20561"
       y1="-669.93088"
       x2="454.56998"
       y2="-667.29524"
       xlink:href="#Dégradé_sans_nom_38" />
    <linearGradient
       id="Dégradé_sans_nom_38-23"
       x1="513.27695"
       y1="-673.40966"
       x2="510.49827"
       y2="-670.63096"
       xlink:href="#Dégradé_sans_nom_38" />
    <linearGradient
       id="Dégradé_sans_nom_38-24"
       x1="559.32606"
       y1="-660.1321"
       x2="556.65914"
       y2="-657.46491"
       xlink:href="#Dégradé_sans_nom_38" />
    <linearGradient
       id="Dégradé_sans_nom_38-25"
       x1="630.16341"
       y1="-678.13422"
       x2="627.97237"
       y2="-675.94331"
       xlink:href="#Dégradé_sans_nom_38" />
    <linearGradient
       id="Dégradé_sans_nom_38-26"
       x1="637.1796"
       y1="-706.09235"
       x2="634.66961"
       y2="-703.58241"
       xlink:href="#Dégradé_sans_nom_38" />
    <linearGradient
       id="Dégradé_sans_nom_38-27"
       x1="600.43763"
       y1="-669.48281"
       x2="597.72305"
       y2="-666.76827"
       xlink:href="#Dégradé_sans_nom_38" />
    <linearGradient
       id="Dégradé_sans_nom_38-28"
       x1="628.97279"
       y1="-666.33594"
       x2="625.7322"
       y2="-663.09531"
       xlink:href="#Dégradé_sans_nom_38" />
    <linearGradient
       id="Dégradé_sans_nom_38-29"
       x1="438.27556"
       y1="-714.30274"
       x2="435.96668"
       y2="-711.99385"
       xlink:href="#Dégradé_sans_nom_38" />
    <linearGradient
       id="Dégradé_sans_nom_38-30"
       x1="512.4616"
       y1="-699.60428"
       x2="510.15374"
       y2="-697.29641"
       xlink:href="#Dégradé_sans_nom_38" />
    <linearGradient
       id="Dégradé_sans_nom_38-31"
       x1="542.16153"
       y1="-702.10455"
       x2="539.93724"
       y2="-699.88019"
       xlink:href="#Dégradé_sans_nom_38" />
    <linearGradient
       id="Dégradé_sans_nom_38-32"
       x1="555.41905"
       y1="-715.13353"
       x2="552.61512"
       y2="-712.32976"
       xlink:href="#Dégradé_sans_nom_38" />
    <linearGradient
       id="Dégradé_sans_nom_38-33"
       x1="465.83275"
       y1="-701.27032"
       x2="462.00591"
       y2="-701.27032"
       xlink:href="#Dégradé_sans_nom_38" />
    <linearGradient
       id="Dégradé_sans_nom_38-34"
       x1="529.74921"
       y1="-699.21017"
       x2="526.4456"
       y2="-699.21017"
       xlink:href="#Dégradé_sans_nom_38" />
    <linearGradient
       id="Dégradé_sans_nom_38-35"
       x1="558.0577"
       y1="-698.75889"
       x2="554.09992"
       y2="-698.75889"
       xlink:href="#Dégradé_sans_nom_38" />
    <linearGradient
       id="Dégradé_sans_nom_38-36"
       x1="599.67801"
       y1="-693.60558"
       x2="596.87758"
       y2="-690.8052"
       xlink:href="#Dégradé_sans_nom_38" />
    <linearGradient
       id="Dégradé_sans_nom_38-37"
       x1="620.13864"
       y1="-699.83799"
       x2="620.13864"
       y2="-696.16134"
       xlink:href="#Dégradé_sans_nom_38" />
  </defs>
  <title
     id="title50">logo</title>
  <g
     id="Layer_2"
     data-name="Layer 2">
    <rect
       x="358.64288"
       y="68.465073"
       width="54.111641"
       height="20.252621"
       id="rect52"
       style="fill:#ffffff" />
    <rect
       x="440.73727"
       y="68.465073"
       width="118.42133"
       height="20.252621"
       id="rect54"
       style="fill:#ffffff" />
  </g>
  <path
     inkscape:connector-curvature="0"
     id="path57"
     d="m 381.92108,110.50024 a 3.62155,3.62155 0 0 1 -2.94727,-5.80761 3.53951,3.53951 0 0 1 0.36914,-0.43262 l 26.80811,-26.69873 -0.0273,-12.30762 c -7.66211,7.67285 -19.78613,19.81348 -20.56543,20.5918 a 4.26538,4.26538 0 0 1 -3.10888,1.23633 c -0.15137,0 -0.28321,-0.0063 -0.38672,-0.01416 a 3.94954,3.94954 0 0 1 -1.77588,-0.563 4.16526,4.16526 0 0 1 -2.002,-3.73389 c -0.001,-0.32763 -0.022,-13.48584 -0.0366,-22.55078 L 353.86,84.66821 a 3.50084,3.50084 0 0 1 -2.478,1.02832 l -29.72949,-10e-4 a 3.64274,3.64274 0 0 1 -3.03467,-5.76758 3.4944,3.4944 0 0 1 0.40772,-0.48975 c 74.4209,-74.44092 74.51269,-74.519 74.66552,-74.648 a 3.72778,3.72778 0 0 1 2.41407,-0.88623 3.78024,3.78024 0 0 1 1.40478,0.27051 3.84212,3.84212 0 0 1 2.43115,3.62793 v 23.17586 c 15.66211,-15.65918 25.2334,-25.231 26.1709,-26.17334 a 3.831,3.831 0 0 1 2.84473,-1.30517 3.63033,3.63033 0 0 1 1.00928,0.14795 3.54084,3.54084 0 0 1 1.55615,0.90625 3.96005,3.96005 0 0 1 1.11523,2.92626 l -0.009,43.43946 C 445.80144,37.74878 476.38249,7.17212 477.94841,5.59937 a 4.76474,4.76474 0 0 1 3.5581,-1.67334 3.95908,3.95908 0 0 1 0.98145,0.12011 c 0.0576,0.01514 0.11475,0.03125 0.17139,0.04883 a 4.06879,4.06879 0 0 1 2.82812,3.917 l -0.009,49.31787 C 510.5744,32.26392 535.6535,7.21265 537.08026,5.78 a 4.77486,4.77486 0 0 1 3.55174,-1.6655 3.98079,3.98079 0 0 1 1.07813,0.144 c 0.042,0.01172 0.085,0.02491 0.12695,0.03809 a 4.03354,4.03354 0 0 1 2.78418,3.89453 v 23.05082 c 10.96,-10.9834 25.332,-25.38916 25.749,-25.81445 a 4.58706,4.58706 0 0 1 3.251,-1.5166 3.70528,3.70528 0 0 1 2.11719,0.65869 c 0.082,0.05664 0.16211,0.11719 0.23926,0.18115 a 4.72865,4.72865 0 0 1 1.44336,3.78272 V 48.8269 l 43,-43.085 a 3.533,3.533 0 0 1 0.39843,-0.34277 l 0.005,-0.00391 a 3.49857,3.49857 0 0 1 2.07617,-0.68213 h 56.1875 a 3.82253,3.82253 0 0 1 3.80957,2.56153 4.30525,4.30525 0 0 1 -0.96389,4.501 l -17.4736,17.53615 a 3.50231,3.50231 0 0 1 -2.47949,1.02929 h -27.915 l -1.13379,1.14307 h 5.78614 c 0.0576,-0.0024 0.11231,-0.0039 0.16113,-0.0039 a 3.72991,3.72991 0 0 1 2.99707,1.4668 4.0811,4.0811 0 0 1 0.41993,4.312 3.49658,3.49658 0 0 1 -0.71094,1.02491 l -18.61431,18.6128 a 3.50039,3.50039 0 0 1 -2.47461,1.0249 h -14.18945 l -1.53809,1.5415 40.83594,4.9e-4 a 3.92309,3.92309 0 0 1 3.58984,2.27784 4.15412,4.15412 0 0 1 -0.55468,4.4248 3.44248,3.44248 0 0 1 -0.29688,0.33447 l -18.20312,18.07862 a 3.50073,3.50073 0 0 1 -2.5459,1.09814 L 555.965,85.65942 a 3.50364,3.50364 0 0 1 -1.14062,0.19092 l -4.90723,4.9e-4 a 3.90517,3.90517 0 0 1 -3.27344,-1.80127 l 0.003,-0.0019 a 3.654,3.654 0 0 1 -0.5625,-1.87158 3.84074,3.84074 0 0 1 1.19629,-2.81885 l 3.57617,-3.59229 V 64.97632 L 530.134,85.68091 a 4.28233,4.28233 0 0 1 -3.0127,1.2915 3.95631,3.95631 0 0 1 -0.53223,-0.03662 3.45272,3.45272 0 0 1 -0.49609,-0.09766 v 0 a 3.97974,3.97974 0 0 1 -2.97656,-3.54394 c -0.007,-0.08887 -0.0107,-0.17773 -0.0107,-0.2666 l -0.0371,-22.46289 -24.6587,24.64111 a 3.50051,3.50051 0 0 1 -2.47412,1.02441 c -0.0278,0 -32.66259,-0.019 -32.66259,-0.019 a 4.52351,4.52351 0 0 1 -3.6836,-2.07031 5.09289,5.09289 0 0 1 -0.79248,-2.76318 l -0.0376,-15.99952 c -1.38476,1.38184 -44.00976,43.91993 -44.19824,44.10645 a 3.49935,3.49935 0 0 1 -2.46191,1.01221 l -29.99317,-0.001 c -0.065,0.003 -0.12893,0.005 -0.18508,0.005 z" />
  <path
     style="fill:#ffffff"
     inkscape:connector-curvature="0"
     id="path59"
     d="m 428.95681,7 a 0.12081,0.12081 0 0 1 0.0672,0.01733 l -10e-4,0.00336 10e-4,-1.2e-4 c 0.0135,0 0.11322,0.01495 0.11322,0.45947 l -0.0107,51.84009 0.0103,0.05176 0.0162,-0.02893 c 0,0 51.11695,-51.1062 51.34763,-51.347 a 1.36468,1.36468 0 0 1 1.00571,-0.56988 0.48949,0.48949 0 0 1 0.11041,0.01025 l -1.82336,4.734 4.2e-4,-4.9e-4 1.82358,-4.73284 a 0.55441,0.55441 0 0 1 0.36951,0.57483 l -0.0101,57.76233 c 0.0264,-0.02625 57.42767,-57.35809 57.65832,-57.59943 a 1.34033,1.34033 0 0 1 0.99719,-0.55987 0.53428,0.53428 0 0 1 0.13166,0.01355 l -2.22736,6.161 3.7e-4,-3.1e-4 2.2276,-6.15942 a 0.5284,0.5284 0 0 1 0.35681,0.56152 v 31.47872 l 0.0129,0.10224 c 0.0508,-0.10346 0.0865,-0.16755 0.0865,-0.16755 0,0 31.42614,-31.49334 31.65625,-31.73419 0.38531,-0.38012 0.61737,-0.45984 0.74426,-0.45984 a 0.17326,0.17326 0 0 1 0.12848,0.04157 l -2.055,5.31525 7e-5,-1.3e-4 2.05554,-5.3164 c 0,0 0.16986,0.14007 0.16986,1.08252 v 48.75476 l 48.97784,-49.07355 1.8,2.36279 h 10e-4 l -1.7992,-2.36407 h 56.18741 c 0.4975,0 0.4975,0.19836 0.4975,0.19836 l -1.27026,0.54669 1.27215,-0.546 a 0.879,0.879 0 0 1 -0.135,0.8949 L 661.981,26.84125 660.406,24.7121 h -10e-4 l 1.57538,2.12915 H 632.607 l -1.07617,-2.18659 -3.1e-4,3.1e-4 1.07648,2.18628 -8.034,8.1037 c -0.0152,0.01251 -0.0234,0.02667 -0.0383,0.0393 h 14.28162 a 0.50241,0.50241 0 0 1 0.0623,-0.004 0.22987,0.22987 0 0 1 0.2171,0.09656 l -6.304,3.05829 h 1.2e-4 l 6.30384,-3.05768 c 0,0 0.26245,0.18634 0.0146,0.73145 l -18.614,18.61267 -1.71161,-1.99835 h -4.2e-4 l 1.712,1.99835 H 604.855 l -2.21179,-1.99646 h -10e-4 l 2.21295,1.99646 -8.524,8.54169 49.27386,6.1e-4 h 10e-4 a 0.40778,0.40778 0 0 1 0.41761,0.26562 l 1.2e-4,-6e-5 c 6.7e-4,0.0019 0.25165,0.2757 -0.147,0.78778 l -18.28376,18.15891 -0.62256,-0.85321 0.62323,0.85449 -72.59582,-0.01843 -10e-4,0.0013 -0.17236,0.19012 h -4.89295 l -0.0153,3.1e-4 a 0.39779,0.39779 0 0 1 -0.31488,-0.17206 c 0,0 -0.0983,-0.09314 0.16034,-0.35364 l 4.595,-4.61468 2.97974,1.24725 v -4.3e-4 l -2.97974,-1.24743 V 56.53149 l -26.69674,26.67322 a 0.77746,0.77746 0 0 1 -0.53851,0.26752 0.33477,0.33477 0 0 1 -0.10309,-0.01373 l -0.002,0.0042 a 0.53839,0.53839 0 0 1 -0.41071,-0.44116 L 526.55517,52.13287 495.93585,82.73 494.53472,80.42849 h -3.6e-4 l 1.39831,2.30084 -32.65762,-0.01833 h -0.005 a 1.178,1.178 0 0 1 -0.50873,-0.21234 l 2.4917,-2.248 h -0.003 l -2.48883,2.24548 v 0 a 1.31913,1.31913 0 0 1 -0.46454,-1.12689 l -0.0571,-24.40875 c -0.0288,0.02869 -49.85764,49.75623 -50.14087,50.03632 l -7.7e-4,-0.001 h -30.13006 l -0.006,0.003 c 0,0 -0.017,0.002 -0.0415,0.002 -0.089,0 -0.277,-0.0253 -0.1081,-0.25983 l 27.84208,-27.728 1.33444,0.59436 -1.33444,-0.59626 -0.05,-22.19873 -6.4e-4,-0.0014 -6.1e-4,0.0059 c 0,0 -26.29562,26.333 -26.54535,26.58019 a 0.86556,0.86556 0 0 1 -0.60819,0.18579 c -0.0897,0 -0.1514,-0.0069 -0.15249,-0.007 l -5.2e-4,0.0012 c 0,0 -0.52793,-0.0437 -0.51273,-0.72821 -6.4e-4,-0.58118 -0.0494,-31.07886 -0.0494,-31.07886 l -2.7e-4,-3.6e-4 -30.35219,30.42771 -8.9e-4,-0.0013 h -29.709 l 6.34335,-2.37964 -0.0149,2.4e-4 -6.32843,2.3794 -0.0196,4.3e-4 c -0.0754,0 -0.33392,-0.01831 -0.15219,-0.28248 0,0 74.319,-74.33917 74.45331,-74.45263 a 0.22778,0.22778 0 0 1 0.15155,-0.05622 0.30564,0.30564 0 0 1 0.14325,0.038 l 5.8e-4,-0.00141 c 0,0 0.192,0.04755 0.192,0.36188 v 31.62412 l 7e-4,-8.6e-4 c 0,0 32.00855,-32.00036 32.23933,-32.24121 C 428.80224,7.03223 428.89767,7 428.95681,7 m -34.94647,5.958 0.007,-0.0067 1.65295,-4.08061 -1.65966,4.08733 m -44.38522,66.50428 0.0496,-0.04932 -0.0501,0.04859 5.2e-4,7.3e-4 m 61.52349,25.91193 -0.38714,-0.66083 h -3.1e-4 l 0.38745,0.66083 M 321.6723,82.19507 h 0.005 M 428.95684,0 A 7.30417,7.30417 0 0 0 423.577,2.39056 c -1.19647,1.20105 -10.80585,10.81037 -20.13574,20.13892 V 7.80261 a 7.33922,7.33922 0 0 0 -4.62738,-6.877 7.25385,7.25385 0 0 0 -7.40625,1.212 c -0.2898,0.24482 -0.33066,0.2793 -74.85749,74.82636 a 6.9961,6.9961 0 0 0 -0.81619,0.981 7.142,7.142 0 0 0 5.91882,11.25061 l 0.0816,-4.9e-4 h 29.54944 c 0.033,4.3e-4 0.0659,6.7e-4 0.0988,6.7e-4 A 6.99951,6.99951 0 0 0 356.338,87.14 l 18.42352,-18.46936 c 0.0111,6.95056 0.0216,13.54023 0.0224,14.14777 a 7.65386,7.65386 0 0 0 6.93549,7.73389 q 0.11187,0.0092 0.22342,0.01489 c 0.15011,0.0087 0.32095,0.01477 0.50689,0.01477 a 7.72132,7.72132 0 0 0 5.60337,-2.28149 c 0.79086,-0.79041 7.85214,-7.861 14.58941,-14.60755 l 0.005,2.418 -25.77499,25.66929 a 6.99635,6.99635 0 0 0 -0.74,0.86823 A 7.12061,7.12061 0 0 0 381.92059,114 c 0.0791,0 0.16183,-0.001 0.246,-0.004 h 29.83209 c 0.0337,4.9e-4 0.0673,7.4e-4 0.101,7.4e-4 a 7.00013,7.00013 0 0 0 4.92115,-2.02179 c 0.0588,-0.0582 0.23022,-0.22766 38.25851,-38.17816 l 0.0178,7.58929 a 8.45616,8.45616 0 0 0 2.39975,5.94507 6.99885,6.99885 0 0 0 1.00168,0.868 7.9037,7.9037 0 0 0 4.57181,1.51233 l 0.0259,-6e-5 32.5343,0.01831 q 0.0529,8.3e-4 0.10568,7.9e-4 a 6.99987,6.99987 0 0 0 4.94757,-2.04852 l 18.69911,-18.68557 0.023,14.037 q 5.5e-4,0.26523 0.0209,0.52991 a 7.53676,7.53676 0 0 0 5.44269,6.62359 6.99668,6.99668 0 0 0 1.07605,0.22181 7.43274,7.43274 0 0 0 0.97571,0.0639 7.74393,7.74393 0 0 0 5.46173,-2.29132 l 14.77362,-14.7605 v 0.89911 l -2.55536,2.56622 a 7.39464,7.39464 0 0 0 -2.21753,5.342 7.132,7.132 0 0 0 1.11029,3.7038 l -10e-4,7.9e-4 a 7.43494,7.43494 0 0 0 6.22339,3.41834 l 0.0636,-3.1e-4 h 4.84461 a 6.99594,6.99594 0 0 0 1.62451,-0.191 l 71.143,0.01807 a 7.00075,7.00075 0 0 0 5.03723,-2.13721 L 650.8098,68.98436 a 7.01244,7.01244 0 0 0 0.59076,-0.66663 7.666,7.666 0 0 0 0.82227,-8.355 7.39739,7.39739 0 0 0 -6.61652,-3.99847 l -16.752,-2.5e-4 L 644.06,40.75879 a 6.99952,6.99952 0 0 0 1.42285,-2.053 7.89442,7.89442 0 0 0 0.58307,-4.8645 h 15.91553 a 6.99778,6.99778 0 0 0 0.82483,-0.04877 l 0.003,-3.7e-4 0.0116,-0.0014 0.007,-8.5e-4 0.006,-8e-4 0.009,-10e-4 0.002,-3e-4 a 6.98518,6.98518 0 0 0 0.99322,-0.19739 l 0.006,-0.0016 0.005,-0.0014 0.0109,-0.003 10e-4,-3.1e-4 a 6.99784,6.99784 0 0 0 3.078,-1.80182 l 17.47113,-17.534 a 7.782,7.782 0 0 0 1.92926,-7.705 7.35905,7.35905 0 0 0 -7.25232,-5.32983 H 622.90038 A 7.00536,7.00536 0 0 0 617.9439,3.26968 L 580.92065,40.3653 V 8.53339 a 7.95474,7.95474 0 0 0 -2.7168,-6.48346 q -0.2114,-0.17431 -0.4339,-0.33026 a 7.20369,7.20369 0 0 0 -4.14825,-1.30909 7.94926,7.94926 0 0 0 -5.66034,2.47663 q -0.0442,0.04357 -0.0875,0.08789 C 567.40429,3.45099 557.63567,13.24316 548.1217,22.77856 V 8.19116 a 7.51864,7.51864 0 0 0 -5.28949,-7.25043 q -0.0893,-0.02755 -0.17957,-0.05285 a 7.48741,7.48741 0 0 0 -2.02,-0.273 h -0.002 a 8.32152,8.32152 0 0 0 -6.07855,2.74487 c -1.94666,1.95117 -29.29627,29.2699 -45.57156,45.52619 l 0.007,-40.87287 A 7.57006,7.57006 0 0 0 483.70577,0.75513 Q 483.53333,0.7013 483.35729,0.65607 a 7.448,7.448 0 0 0 -1.85061,-0.23 8.34687,8.34687 0 0 0 -6.08576,2.75128 c -1.64132,1.64685 -22.32214,22.3258 -39.29065,39.2915 l 0.007,-34.9873 a 7.54074,7.54074 0 0 0 -1.556,-4.72077 6.98407,6.98407 0 0 0 -1.4314,-1.39813 A 7.1642,7.1642 0 0 0 428.95684,0 Z" />
  <polygon
     id="polygon181"
     points="578.078,57.208 571.574,57.568 571.756,12.706 545.64,39.359 539.393,40.1 539.393,12.942 485.926,65.844 479.278,66.551 479.843,12.12 433.113,59.568 426.977,59.598 426.258,14.029 401.046,39.42 394.034,39.779 394.3,12.666 327.684,79.821 349.625,79.462 378.392,51.542 383.909,51.542 383.643,79.596 406.556,56.147 412.035,56.147 412.035,80.033 386.818,105.068 410.982,104.71 458.528,56.626 464.932,56.626 464.932,80.249 494.566,80.429 523.225,51.59 528.757,51.231 528.671,78.492 551.571,55.592 556.981,55.592 557.34,78.684 556.872,79.886 626.067,79.886 639.314,66.46 596.291,65.729 595.9,59.485 602.603,52.425 618.835,52.423 632.936,38.141 624.413,37.781 624.413,31.771 631.653,24.533 660.545,24.713 673.963,10.757 624.529,10.577 "
     style="fill:#00d3ff;fill-opacity:0.89767444" />
  <path
     inkscape:connector-curvature="0"
     id="path183"
     d="m 393.02888,15.37523 -64.0863,64.0863 -7.27027,2.73356 c 0,0 -0.38282,0.02472 -0.17176,-0.282 0,0 74.31894,-74.33922 74.4533,-74.45267 a 0.26556,0.26556 0 0 1 0.296,-0.01774 z" />
  <path
     inkscape:connector-curvature="0"
     id="path185"
     d="m 412.75388,80.39257 -23.77876,23.78066 -7.013,2.82483 c 0,0 -0.36507,0.0412 -0.14958,-0.25795 l 27.842,-27.728 z" />
  <polygon
     id="polygon189"
     points="412.099,106.996 381.962,106.996 388.975,104.171 410.443,104.171 " />
  <polygon
     id="polygon191"
     points="627.594,82.177 554.995,82.159 557.41,79.347 625.529,79.346 " />
  <path
     inkscape:connector-curvature="0"
     id="path195"
     d="m 622.90041,8.21333 h 56.1873 c 0.49751,0 0.49751,0.19838 0.49751,0.19838 l -6.7005,2.88377 h -47.63866 z" />
  <polygon
     id="polygon197"
     points="661.98,26.841 632.607,26.841 631.294,24.173 660.006,24.173 " />
  <polygon
     id="polygon199"
     points="620.496,54.422 604.855,54.422 602.244,52.065 618.477,52.064 " />
  <path
     inkscape:connector-curvature="0"
     id="path201"
     d="m 632.03848,38.50055 h -8.60694 l -0.75612,-3.5163 h 16.1409 c 0.2193,-0.02726 0.27951,0.09253 0.27951,0.09253 z" />
  <path
     inkscape:connector-curvature="0"
     id="path203"
     d="m 381.73464,51.76844 -30.3525,30.42792 -1.75752,-2.73356 29.53553,-29.386 a 3.221,3.221 0 0 1 2.963,-1.0971 z" />
  <path
     inkscape:connector-curvature="0"
     id="path205"
     d="M 393.04029,39.74849 V 15.36255 l 3.20891,-7.92182 c 0,0 0.192,0.04754 0.192,0.3619 v 34.00126 l -0.19964,1.46471 c 0,0 -2.84951,0.01584 -3.20127,-3.52011 z" />
  <path
     inkscape:connector-curvature="0"
     id="path207"
     d="m 429.92215,63.30923 c 0,0 -4.14439,1.2359 -4.19636,-3.5651 -0.0507,-4.63495 -0.008,-43.91637 -0.008,-43.91637 l 3.30461,-8.80723 c 0,0 0.11536,-0.01712 0.11536,0.4595 l -0.0108,51.84009 z" />
  <path
     inkscape:connector-curvature="0"
     id="path209"
     d="m 482.4683,69.68966 c 0,0 -3.73242,0.3657 -3.77743,-3.85855 L 478.67,15.08748 481.61779,7.43693 a 0.55449,0.55449 0 0 1 0.3695,0.57485 l -0.0102,57.76422 z" />
  <path
     inkscape:connector-curvature="0"
     id="path211"
     d="m 541.59386,43.39662 a 3.34374,3.34374 0 0 1 -3.61326,-2.892 V 15.32833 l 2.78427,-7.69873 a 0.52846,0.52846 0 0 1 0.35682,0.56155 V 39.6699 Z" />
  <path
     inkscape:connector-curvature="0"
     id="path213"
     d="m 574.351,61.08461 a 3.262,3.262 0 0 1 -3.67412,-2.77159 V 15.40121 l 3.07392,-7.95034 c 0,0 0.16986,0.14007 0.16986,1.08253 v 48.94554 z" />
  <path
     inkscape:connector-curvature="0"
     id="path215"
     d="m 382.29681,83.57613 c 0,0 -0.52795,-0.04373 -0.51274,-0.72823 -6.3e-4,-0.58119 -0.0494,-31.07883 -0.0494,-31.07883 0,0 -0.772,-0.9995 0.38851,-2.78871 a 3.2,3.2 0 0 1 2.5992,2.69744 v 25.58635 z" />
  <path
     inkscape:connector-curvature="0"
     id="path217"
     d="m 409.60329,56.816 c 0,0 -26.29557,26.333 -26.54529,26.58013 -0.21929,0.24021 -0.76182,0.17873 -0.76182,0.17873 l 2.42554,-6.31451 22.85406,-22.87244 a 3.05825,3.05825 0 0 1 2.42807,-1.03752 z" />
  <path
     inkscape:connector-curvature="0"
     id="path219"
     d="m 679.45215,9.30726 -17.47121,17.534 -1.97427,-2.66891 12.87364,-12.88135 6.70681,-2.8787 a 0.87907,0.87907 0 0 1 -0.13497,0.89496 z" />
  <path
     inkscape:connector-curvature="0"
     id="path221"
     d="m 409.65462,79.01026 -0.0501,-22.19871 a 3.57617,3.57617 0 0 1 0.39993,-3.458 2.93293,2.93293 0 0 1 2.75,2.62771 l -6.4e-4,24.41383 z" />
  <path
     inkscape:connector-curvature="0"
     id="path223"
     d="m 425.71819,15.82712 -26.27846,26.27909 a 4.66232,4.66232 0 0 1 -3.19751,1.16365 3.56447,3.56447 0 0 1 0.19965,-3.844 c 0,0 32.00861,-32.00034 32.23931,-32.24118 0.20979,-0.26429 0.34289,-0.16732 0.34289,-0.16732 z" />
  <path
     inkscape:connector-curvature="0"
     id="path225"
     d="M 478.66932,15.08938 431.5301,62.228 a 3.44434,3.44434 0 0 1 -1.608,1.07935 c -2.39638,-1.19027 -0.76879,-3.96439 -0.76879,-3.96439 0,0 51.11698,-51.10618 51.34769,-51.34702 0.59767,-0.69274 1.11612,-0.55964 1.11612,-0.55964 z" />
  <path
     inkscape:connector-curvature="0"
     id="path227"
     d="m 537.9806,15.32833 -53.34218,53.34092 a 3.87336,3.87336 0 0 1 -2.17012,1.01914 c -1.97428,-0.98618 -0.49183,-3.91369 -0.49183,-3.91369 0,0 57.42828,-57.35855 57.659,-57.6 0.5964,-0.69591 1.12879,-0.54633 1.12879,-0.54633 z" />
  <path
     inkscape:connector-curvature="0"
     id="path229"
     d="m 570.67688,15.40121 -26.94457,26.94521 a 3.99405,3.99405 0 0 1 -2.13843,1.0502 c -1.85829,-1.20928 -0.37268,-3.792 -0.37268,-3.792 0,0 31.42616,-31.49333 31.65621,-31.73417 0.66359,-0.65471 0.87275,-0.41831 0.87275,-0.41831 z" />
  <path
     inkscape:connector-curvature="0"
     id="path231"
     d="m 639.11039,35.80881 -18.614,18.6127 -2.02053,-2.359 13.56259,-13.562 7.05733,-3.42314 c 0,0 0.26242,0.18638 0.0146,0.73144 z" />
  <path
     inkscape:connector-curvature="0"
     id="path233"
     d="m 645.87678,64.01718 -18.28378,18.1589 -2.06491,-2.82991 12.707,-12.707 7.7887,-3.40983 c 6.8e-4,0.0019 0.25166,0.27573 -0.14701,0.78784 z" />
  <path
     inkscape:connector-curvature="0"
     id="path235"
     d="m 625.2461,11.29611 -48.74654,48.74717 a 3.96929,3.96929 0 0 1 -2.15173,1.042 3.37881,3.37881 0 0 1 -0.43479,-3.78947 L 622.89851,8.21459 Z" />
  <path
     inkscape:connector-curvature="0"
     id="path237"
     d="m 632.607,26.84123 -8.034,8.10377 a 3.523,3.523 0 0 0 -1.14146,3.55433 2.5042,2.5042 0 0 1 -2.16254,-2.34193 3.35816,3.35816 0 0 1 0.85436,-2.83117 l 9.17039,-9.152 z" />
  <path
     inkscape:connector-curvature="0"
     id="path239"
     d="m 410.44433,104.172 49.381,-49.4 a 3.35267,3.35267 0 0 1 2.70441,-1.12245 l -0.289,3.31031 c 0,0 -49.85821,49.75681 -50.14152,50.03694 z" />
  <path
     inkscape:connector-curvature="0"
     id="path241"
     d="m 494.20683,79.89 30.19595,-30.20609 a 3.357,3.357 0 0 1 2.70441,-1.12245 L 526.564,52.124 495.93582,82.73 Z" />
  <path
     inkscape:connector-curvature="0"
     id="path243"
     d="m 529.56949,76.87691 23.31039,-23.31673 a 2.92529,2.92529 0 0 1 2.15237,-1.12246 l -0.0678,3.48651 -27.30457,27.28049 c -0.36063,0.35683 -0.64584,0.25289 -0.64584,0.25289 z" />
  <path
     inkscape:connector-curvature="0"
     id="path245"
     d="m 549.76161,81.825 4.595,-4.61467 3.522,1.47421 -0.46521,0.66358 -2.41666,2.81215 -0.17239,0.19015 h -4.89291 a 0.39555,0.39555 0 0 1 -0.3302,-0.17177 c 0,0 -0.0982,-0.09321 0.16037,-0.35365 z" />
  <path
     inkscape:connector-curvature="0"
     id="path247"
     d="m 462.2971,81.36925 -0.057,-24.41066 c 0,0 -1.10154,-1.27773 0.28965,-3.31032 a 3.32961,3.32961 0 0 1 3.12334,2.98328 l -6.4e-4,23.25652 -2.89075,2.60807 a 1.3184,1.3184 0 0 1 -0.4646,-1.12689 z" />
  <path
     inkscape:connector-curvature="0"
     id="path249"
     d="M 526.60587,83.02156 526.55517,52.124 a 3.3,3.3 0 0 1 0.552,-3.56257 c 0.37775,-0.0057 2.05541,0.29915 2.4623,2.98011 v 25.336 l -2.55292,6.58514 a 0.53839,0.53839 0 0 1 -0.41068,-0.44112 z" />
  <path
     inkscape:connector-curvature="0"
     id="path251"
     d="M 554.35663,77.20965 V 56.52952 a 3.28736,3.28736 0 0 1 0.67436,-4.09179 2.77828,2.77828 0 0 1 2.847,2.7399 v 23.50623 z" />
  <path
     inkscape:connector-curvature="0"
     id="path253"
     d="m 604.855,54.42151 -8.52518,8.54293 -2.43631,3.04793 c -2.46927,-1.55787 -1.23781,-4.35672 -0.578,-5.02284 l 8.92892,-8.92322 z" />
  <path
     inkscape:connector-curvature="0"
     id="path255"
     d="m 638.237,66.63983 h -42.07835 a 4.64421,4.64421 0 0 1 -2.26519,-0.62872 c -0.008,-2.26329 2.43631,-3.04793 2.43631,-3.04793 l 49.2751,6.3e-4 a 0.40934,0.40934 0 0 1 0.41956,0.26746 z" />
</svg>
