<?xml version="1.0" encoding="UTF-8" standalone="no"?>
<svg
   xmlns:dc="http://purl.org/dc/elements/1.1/"
   xmlns:cc="http://creativecommons.org/ns#"
   xmlns:rdf="http://www.w3.org/1999/02/22-rdf-syntax-ns#"
   xmlns:svg="http://www.w3.org/2000/svg"
   xmlns="http://www.w3.org/2000/svg"
   xmlns:sodipodi="http://sodipodi.sourceforge.net/DTD/sodipodi-0.dtd"
   xmlns:inkscape="http://www.inkscape.org/namespaces/inkscape"
   viewBox="0 0 1000 114"
   version="1.1"
   id="svg78"
   sodipodi:docname="logo.svg"
   inkscape:version="0.92.4 (5da689c313, 2019-01-14)">
  <metadata
     id="metadata84">
    <rdf:RDF>
      <cc:Work
         rdf:about="">
        <dc:format>image/svg+xml</dc:format>
        <dc:type
           rdf:resource="http://purl.org/dc/dcmitype/StillImage" />
        <dc:title>logo</dc:title>
      </cc:Work>
    </rdf:RDF>
  </metadata>
  <defs
     id="defs82" />
  <sodipodi:namedview
     pagecolor="#ffffff"
     bordercolor="#666666"
     borderopacity="1"
     objecttolerance="10"
     gridtolerance="10"
     guidetolerance="10"
     inkscape:pageopacity="0"
     inkscape:pageshadow="2"
     inkscape:window-width="1920"
     inkscape:window-height="1017"
     id="namedview80"
     showgrid="false"
     inkscape:zoom="1.136"
     inkscape:cx="553.88483"
     inkscape:cy="57"
     inkscape:window-x="-8"
     inkscape:window-y="-8"
     inkscape:window-maximized="1"
     inkscape:current-layer="svg78"
     inkscape:pagecheckerboard="true" />
  <title
     id="title2">logo</title>
  <polygon
     style="fill:#ffffff"
     id="polygon41"
     points="" />
  <path
     style="fill:#ffffff;stroke-width:1.44000006"
     inkscape:connector-curvature="0"
     id="path9"
     d="m 644.54135,84.427258 a 5.03964,5.03964 0 0 1 -4.73344,-6.771096 l 9.40922,-25.720387 a 5.0419008,5.0419008 0 0 1 4.73063,-3.308904 5.10768,5.10768 0 0 1 0.66797,0.04359 5.04,5.04 0 0 1 4.35656,4.564699 l 2.21484,25.720301 a 5.04,5.04 0 0 1 -5.02171,5.471726 z" />
  <path
     style="fill:#ffffff;stroke-width:1.44000006"
     inkscape:connector-curvature="0"
     id="path11"
     d="m 653.95013,53.666655 2.21595,25.720992 h -11.62442 l 9.40847,-25.720992 m -0.006,-10.080576 a 10.080835,10.080835 0 0 0 -9.46062,6.617793 l -9.40855,25.720992 a 10.08,10.08 0 0 0 9.46656,13.542783 h 11.62453 A 10.08,10.08 0 0 0 666.20908,78.522452 L 663.9932,52.80146 a 10.085227,10.085227 0 0 0 -10.04904,-9.215381 z" />
  <path
     style="fill:#ffffff;stroke-width:1.44000006"
     inkscape:connector-curvature="0"
     id="path13"
     d="m 385.29566,84.428669 a 5.0401152,5.0401152 0 0 1 -4.73205,-6.775315 l 9.43173,-25.720315 a 5.0401872,5.0401872 0 0 1 4.72922,-3.304685 4.935312,4.935312 0 0 1 0.67218,0.045 5.04,5.04 0 0 1 4.35235,4.567493 l 2.19024,25.720315 a 5.040792,5.040792 0 0 1 -5.02171,5.467507 z" />
  <path
     style="fill:#ffffff;stroke-width:1.44000006"
     inkscape:connector-curvature="0"
     id="path15"
     d="m 394.72711,53.668671 2.19066,25.720056 h -11.62224 l 9.43162,-25.720056 m -0.006,-10.080605 a 10.081181,10.081181 0 0 0 -9.45792,6.61019 l -9.43162,25.720085 a 10.08,10.08 0 0 0 9.46376,13.5504 h 11.62224 A 10.08,10.08 0 0 0 406.96149,78.533295 L 404.77082,52.813224 A 10.085141,10.085141 0 0 0 394.72129,43.58808 Z" />
  <path
     style="fill:#ffffff;stroke-width:1.44000006"
     inkscape:connector-curvature="0"
     id="path17"
     d="m 690.11229,71.862408 a 5.0404608,5.0404608 0 0 1 -4.96265,-5.921712 L 687.979,50.027573 a 5.040648,5.040648 0 0 1 4.96266,-4.158288 h 6.78939 a 14.243371,14.243371 0 0 1 8.55139,2.290781 c 2.64517,1.949069 3.96288,5.153904 3.96288,9.562507 a 12.906893,12.906893 0 0 1 -5.02453,10.86192 17.551757,17.551757 0 0 1 -10.7424,3.277959 z" />
  <path
     style="fill:#ffffff;stroke-width:1.44000006"
     inkscape:connector-curvature="0"
     id="path19"
     d="m 699.73139,50.909688 a 9.5979888,9.5979888 0 0 1 5.6105,1.34378 c 1.24927,0.919324 1.86284,2.73384 1.86284,5.468716 a 8.0022528,8.0022528 0 0 1 -3.01753,6.837639 12.566477,12.566477 0 0 1 -7.70862,2.262053 h -6.36594 v -9.8e-4 l 2.82938,-15.911208 h 6.78937 m 0,-10.08 h -6.78937 a 10.08,10.08 0 0 0 -9.92426,8.315223 l -2.82937,15.911208 a 10.08,10.08 0 0 0 9.92271,11.844777 l 6.36596,9.65e-4 a 22.456166,22.456166 0 0 0 13.72359,-4.25219 18.115315,18.115315 0 0 0 7.08413,-14.927487 c 0,-7.599945 -3.24563,-11.583676 -5.96834,-13.58735 l -0.0946,-0.06872 a 19.047298,19.047298 0 0 0 -11.49047,-3.236429 z" />
  <path
     style="fill:#ffffff;stroke-width:1.44000006"
     inkscape:connector-curvature="0"
     id="path21"
     d="m 658.19042,108.09866 a 5.04,5.04 0 0 1 -5.02172,-4.6097 l -0.68626,-8.002963 h -8.47405 l -3.40734,9.305153 a 5.0384592,5.0384592 0 0 1 -4.73205,3.30751 h -12.70968 a 5.040216,5.040216 0 0 1 -4.67578,-6.92156 L 644.509,36.510682 a 5.039856,5.039856 0 0 1 4.67579,-3.158438 H 663.094 a 5.0396544,5.0396544 0 0 1 5.00766,4.470465 l 7.3561,64.666411 a 5.0387472,5.0387472 0 0 1 -5.00766,5.60954 z" />
  <path
     style="fill:#ffffff;stroke-width:1.44000006"
     inkscape:connector-curvature="0"
     id="path23"
     d="m 663.09419,38.392157 7.35653,64.666713 h -12.26 l -1.08228,-12.61306 h -16.62131 l -4.61872,12.61306 h -12.70857 l 26.02572,-64.666713 h 13.9087 m -18.55264,40.995519 h 11.62446 l -2.21595,-25.721021 -9.40851,25.721021 m 18.55257,-51.075519 h -13.9087 a 10.08,10.08 0 0 0 -9.3511,6.316546 l -26.02572,64.666745 a 10.08,10.08 0 0 0 9.3511,13.843422 h 12.70864 a 10.08,10.08 0 0 0 9.46534,-6.61392 l 2.19681,-5.99917 h 0.32581 l 0.29131,3.39486 a 10.08,10.08 0 0 0 10.04308,9.2182 h 12.25996 a 10.08,10.08 0 0 0 10.0154,-11.21934 l -7.35654,-64.666743 a 10.08,10.08 0 0 0 -10.01539,-8.940629 z" />
  <path
     style="fill:#ffffff;stroke-width:1.44000006"
     inkscape:connector-curvature="0"
     id="path25"
     d="m 588.19924,108.09722 a 5.0401152,5.0401152 0 0 1 -4.9725,-5.86266 l 10.70297,-64.642496 a 5.0406336,5.0406336 0 0 1 4.97251,-4.217356 h 33.45398 a 5.0424336,5.0424336 0 0 1 4.9824,5.803603 l -2.05172,13.388904 a 5.0404608,5.0404608 0 0 1 -4.9824,4.276411 h -16.84406 l -0.29251,1.61437 h 12.96144 a 5.04036,5.04036 0 0 1 4.97952,5.8176 l -1.9533,12.497443 a 5.04,5.04 0 0 1 -4.97952,4.26096 H 609.364 l -0.65952,3.66336 h 15.47157 a 5.040648,5.040648 0 0 1 4.97671,5.833123 l -2.12203,13.319998 a 5.03856,5.03856 0 0 1 -4.97673,4.24688 z" />
  <path
     style="fill:#ffffff;stroke-width:1.44000006"
     inkscape:connector-curvature="0"
     id="path27"
     d="m 632.35611,38.41429 -2.05099,13.38961 h -21.05398 l -2.11929,11.69375 h 18.99809 l -1.95434,12.49632 h -19.02622 l -2.47333,13.743634 h 21.49964 l -2.12135,13.319206 h -33.85518 l 10.70306,-64.642592 h 33.45389 m -8.18042,51.323386 h 0.007 m 8.17321,-61.403386 h -33.45388 a 10.08,10.08 0 0 0 -9.94464,8.433461 l -10.70306,64.642581 a 10.08,10.08 0 0 0 9.94464,11.72655 h 33.85518 a 10.08,10.08 0 0 0 9.95453,-8.49456 l 2.0701,-12.997352 a 10.102723,10.102723 0 0 0 -2.52589,-8.781854 10.050926,10.050926 0 0 0 2.58144,-5.311613 l 1.95437,-12.49632 a 10.077566,10.077566 0 0 0 -0.39243,-4.733698 10.070064,10.070064 0 0 0 4.57251,-6.991387 l 2.05093,-13.38961 a 10.08,10.08 0 0 0 -9.96359,-11.606169 z m 0,20.16 z" />
  <path
     style="fill:#ffffff;stroke-width:1.44000006"
     inkscape:connector-curvature="0"
     id="path29"
     d="m 456.56159,108.07475 a 5.0406768,5.0406768 0 0 1 -4.95774,-5.94844 l 0.2461,-1.34295 -1.67414,4.14144 a 5.0394384,5.0394384 0 0 1 -4.67227,3.15 h -9.54563 a 5.0395104,5.0395104 0 0 1 -5.0203,-4.59703 l -0.51188,-5.803592 -0.8424,6.055322 a 5.0408352,5.0408352 0 0 1 -4.99219,4.3453 h -11.78437 a 5.040144,5.040144 0 0 1 -4.9711,-5.86969 L 418.6062,37.656735 a 5.0394096,5.0394096 0 0 1 4.97109,-4.210315 h 16.52976 a 5.0401872,5.0401872 0 0 1 5.02313,4.63078 l 1.98633,24.39422 10.60101,-26.007192 a 5.0404464,5.0404464 0 0 1 4.66736,-3.137343 c 0.0115,0 16.67882,0.11952 16.67882,0.11952 a 5.0405472,5.0405472 0 0 1 4.93452,5.872493 l -10.81968,64.548292 a 5.039136,5.039136 0 0 1 -4.97039,4.20749 z" />
  <path
     style="fill:#ffffff;stroke-width:1.44000006"
     inkscape:connector-curvature="0"
     id="path31"
     d="m 462.38515,38.367 16.64244,0.119722 -10.8197,64.547998 h -11.64646 l 9.1711,-50.025872 -20.22912,50.025872 h -9.54537 l -4.4085,-50.002731 -6.9584,50.002731 h -11.78421 l 10.77038,-64.547998 h 16.52976 L 443.80849,83.939084 462.38515,38.367 m -4.6e-4,-10.08 a 10.07964,10.07964 0 0 0 -9.33382,6.27506 l -2.62551,6.440889 -0.27154,-3.334377 a 10.08,10.08 0 0 0 -10.04675,-9.26185 h -16.52979 a 10.08,10.08 0 0 0 -9.94255,8.42099 l -10.77038,64.547998 a 10.08,10.08 0 0 0 9.94255,11.73903 h 11.78421 a 10.04976,10.04976 0 0 0 5.68328,-1.75461 10.043366,10.043366 0 0 0 5.68368,1.75461 h 9.54537 a 10.06992,10.06992 0 0 0 5.52898,-1.65168 10.07905,10.07905 0 0 0 5.52907,1.65168 h 11.64646 a 10.08,10.08 0 0 0 9.9413,-8.41365 l 10.8197,-64.548 a 10.08,10.08 0 0 0 -9.86879,-11.74608 l -16.64242,-0.119707 -0.073,-2.74e-4 z" />
  <path
     style="fill:#ffffff;stroke-width:1.44000006"
     inkscape:connector-curvature="0"
     id="path33"
     d="m 562.64627,109.65397 c -9.22078,0 -16.59515,-3.12608 -21.91922,-9.28968 -5.13422,-5.968128 -7.73437,-14.23547 -7.73437,-24.581251 0,-11.870151 3.09093,-22.161096 9.18562,-30.585931 a 30.632242,30.632242 0 0 1 25.93754,-13.424069 29.624458,29.624458 0 0 1 20.25989,7.084656 c 5.50827,4.829069 8.30736,12.235781 8.30736,22.002192 a 5.0285664,5.0285664 0 0 1 -1.71281,3.785616 5.04,5.04 0 0 1 0.64617,3.47063 l -2.05102,11.692973 a 45.553277,45.553277 0 0 1 -7.21968,16.609219 31.712443,31.712443 0 0 1 -13.04227,10.718445 l -0.48444,0.2278 a 24.90768,24.90768 0 0 1 -10.17277,2.2894 z m 5.53993,-54.48096 c -2.35476,0 -5.39649,0.59904 -8.03742,5.267808 a 30.708173,30.708173 0 0 0 -3.75539,15.364685 15.21864,15.21864 0 0 0 2.0257,8.388288 4.50432,4.50432 0 0 0 4.34461,2.06015 7.5850416,7.5850416 0 0 0 5.65945,-1.877342 l 0.0197,-0.01969 h -3.9811 a 5.038776,5.038776 0 0 1 -4.97179,-5.865466 l 2.0032,-12.071246 a 5.0397984,5.0397984 0 0 1 4.9718,-4.214534 h 7.00242 a 5.0626944,5.0626944 0 0 1 -0.18144,-1.345781 c 0,-2.750631 -0.53156,-4.214535 -0.98647,-4.632192 a 6.58872,6.58872 0 0 0 -4.11326,-1.054656 z" />
  <path
     style="fill:#ffffff;stroke-width:1.44000006"
     inkscape:connector-curvature="0"
     id="path35"
     d="m 568.11584,36.813024 a 24.61765,24.61765 0 0 1 16.92606,5.822741 q 6.61579,5.801069 6.60123,18.223589 h -13.31712 q 0,-5.94144 -2.61921,-8.34539 a 10.823112,10.823112 0 0 0 -7.52055,-2.380781 c -5.35104,0 -9.47695,2.616163 -12.42406,7.8264 a 35.942011,35.942011 0 0 0 -4.40848,17.846395 20.018419,20.018419 0 0 0 2.85046,11.149603 9.5581152,9.5581152 0 0 0 8.55956,4.338101 12.396874,12.396874 0 0 0 9.24163,-3.371501 20.09376,20.09376 0 0 0 4.85818,-8.605901 h -12.40192 l 2.00365,-12.069907 h 24.18714 l -2.05086,11.692699 a 40.78836,40.78836 0 0 1 -6.32065,14.500023 27.072518,27.072518 0 0 1 -11.64748,9.385405 20.007835,20.007835 0 0 1 -7.98732,1.78936 q -11.5992,0 -18.10492,-7.543733 c -4.33918,-5.045199 -6.5088,-12.11616 -6.5088,-21.28729 q 0,-16.267219 8.22973,-27.631152 a 25.715045,25.715045 0 0 1 21.85373,-11.338661 m 22.53656,30.433349 h 0.007 M 568.11584,26.733024 A 35.873669,35.873669 0 0 0 538.1048,42.230175 c -6.73975,9.315489 -10.15236,20.599877 -10.15236,33.552633 0,11.584268 3.01003,20.95776 8.94655,27.860112 6.2496,7.23521 15.14789,11.05091 25.7472,11.05091 a 29.876702,29.876702 0 0 0 12.3648,-2.78956 l 0.42532,-0.20001 a 36.896962,36.896962 0 0 0 14.96117,-12.287872 50.35271,50.35271 0 0 0 8.08398,-18.479013 q 0.0259,-0.128016 0.0485,-0.256867 l 1.99387,-11.367821 a 10.183277,10.183277 0 0 0 0.0636,-3.800693 10.03729,10.03729 0 0 0 1.13567,-4.65264 c 0,-11.282314 -3.37646,-19.963541 -10.03558,-25.802611 -6.25248,-5.516381 -14.19095,-8.323719 -23.57172,-8.323719 z" />
  <path
     style="fill:#ffffff;stroke-width:1.44000006"
     inkscape:connector-curvature="0"
     id="path37"
     d="m 703.57291,108.09722 a 5.040864,5.040864 0 0 1 -4.69827,-3.21469 l -6.93844,-17.860781 -2.84344,16.873591 a 5.0393376,5.0393376 0 0 1 -4.96969,4.20192 h -12.375 a 5.04108,5.04108 0 0 1 -4.9725,-5.86266 l 10.70297,-64.642492 a 5.041728,5.041728 0 0 1 4.97251,-4.217357 h 21.52124 c 6.37171,0 11.47641,1.856261 15.16922,5.515315 3.72376,3.656246 5.61937,9.307973 5.61937,16.780781 a 25.42667,25.42667 0 0 1 -4.34671,14.661561 31.650854,31.650854 0 0 1 -7.06078,7.478439 l 9.10827,23.419683 a 5.0402304,5.0402304 0 0 1 -4.69687,6.86673 z m -7.09312,-46.314855 a 7.66044,7.66044 0 0 0 4.69969,-1.267027 c 0.3024,-0.227808 0.98579,-0.742493 0.98579,-2.792808 a 7.5635712,7.5635712 0 0 0 -0.12514,-1.524384 8.3679264,8.3679264 0 0 0 -2.30905,-0.248904 h -2.56642 l -1.0378,5.833123 z" />
  <path
     style="fill:#ffffff;stroke-width:1.44000006"
     inkscape:connector-curvature="0"
     id="path39"
     d="m 682.45122,38.414823 v 4.17e-4 h 21.52169 c 4.99597,0 8.88749,1.344831 11.62224,4.054594 2.75904,2.710627 4.12595,7.096118 4.12595,13.201416 a 20.380867,20.380867 0 0 1 -3.4651,11.81147 25.303896,25.303896 0 0 1 -9.09967,8.298087 l 10.60848,27.276083 h -14.1912 l -9.57146,-24.635757 h -5.72818 l -4.15098,24.635757 h -12.37467 l 10.70297,-64.642067 m 7.66135,28.407038 h 6.36592 a 12.566477,12.566477 0 0 0 7.70864,-2.262038 8.0022816,8.0022816 0 0 0 3.01755,-6.837639 c 0,-2.734891 -0.61357,-4.549406 -1.86284,-5.468731 a 9.598104,9.598104 0 0 0 -5.6105,-1.34375 h -6.78937 l -2.8294,15.911179 v 9.79e-4 M 703.97291,28.33524 h -21.52169 a 10.07964,10.07964 0 0 0 -9.94464,8.433029 l -10.7029,64.642061 a 10.08,10.08 0 0 0 9.94464,11.72656 h 12.37474 a 10.080864,10.080864 0 0 0 9.70105,-7.34022 l 0.35381,0.91063 a 10.08,10.08 0 0 0 9.39577,6.4296 h 14.1912 a 10.08,10.08 0 0 0 9.39446,-13.733812 l -7.80987,-20.080356 a 37.3338,37.3338 0 0 0 5.25607,-6.192591 30.3192,30.3192 0 0 0 5.19562,-17.458877 c 0,-8.875396 -2.4028,-15.736219 -7.14169,-20.39184 -4.63997,-4.597617 -10.93734,-6.944112 -18.68655,-6.944112 z" />
  <path
     style="fill:#ffffff;stroke-width:1.44000006"
     inkscape:connector-curvature="0"
     id="path43"
     d="m 682.45131,38.41429 h 0.007 m -0.007,0 -9e-5,5.33e-4 v -5.33e-4 h 9e-5 m 0.007,-10.08 h -0.007 a 10.08,10.08 0 1 0 0.007,0 z" />
  <path
     style="fill:#ffffff;stroke-width:1.44000006"
     inkscape:connector-curvature="0"
     id="path45"
     d="m 472.42761,108.07475 a 5.0404032,5.0404032 0 0 1 -4.97251,-5.86405 l 10.70297,-64.620004 a 5.0406768,5.0406768 0 0 1 4.9725,-4.215945 h 33.45055 a 5.0404032,5.0404032 0 0 1 4.9824,5.802192 l -2.04891,13.390315 a 5.0404464,5.0404464 0 0 1 -4.9824,4.277808 h -16.84694 l -0.289,1.589069 H 510.383 a 5.0393088,5.0393088 0 0 1 4.97808,5.828904 l -1.98352,12.519849 a 5.0402304,5.0402304 0 0 1 -4.97808,4.251082 h -14.8022 l -0.6532,3.66336 h 15.45539 a 5.0406624,5.0406624 0 0 1 4.97742,5.833123 l -2.11781,13.297507 a 5.0392512,5.0392512 0 0 1 -4.97743,4.24687 z" />
  <path
     style="fill:#ffffff;stroke-width:1.44000006"
     inkscape:connector-curvature="0"
     id="path47"
     d="m 516.58122,38.414276 h 0.007 m -0.007,0 -2.04889,13.39056 h -21.053 l -2.12227,11.669587 h 19.0262 l -1.98343,12.519576 h -19.02319 l -2.45118,13.743648 h 21.4744 l -2.11834,13.297053 h -33.85419 l 10.70298,-64.620468 h 33.45091 m 0.007,-10.08 h -33.45791 a 10.08,10.08 0 0 0 -9.94451,8.432914 l -10.70296,64.620444 a 10.08,10.08 0 0 0 9.94449,11.72711 h 33.85416 a 10.08,10.08 0 0 0 9.95445,-8.49418 l 2.11834,-13.297044 a 10.079827,10.079827 0 0 0 -2.28664,-8.1288 q -0.14328,-0.167904 -0.29308,-0.328695 a 10.051502,10.051502 0 0 0 2.5811,-5.29475 l 1.98343,-12.519547 a 10.077581,10.077581 0 0 0 -0.38726,-4.747248 10.07136,10.07136 0 0 0 4.54454,-6.975 l 1.99997,-13.07088 a 10.088338,10.088338 0 0 0 -9.90792,-11.924367 z m -0.007,20.16 z" />
  <path
     style="fill:#ffffff;stroke-width:1.44000006"
     inkscape:connector-curvature="0"
     id="path49"
     d="m 344.39417,109.65258 c -9.22078,0 -16.59517,-3.12469 -21.91922,-9.28829 -5.13282,-5.969539 -7.73227,-14.238278 -7.73227,-24.584059 0,-11.872973 3.09093,-22.163919 9.18774,-30.585946 a 30.621226,30.621226 0 0 1 25.93406,-13.422657 29.632536,29.632536 0 0 1 20.25984,7.08192 c 5.50898,4.833288 8.30812,12.23856 8.30812,22.002192 a 5.0256,5.0256 0 0 1 -1.71632,3.788438 5.0395824,5.0395824 0 0 1 0.64547,3.469219 l -2.05102,11.691562 -0.11535,-0.01968 c -0.53578,5.121562 -4.67931,13.329835 -7.10226,16.63452 A 31.684536,31.684536 0 0 1 355.0542,107.13543 l -0.48585,0.22922 a 24.922872,24.922872 0 0 1 -10.17422,2.28793 z m 5.5371,-54.482407 c -2.35476,0 -5.39648,0.59904 -8.03671,5.266397 a 30.728074,30.728074 0 0 0 -3.75751,15.364685 15.192619,15.192619 0 0 0 2.02852,8.38548 4.4951328,4.4951328 0 0 0 4.34391,2.064369 7.5826368,7.5826368 0 0 0 5.65804,-1.877342 l 0.0205,-0.0211 h -3.9832 a 5.0397984,5.0397984 0 0 1 -4.9718,-5.866877 l 2.00813,-12.069835 a 5.0396544,5.0396544 0 0 1 4.97179,-4.213123 h 7.00032 a 5.03712,5.03712 0 0 1 -0.18211,-1.347192 c 0,-2.750631 -0.53156,-4.213123 -0.98648,-4.630781 a 6.5863008,6.5863008 0 0 0 -4.11329,-1.054627 z" />
  <path
     style="fill:#ffffff;stroke-width:1.44000006"
     inkscape:connector-curvature="0"
     id="path51"
     d="m 349.86423,36.810994 a 24.613661,24.613661 0 0 1 16.92594,5.822755 q 6.61289,5.799571 6.6024,18.222538 h -13.32124 q 0,-5.941311 -2.61913,-8.345319 a 10.818893,10.818893 0 0 0 -7.52063,-2.38078 c -5.35095,0 -9.47691,2.616148 -12.42396,7.8264 a 35.962171,35.962171 0 0 0 -4.41063,17.845387 20.00304,20.00304 0 0 0 2.85461,11.150582 9.552672,9.552672 0 0 0 8.55756,4.338216 12.392942,12.392942 0 0 0 9.24152,-3.372566 20.06352,20.06352 0 0 0 4.85614,-8.605901 h -12.4018 l 2.00759,-12.069907 h 24.18513 l -2.05086,11.692699 a 40.602931,40.602931 0 0 1 -6.31764,14.504069 v 0 a 27.048096,27.048096 0 0 1 -11.64751,9.384413 19.9908,19.9908 0 0 1 -7.98725,1.78937 q -11.60077,0 -18.10493,-7.54373 c -4.33917,-5.045271 -6.50673,-12.117212 -6.50673,-21.288341 q 0,-16.267219 8.22973,-27.631152 a 25.709054,25.709054 0 0 1 21.85164,-11.338661 m 14.16505,56.628101 h 0.007 M 349.8642,26.731066 A 35.86644,35.86644 0 0 0 319.85416,42.2297 c -6.73837,9.310118 -10.15135,20.595009 -10.15135,33.551179 0,11.586413 3.00934,20.960251 8.94443,27.861121 6.24816,7.23498 15.14682,11.05095 25.7472,11.05095 a 29.86033,29.86033 0 0 0 12.36829,-2.79121 l 0.41727,-0.196 a 36.818035,36.818035 0 0 0 14.82306,-12.096552 q 0.16848,-0.21723 0.32508,-0.44352 a 47.267856,47.267856 0 0 0 6.17237,-12.101194 34.881826,34.881826 0 0 0 1.83374,-6.724584 l 1.99182,-11.356085 a 10.075968,10.075968 0 0 0 0.004,-3.461429 10.036555,10.036555 0 0 0 1.14266,-4.666032 c 0,-11.279836 -3.3766,-19.96056 -10.03601,-25.80094 -6.25304,-5.517 -14.19147,-8.324352 -23.57231,-8.324352 z" />
  <path
     style="fill:#ffffff;stroke-width:1.44000006"
     inkscape:connector-curvature="0"
     id="path53"
     d="m 398.94471,108.07475 a 5.0397552,5.0397552 0 0 1 -5.02171,-4.60827 l -0.68766,-8.005784 h -8.45578 l -3.42914,9.315004 a 5.0393952,5.0393952 0 0 1 -4.72993,3.29904 h -12.68297 a 5.0402016,5.0402016 0 0 1 -4.67578,-6.92156 l 26.02617,-64.667813 a 5.0413104,5.0413104 0 0 1 4.67579,-3.158439 l 13.90781,0.0014 a 5.039496,5.039496 0 0 1 5.00688,4.470466 l 7.3561,64.666416 a 5.0397696,5.0397696 0 0 1 -5.00766,5.60952 z" />
  <path
     style="fill:#ffffff;stroke-width:1.44000006"
     inkscape:connector-curvature="0"
     id="path55"
     d="m 389.96352,38.367 v 0.0011 h 13.90752 l 7.35565,64.66667 h -12.28218 l -1.08432,-12.614097 h -16.59607 l -4.64387,12.614097 h -12.68254 l 26.02581,-64.667736 m -4.66807,41.021698 h 11.62224 l -2.19067,-25.720056 -9.43157,25.720056 M 403.87107,28.2881 h -13.90752 a 10.079035,10.079035 0 0 0 -9.35111,6.315537 l -26.02581,64.667721 a 10.08,10.08 0 0 0 9.3511,13.843412 h 12.68259 a 10.08,10.08 0 0 0 9.45936,-6.59756 l 2.21498,-6.01653 h 0.315 l 0.29202,3.39737 a 10.08,10.08 0 0 0 10.04296,9.21672 h 12.28218 a 10.08,10.08 0 0 0 10.01543,-11.21924 L 413.8866,37.228858 A 10.08,10.08 0 0 0 403.87117,28.2881 Z" />
  <path
     style="fill:#ffffff;stroke-width:0.72000003"
     inkscape:connector-curvature="0"
     id="path57"
     d="m 260.14459,42.341876 a 6.167167,6.167167 0 0 1 -3.00058,-0.741096 6.496027,6.496027 0 0 1 -3.0941,-4.19904 c -1.27301,-4.689144 0.69644,-12.226644 5.14054,-19.671329 5.15109,-8.6399992 12.04805,-14.4449992 17.16152,-14.4449992 a 6.173237,6.173237 0 0 1 3.00165,0.739685 6.4974455,6.4974455 0 0 1 3.0934,4.20539 c 1.26984,4.6940682 -0.70243,12.2308622 -5.14759,19.6685202 -5.15074,8.637185 -12.04523,14.44289 -17.15449,14.44289 z" />
  <path
     style="fill:#ffffff;stroke-width:0.72000003"
     inkscape:connector-curvature="0"
     id="path59"
     d="m 276.3522,5.8049938 a 3.6792,3.6792 0 0 1 1.79093,0.429732 c 3.80405,2.096143 2.46327,11.2190392 -3.00691,20.3710242 -4.70116,7.88405 -10.92402,13.215722 -14.99116,13.215722 a 3.6660816,3.6660816 0 0 1 -1.78856,-0.430149 c -3.81312,-2.094646 -2.46429,-11.218493 2.99786,-20.36952 4.70065,-7.884195 10.9248,-13.2168092 14.99784,-13.2168092 m 0,-5.03999999 c -7.36678,0 -15.01539,8.44446949 -19.32682,15.67583919 -4.85352,8.131407 -6.87543,16.214897 -5.40728,21.62119 a 8.9543665,8.9543665 0 0 0 4.3118,5.746694 8.651124,8.651124 0 0 0 4.21517,1.052777 c 7.36149,0 15.0084,-8.44375 19.32,-15.674486 4.85363,-8.120456 6.87873,-16.202434 5.41445,-21.6147952 a 8.9573975,8.9573975 0 0 0 -4.30401,-5.751684 8.676605,8.676605 0 0 0 -4.22331,-1.05554199 z" />
  <path
     style="fill:#ffffff;stroke-width:0.72000003"
     inkscape:connector-curvature="0"
     id="path61"
     d="m 284.57151,42.341876 a 6.168535,6.168535 0 0 1 -3.00096,-0.741096 6.4944,6.4944 0 0 1 -3.09341,-4.19904 c -1.273,-4.688439 0.69681,-12.226644 5.14091,-19.671329 5.15144,-8.6399992 12.04804,-14.4449992 17.16081,-14.4449992 a 6.17184,6.17184 0 0 1 3.0013,0.739685 6.4974455,6.4974455 0 0 1 3.0934,4.20539 c 1.26984,4.6940682 -0.70243,12.2308622 -5.14759,19.6685202 -5.14968,8.637185 -12.04416,14.44289 -17.15413,14.44289 z" />
  <path
     style="fill:#ffffff;stroke-width:0.72000003"
     inkscape:connector-curvature="0"
     id="path63"
     d="m 300.77915,5.8049938 a 3.6777096,3.6777096 0 0 1 1.79056,0.429732 c 3.80402,2.096143 2.46326,11.2190392 -3.00696,20.3710242 -4.7003,7.88405 -10.92339,13.215722 -14.99096,13.215722 a 3.66696,3.66696 0 0 1 -1.78877,-0.430149 c -3.81208,-2.094646 -2.46328,-11.218493 2.99891,-20.36952 4.70104,-7.884195 10.92484,-13.2168092 14.99722,-13.2168092 m 0,-5.03999999 c -7.36574,0 -15.01435,8.44438249 -19.32609,15.67567419 -4.85361,8.131449 -6.87569,16.214961 -5.40785,21.621355 a 8.95392,8.95392 0 0 0 4.31072,5.746406 8.6527945,8.6527945 0 0 0 4.21588,1.053051 c 7.36258,0 15.00907,-8.443937 19.31999,-15.674847 4.85345,-8.120037 6.87856,-16.202023 5.4143,-21.6143992 a 8.957347,8.957347 0 0 0 -4.30402,-5.751684 8.674229,8.674229 0 0 0 -4.22294,-1.05556299 z" />
  <path
     style="fill:#ffffff;stroke-width:0.72000003"
     inkscape:connector-curvature="0"
     id="path65"
     d="m 308.99982,42.34117 a 6.163459,6.163459 0 0 1 -3.00163,-0.741096 6.491988,6.491988 0 0 1 -3.0934,-4.19765 c -1.27336,-4.688439 0.69645,-12.226644 5.1409,-19.672035 5.14968,-8.6399992 12.04663,-14.4457042 17.1612,-14.4457042 a 6.1788385,6.1788385 0 0 1 3.00096,0.738986 6.501096,6.501096 0 0 1 3.09339,4.206096 c 1.26985,4.6947662 -0.70242,12.2308552 -5.14757,19.6685132 -5.15039,8.637184 -12.04488,14.44289 -17.1538,14.44289 z" />
  <path
     style="fill:#ffffff;stroke-width:0.72000003"
     inkscape:connector-curvature="0"
     id="path67"
     d="m 325.2069,5.8046268 a 3.6773856,3.6773856 0 0 1 1.79033,0.429566 c 3.80405,2.096144 2.46327,11.2190392 -3.00691,20.3710752 -4.70119,7.884057 -10.92328,13.215758 -14.99085,13.215758 a 3.6675576,3.6675576 0 0 1 -1.78887,-0.430142 c -3.81263,-2.094178 -2.46328,-11.218018 2.99888,-20.369081 4.69974,-7.884605 10.92479,-13.2171762 14.99742,-13.2171762 m 0,-5.03999999 c -7.36802,0 -15.0161,8.44491549 -19.32668,15.67664519 -4.85363,8.131529 -6.8757,16.215207 -5.40749,21.62124 a 8.9529695,8.9529695 0 0 0 4.31147,5.745816 8.653068,8.653068 0 0 0 4.21527,1.05264 c 7.36119,0 15.00806,-8.443749 19.31968,-15.674464 4.85364,-8.120528 6.87874,-16.202542 5.41445,-21.6148822 a 8.9573975,8.9573975 0 0 0 -4.30401,-5.751669 8.674819,8.674819 0 0 0 -4.22269,-1.05532599 z" />
  <path
     inkscape:connector-curvature="0"
     id="path69"
     d="m 364.02925,93.439138 a 27.047102,27.047102 0 0 1 -11.64747,9.384372 19.990656,19.990656 0 0 1 -7.98728,1.78937 q -11.60073,0 -18.1049,-7.543718 c -4.33914,-5.045227 -6.50673,-12.117197 -6.50673,-21.288341 q 0,-16.267262 8.2297,-27.631109 a 25.709155,25.709155 0 0 1 21.85161,-11.338704 24.613805,24.613805 0 0 1 16.92605,5.822741 q 6.61283,5.7996 6.60227,18.222595 h -13.32121 q 0,-5.94144 -2.61917,-8.345361 a 10.818547,10.818547 0 0 0 -7.52057,-2.380795 c -5.35104,0 -9.47693,2.616163 -12.42399,7.8264 a 35.96279,35.96279 0 0 0 -4.41056,17.845401 20.003184,20.003184 0 0 0 2.85455,11.150611 9.5525568,9.5525568 0 0 0 8.55759,4.338144 12.392986,12.392986 0 0 0 9.24153,-3.372552 20.06316,20.06316 0 0 0 4.85613,-8.605857 h -12.40184 l 2.00761,-12.069936 h 24.18515 l -2.05089,11.6928 a 40.602067,40.602067 0 0 1 -6.31761,14.50404 z m 114.9984,-54.952416 -10.8197,64.547998 h -11.64648 l 9.17109,-50.025857 -20.22922,50.025877 h -9.54532 l -4.40854,-50.002736 -6.95833,50.002736 h -11.78428 l 10.77042,-64.548004 h 16.52976 l 3.70145,45.452376 18.57665,-45.572054 m 28.97191,25.107437 h 19.0263 l -1.98349,12.519533 h -19.02323 l -2.4512,13.743633 h 21.47442 l -2.11824,13.297049 h -33.85429 l 10.70302,-64.620391 h 33.45077 l -2.04886,13.39056 H 493.47931 M 389.96347,38.367015 363.93768,103.03471 h 12.68248 l 4.64391,-12.6141 h 16.59625 l 1.08432,12.6141 h 12.28216 l -7.35572,-64.666615 h -13.90752 z m -4.66803,41.021683 9.43164,-25.720027 2.19069,25.720027 z M 582.2808,93.439124 a 27.072,27.072 0 0 1 -11.6475,9.385376 20.007662,20.007662 0 0 1 -7.98723,1.78936 q -11.5992,0 -18.1049,-7.543719 c -4.33916,-5.045241 -6.5087,-12.11616 -6.5087,-21.287347 q 0,-16.267262 8.22967,-27.631109 a 25.715088,25.715088 0 0 1 21.85361,-11.338689 24.617477,24.617477 0 0 1 16.92608,5.82274 q 6.61582,5.801112 6.60123,18.223589 h -13.31712 q 0,-5.94144 -2.61916,-8.345361 a 10.823443,10.823443 0 0 0 -7.5206,-2.380796 c -5.35104,0 -9.47691,2.616164 -12.424,7.8264 a 35.941781,35.941781 0 0 0 -4.40855,17.846396 20.018707,20.018707 0 0 0 2.85048,11.149603 9.5582016,9.5582016 0 0 0 8.55962,4.338144 12.396614,12.396614 0 0 0 9.24158,-3.37153 20.092781,20.092781 0 0 0 4.85815,-8.605872 h -12.40185 l 2.0036,-12.069936 h 24.18716 l -2.05088,11.6928 a 40.787467,40.787467 0 0 1 -6.32065,14.499979 z m 24.85102,-29.941503 h 18.99808 l -1.95431,12.496421 H 605.1494 l -2.47332,13.743634 h 21.49959 l -2.12129,13.319184 h -33.85519 l 10.70303,-64.64257 h 33.45385 l -2.05088,13.389581 h -21.05405 m 39.93439,-13.411714 -26.02578,64.666703 h 12.70865 l 4.61877,-12.613093 h 16.62129 l 1.08227,12.613093 h 12.26003 l -7.35661,-64.666717 z m -4.644,40.995547 9.40859,-25.721049 2.21596,25.721064 h -11.6244 z m 45.57105,-12.56688 2.8294,-15.911193 h 6.78931 a 9.5980464,9.5980464 0 0 1 5.61053,1.343793 c 1.24926,0.919325 1.8628,2.73384 1.8628,5.468688 a 8.0022096,8.0022096 0 0 1 -3.01742,6.837696 12.566765,12.566765 0 0 1 -7.70868,2.262111 h -6.36588 z M 682.45126,38.414319 671.74832,103.05687 H 684.123 l 4.15103,-24.635751 h 5.72818 l 9.57146,24.635751 h 14.1912 L 707.15639,75.780821 a 25.304645,25.304645 0 0 0 9.09971,-8.298086 20.3814,20.3814 0 0 0 3.46506,-11.811427 c 0,-6.105384 -1.36691,-10.490789 -4.12594,-13.201503 -2.73483,-2.709705 -6.62639,-4.054493 -11.62234,-4.054493 h -21.5217 v -10e-4 z"
     style="stroke-width:1.44000006" />
  <path
     style="fill:#d61808;stroke-width:0.72000003"
     inkscape:connector-curvature="0"
     id="path71"
     d="m 261.35437,19.021817 c 5.46014,-9.1580607 12.9767,-14.8741842 16.78878,-12.7870912 3.80405,2.096143 2.46328,11.2190392 -3.00692,20.3710382 -5.46114,9.158566 -12.97667,14.873681 -16.77971,12.78558 -3.81312,-2.094638 -2.46429,-11.218478 2.99785,-20.369527 z" />
  <path
     style="fill:#008400;stroke-width:0.72000003"
     inkscape:connector-curvature="0"
     id="path73"
     d="m 285.78192,19.021817 c 5.46064,-9.1580607 12.97668,-14.8741842 16.78777,-12.7870912 3.80404,2.096143 2.46327,11.2190392 -3.00693,20.3710382 -5.46013,9.158566 -12.97618,14.873681 -16.77972,12.78558 -3.81209,-2.094638 -2.46327,-11.218478 2.99888,-20.369527 z" />
  <path
     style="fill:#0000ff;stroke-width:0.72000003"
     inkscape:connector-curvature="0"
     id="path75"
     d="m 310.20948,19.021817 c 5.45911,-9.1585507 12.97667,-14.8741842 16.78775,-12.7875952 3.80404,2.096151 2.46327,11.2190392 -3.00693,20.3710382 -5.46113,9.158566 -12.97568,14.873681 -16.77972,12.78558 -3.81259,-2.094134 -2.46327,-11.217974 2.9989,-20.369023 z" />
</svg>
