<?xml version="1.0" encoding="UTF-8" standalone="no"?>
<svg
   xmlns:dc="http://purl.org/dc/elements/1.1/"
   xmlns:cc="http://creativecommons.org/ns#"
   xmlns:rdf="http://www.w3.org/1999/02/22-rdf-syntax-ns#"
   xmlns:svg="http://www.w3.org/2000/svg"
   xmlns="http://www.w3.org/2000/svg"
   xmlns:sodipodi="http://sodipodi.sourceforge.net/DTD/sodipodi-0.dtd"
   xmlns:inkscape="http://www.inkscape.org/namespaces/inkscape"
   viewBox="0 0 1000 114"
   version="1.1"
   id="svg184"
   sodipodi:docname="logo.svg"
   inkscape:version="0.92.4 (5da689c313, 2019-01-14)">
  <metadata
     id="metadata190">
    <rdf:RDF>
      <cc:Work
         rdf:about="">
        <dc:format>image/svg+xml</dc:format>
        <dc:type
           rdf:resource="http://purl.org/dc/dcmitype/StillImage" />
      </cc:Work>
    </rdf:RDF>
  </metadata>
  <defs
     id="defs188" />
  <sodipodi:namedview
     pagecolor="#ffffff"
     bordercolor="#666666"
     borderopacity="1"
     objecttolerance="10"
     gridtolerance="10"
     guidetolerance="10"
     inkscape:pageopacity="0"
     inkscape:pageshadow="2"
     inkscape:window-width="1920"
     inkscape:window-height="1017"
     id="namedview186"
     showgrid="false"
     inkscape:zoom="1.6065466"
     inkscape:cx="500"
     inkscape:cy="57"
     inkscape:window-x="-8"
     inkscape:window-y="-8"
     inkscape:window-maximized="1"
     inkscape:current-layer="svg184" />
  <title
     id="title2">logo</title>
  <g
     id="Calque_1"
     data-name="Calque 1"
     transform="matrix(1.728,0,0,1.728,-367.14222,-3.6329205)">
    <rect
       x="396.0842"
       y="20.109221"
       width="18.73472"
       height="17.333401"
       id="rect4"
       style="fill:#ffffff;stroke:#ffffff;stroke-width:7;stroke-linecap:round;stroke-linejoin:round" />
    <rect
       x="444.37442"
       y="13.60222"
       width="158.3049"
       height="33.558102"
       id="rect6"
       style="fill:#ffffff;stroke:#ffffff;stroke-width:7;stroke-linecap:round;stroke-linejoin:round" />
  </g>
  <path
     style="fill:#fe0000;fill-rule:evenodd;stroke-width:1.72800004"
     inkscape:connector-curvature="0"
     id="path9"
     d="m 362.9708,110.99607 q -7.12049,0 -14.23904,-0.0659 A 54.25507,54.25507 0 0 1 332.81515,5.1223358 55.826669,55.826669 0 0 1 350.69423,2.4231998 c 25.8018,0.00852 111.80695,0.00924 111.80695,0.00924 l 110.75907,0.00516 q 34.95917,0 69.92334,-0.022776 a 54.15711,54.15711 0 0 1 28.39882,7.4604672 c 15.05762,9.070272 23.89847,22.280832 26.27274,39.266381 a 54.321616,54.321616 0 0 1 -36.90391,59.163778 55.711636,55.711636 0 0 1 -17.62422,2.66543 c -66.0471,-0.007 -259.71976,-0.007 -259.71976,-0.007 -3.43405,0 -17.19221,0.0319 -20.63646,0.0319 z M 349.93321,25.921617 a 30.76329,30.76329 0 0 0 -30.77671,27.25056 30.116759,30.116759 0 0 0 6.30961,22.419244 30.42303,30.42303 0 0 0 25.25852,11.903674 l 292.34578,-0.0024 a 37.622742,37.622742 0 0 0 6.60995,-0.533261 30.440621,30.440621 0 0 0 20.16057,-13.287456 30.020042,30.020042 0 0 0 4.45496,-23.395565 30.577997,30.577997 0 0 0 -30.32933,-24.352185 l -142.66968,-0.0067 z" />
  <path
     style="fill:#ffffff;stroke-width:1.72800004"
     inkscape:connector-curvature="0"
     id="path11"
     d="m 643.23422,8.4630794 a 47.850809,47.850809 0 0 1 25.22794,6.5930456 c 13.22409,7.964525 21.26149,19.59984 23.40386,34.923053 a 47.955197,47.955197 0 0 1 -32.80101,52.579062 50.028935,50.028935 0 0 1 -15.73989,2.36494 h -0.008 q -84.12474,-0.009 -168.24554,-0.007 -28.09644,0 -56.17969,1.4e-4 -17.63468,0 -35.28404,-1.4e-4 c -6.8707,0 -13.74002,0.0312 -20.61072,0.0312 q -7.10001,0 -14.20053,-0.0651 A 48.207122,48.207122 0 0 1 334.72544,10.860911 50.117184,50.117184 0 0 1 350.69202,8.4712598 h 0.0232 q 39.15683,0.012384 78.31244,0.0102 33.96168,0 67.92353,-0.00156 37.85383,0 75.70332,0.00528 35.26519,0 70.53402,-0.022152 h 0.0466 M 350.72459,93.542836 q 29.24812,-0.0014 58.49296,-0.0013 43.86831,0 87.74063,6.91e-4 73.05622,0 146.11254,-0.0019 a 43.782233,43.782233 0 0 0 7.66714,-0.626227 36.811169,36.811169 0 0 0 -6.77117,-73.037722 q -70.64582,-0.0077 -141.28489,-0.007 -76.37095,0 -152.74829,0.0043 a 36.803273,36.803273 0 0 0 -29.19626,59.48913 36.476179,36.476179 0 0 0 29.98736,14.179968 M 643.23446,-3.6329435 h -0.0467 q -35.27349,0.026496 -70.53403,0.022147 l -37.85028,-0.00259 -37.85302,-0.00274 -33.96211,8.64e-4 -33.96145,6.912e-4 q -39.15424,0 -78.30864,-0.010224 A 61.817248,61.817248 0 0 0 330.90552,-0.61634513 60.302845,60.302845 0 0 0 348.66693,116.97786 c 4.22963,0.0451 8.78274,0.066 14.32911,0.066 q 5.16672,0 10.33309,-0.0157 5.13864,-0.012 10.27763,-0.0157 l 35.28403,1.4e-4 h 56.17969 q 84.12233,0 168.24429,0.007 A 61.64405,61.64405 0 0 0 662.83878,114.05065 60.049952,60.049952 0 0 0 703.8456,48.305086 59.128064,59.128064 0 0 0 674.70289,4.6943402 60.058558,60.058558 0 0 0 643.23446,-3.6328917 Z M 350.72208,81.446865 a 24.406393,24.406393 0 0 1 -20.52761,-9.625098 24.698304,24.698304 0 0 1 4.04905,-34.408282 24.471763,24.471763 0 0 1 15.68973,-5.443718 l 152.74828,-0.0043 q 70.6452,0 141.28352,0.007 a 24.634471,24.634471 0 0 1 24.42961,19.62849 24.028774,24.028774 0 0 1 -3.58889,18.719424 24.436927,24.436927 0 0 1 -16.17649,10.683049 31.70016,31.70016 0 0 1 -5.55881,0.440985 l -146.11254,0.0019 -43.87034,-3.45e-4 -43.8703,-3.46e-4 -58.49366,0.0013 z" />
  <path
     style="fill:#fe0000;fill-rule:evenodd;stroke-width:1.72800004"
     inkscape:connector-curvature="0"
     id="path89"
     d="m 351.77094,85.160359 c -1.64886,-0.0354 -3.29409,-0.04888 -4.93931,-0.04888 -1.85795,0 -3.71587,0.01777 -5.57384,0.04061 h -0.006 a 6.8530579,6.8530579 0 0 1 -7.28992,-7.158412 q 0.0481,-21.185453 -10e-4,-42.366448 a 6.8193965,6.8193965 0 0 1 7.14667,-7.143172 c 2.17348,0.02022 4.22548,0.03214 6.27903,0.03214 q 2.93389,0 5.86587,-0.03542 h 0.001 a 7.841664,7.841664 0 0 1 6.89022,3.778272 q 3.96629,6.279898 7.94293,12.553229 -0.007,-4.508006 -0.0252,-9.016185 a 7.1744486,7.1744486 0 0 1 2.01312,-5.298048 7.0694381,7.0694381 0 0 1 5.20941,-2.020724 c 0.0304,0 0.14515,8.64e-4 0.17539,0.0017 q 2.65524,0.04303 5.30046,0.04044 2.86805,0 5.7392,-0.03542 h 0.001 a 6.7642214,6.7642214 0 0 1 7.11609,7.05456 q -0.0379,21.241181 10e-4,42.487028 a 6.7879296,6.7879296 0 0 1 -7.06717,7.128 c -1.97943,-0.02267 -3.83237,-0.03456 -5.68685,-0.03456 q -2.79963,0 -5.6008,0.03802 h -0.002 a 7.6597747,7.6597747 0 0 1 -6.78205,-3.714164 q -4.51061,-7.012915 -9.04159,-14.026521 0.007,5.092761 0.0388,10.188288 a 7.4239027,7.4239027 0 0 1 -2.05529,5.496941 7.2690739,7.2690739 0 0 1 -5.3663,2.06216 c -0.0422,0 -0.24123,-0.0026 -0.2834,-0.0035 z" />
  <path
     style="fill:#ffffff;stroke-width:1.72800004"
     inkscape:connector-curvature="0"
     id="path91"
     d="m 375.28367,34.525501 0.0833,6.92e-4 q 2.69905,0.0438 5.39757,0.0413 2.90071,0 5.80263,-0.03508 l 0.0391,-1.73e-4 c 0.7484,0 0.96526,0.208224 0.96284,0.993773 q -0.037,21.254659 10e-4,42.511737 c 10e-4,0.828403 -0.21614,1.06825 -1.01658,1.06825 l -0.0533,-3.46e-4 q -2.81964,-0.03401 -5.63921,-0.03491 -2.84108,0 -5.682,0.03923 l -0.0422,3.46e-4 a 1.651968,1.651968 0 0 1 -1.56456,-0.927072 Q 363.97452,63.264741 354.33721,48.3718 a 3.8078381,3.8078381 0 0 0 -0.94522,-1.087949 v 1.216166 c 0,9.714471 -0.0286,19.42946 0.0358,29.14393 0.007,1.21513 -0.33403,1.472083 -1.37532,1.472083 -0.0499,0 -0.10164,-5.18e-4 -0.15482,-0.0017 -1.68844,-0.03649 -3.377,-0.05046 -5.06581,-0.05046 -1.88369,0 -3.76756,0.01742 -5.65073,0.0413 l -0.0707,5.19e-4 c -0.80093,0 -1.1016,-0.174183 -1.10057,-1.101255 q 0.0502,-21.194784 -10e-4,-42.39216 c -0.002,-0.941414 0.30862,-1.080173 1.09399,-1.080173 l 0.0647,3.46e-4 q 3.09096,0.03032 6.18227,0.03211 2.99039,0 5.98061,-0.03695 l 0.0442,-3.46e-4 a 1.7398022,1.7398022 0 0 1 1.65745,0.963498 q 9.40715,14.894462 18.85628,29.764662 c 0.0814,-0.01176 0.16538,-0.02232 0.24676,-0.03456 v -1.271116 c 0,-9.393581 0.0173,-18.787853 -0.0247,-28.180778 -0.006,-0.984752 0.25126,-1.243434 1.17296,-1.243434 m 3.5e-4,-12.096 h -3.5e-4 a 13.034304,13.034304 0 0 0 -9.49777,3.805748 12.7872,12.7872 0 0 0 -1.35734,1.609459 13.765024,13.765024 0 0 0 -11.05363,-5.413479 c -0.0582,0 -0.16071,6.92e-4 -0.21916,0.0016 -1.92274,0.02489 -3.86432,0.03574 -5.80573,0.03574 q -3.03213,0 -6.0639,-0.03142 l -0.18299,-10e-4 a 12.857772,12.857772 0 0 0 -13.19,13.223865 c 0.0347,13.679194 0.0348,27.922234 10e-4,42.315955 a 12.882137,12.882137 0 0 0 13.19656,13.225767 c 0.0485,0 0.16744,-6.91e-4 0.216,-0.0014 1.8398,-0.02316 3.67256,-0.04061 5.5054,-0.04061 q 2.40279,0 4.80489,0.04787 l 0.41575,0.0044 a 13.227408,13.227408 0 0 0 9.65849,-3.847738 12.838246,12.838246 0 0 0 1.86071,-2.374617 13.729772,13.729772 0 0 0 11.56537,6.216652 c 0.0511,0 0.14447,-5.18e-4 0.19556,-0.0012 1.85501,-0.02644 3.69187,-0.03836 5.52857,-0.03836 q 2.74649,0 5.4928,0.03404 c 0.0487,6.57e-4 0.15085,0.0012 0.19958,0.0012 A 12.844224,12.844224 0 0 0 399.6661,78.020994 C 399.6404,64.042338 399.6401,49.753852 399.6651,35.5471 A 12.794302,12.794302 0 0 0 386.60592,22.436241 l -0.13795,5.18e-4 c -1.92378,0.02108 -3.81422,0.03473 -5.70413,0.03473 q -2.60055,0 -5.20093,-0.03974 c -0.0654,-0.001 -0.21354,-0.0023 -0.27942,-0.0023 z" />
  <path
     style="fill:#fe0000;fill-rule:evenodd;stroke-width:1.72800004"
     inkscape:connector-curvature="0"
     id="path93"
     d="m 587.93978,86.105437 a 20.70633,20.70633 0 0 1 -17.91279,-10.281081 21.666148,21.666148 0 0 1 -2.44685,-19.963066 22.237632,22.237632 0 0 1 14.78759,-13.273113 20.993351,20.993351 0 0 1 5.33756,-0.699495 20.525772,20.525772 0 0 1 3.23159,0.256573 q 10e-4,-2.017302 0.012,-4.021366 c -0.007,-0.07673 -0.0269,-0.227786 -0.0455,-0.378778 a 8.4834432,8.4834432 0 0 1 1.86469,-7.096032 7.407936,7.407936 0 0 1 5.60252,-2.306707 15.536724,15.536724 0 0 1 1.77863,0.128217 c 0.1417,0.01693 0.28167,0.03802 0.4168,0.04562 0.82512,-0.01282 1.75495,-0.0152 2.68484,-0.0152 l 2.96986,0.0034 c 1.00742,0 2.0133,-0.0034 3.01727,-0.01763 h 0.007 a 6.7968115,6.7968115 0 0 1 7.22925,7.088256 q -0.0481,21.235997 -0.006,42.48962 a 6.7346035,6.7346035 0 0 1 -6.99305,7.088428 c -1.87988,-0.02039 -3.65332,-0.02454 -5.42695,-0.02454 h -5.91805 c -0.20748,0.01354 -0.39485,0.02195 -0.57888,0.02195 a 6.9555802,6.9555802 0 0 1 -1.74148,-0.218592 29.173582,29.173582 0 0 1 -6.75337,1.146701 q -0.56687,0.0267 -1.11542,0.02695 z" />
  <path
     style="fill:#ffffff;stroke-width:1.72800004"
     inkscape:connector-curvature="0"
     id="path95"
     d="m 598.37073,34.390199 c 0.67076,0 1.45337,0.172109 2.11968,0.172109 l 0.0424,-1.73e-4 c 0.90375,-0.01056 1.80732,-0.01325 2.71107,-0.01325 0.98829,0 1.97613,0.0035 2.96421,0.0035 1.03905,0 2.07844,-0.0037 3.11732,-0.01866 l 0.0845,-5.18e-4 c 0.72316,0 1.01847,0.151027 1.01623,1.019347 q -0.0478,21.260621 -0.006,42.521241 c 0.001,0.74857 -0.15414,1.031754 -0.94522,1.031754 l -0.0386,-3.1e-4 c -1.80455,-0.02042 -3.60921,-0.02471 -5.41452,-0.02471 q -1.95177,0 -3.90355,0.0023 -1.06194,0 -2.12371,-0.0028 h -0.006 c -0.14357,0 -0.29549,0.0223 -0.43787,0.0223 -0.28564,0 -0.5336,-0.08899 -0.60169,-0.622772 -0.0329,-0.260928 -0.12096,-0.346844 -0.22983,-0.346844 -0.18956,0 -0.44202,0.260444 -0.57588,0.311593 a 23.789532,23.789532 0 0 1 -7.3788,1.592663 q -0.41912,0.02028 -0.8273,0.02008 a 14.745646,14.745646 0 0 1 -12.82752,-7.508333 15.591744,15.591744 0 0 1 8.79517,-24.111475 14.857862,14.857862 0 0 1 3.79919,-0.500602 16.577015,16.577015 0 0 1 8.03278,2.222727 c 0.3456,0.189389 0.68618,0.384998 1.2502,0.700877 0,-4.370976 -0.012,-8.538394 0.008,-12.70633 0.006,-1.154512 -0.48729,-2.651443 0.18766,-3.37271 a 1.548841,1.548841 0 0 1 1.18598,-0.390874 m -6.43852,40.31545 a 10.870226,10.870226 0 0 0 1.8133,-0.150509 3.4644154,3.4644154 0 0 0 3.22209,-3.681159 c 0.042,-2.124438 0.01,-4.251225 0.01,-6.377046 0,-2.125578 0.0418,-4.253091 -0.01,-6.376976 a 4.954176,4.954176 0 0 0 -4.89185,-5.181062 c -0.0665,-0.002 -0.13248,-0.0031 -0.19837,-0.0031 a 4.947817,4.947817 0 0 0 -5.19437,4.828861 c -0.16295,4.44566 -0.10224,8.903036 -0.0222,13.352463 a 3.347015,3.347015 0 0 0 3.13441,3.394829 12.211379,12.211379 0 0 0 2.13691,0.193709 M 598.37,22.294303 h -6.2e-4 a 13.372145,13.372145 0 0 0 -13.63191,13.713201 27.365455,27.365455 0 0 0 -3.91219,0.732361 28.385959,28.385959 0 0 0 -18.88463,16.930771 27.56694,27.56694 0 0 0 2.99981,25.42752 26.830553,26.830553 0 0 0 22.99698,13.054867 q 0.69379,0 1.40497,-0.0339 a 34.891188,34.891188 0 0 0 6.75268,-1.001168 13.15447,13.15447 0 0 0 1.45429,0.08035 c 0.25021,0 0.50631,-0.0079 0.7647,-0.02177 l 1.80276,0.0023 1.96198,-0.001 1.94157,-0.0012 c 1.75946,0 3.51856,0.0042 5.27732,0.02402 l 0.1758,0.001 a 12.804359,12.804359 0 0 0 13.04121,-13.148137 c -0.0244,-16.332365 -0.0224,-29.829427 0.006,-42.473549 a 13.064941,13.064941 0 0 0 -3.74562,-9.383558 12.875225,12.875225 0 0 0 -9.36662,-3.759091 c -0.0554,0 -0.19527,0.001 -0.25073,0.0017 -0.9879,0.01411 -1.96957,0.01728 -2.95108,0.01728 l -1.46188,-0.0016 -1.50233,-0.0017 q -1.20269,0 -2.40486,0.0095 a 20.129178,20.129178 0 0 0 -2.46759,-0.168135 z" />
  <path
     style="fill:#fe0000;fill-rule:evenodd;stroke-width:1.72800004"
     inkscape:connector-curvature="0"
     id="path97"
     d="m 567.02165,86.164535 c -1.92897,-0.02695 -3.84584,-0.03888 -5.76461,-0.03888 q -2.88307,0 -5.76789,0.03542 h -0.002 a 6.8060563,6.8060563 0 0 1 -7.17356,-7.153229 c 0.0269,-4.992537 0.0236,-9.989222 0.0202,-14.985907 l -10e-4,-2.705011 c -0.10296,0.04649 -0.20771,0.09539 -0.3089,0.143424 0.0979,3.825619 0.0828,7.532179 0.0676,11.123136 -0.01,2.148249 -0.0185,4.29719 -0.002,6.444576 a 6.7782874,6.7782874 0 0 1 -7.04865,7.133875 c -1.99796,-0.02436 -3.85935,-0.03542 -5.72232,-0.03542 q -2.79183,0 -5.58384,0.03386 h -0.002 a 6.803136,6.803136 0 0 1 -7.17189,-7.142342 q 0.0431,-13.997889 -0.002,-28.006733 a 6.7946861,6.7946861 0 0 1 7.08912,-7.098451 c 2.05545,0.02022 3.99426,0.03629 5.93151,0.03629 q 2.60471,0 5.20941,-0.04544 c 0.0372,-8.64e-4 0.15016,-0.0017 0.18735,-0.0017 a 7.4556288,7.4556288 0 0 1 3.62134,0.865728 20.309392,20.309392 0 0 1 8.76497,-1.975277 23.223491,23.223491 0 0 1 18.92518,10.529222 11.350558,11.350558 0 0 1 1.8697,6.460474 q -0.0329,9.597398 0.007,19.207929 a 7.0188941,7.0188941 0 0 1 -1.96756,5.186592 6.9074899,6.9074899 0 0 1 -5.05077,1.988756 c -0.0252,0 -0.0928,0 -0.11808,-8.64e-4 z" />
  <path
     style="fill:#ffffff;stroke-width:1.72800004"
     inkscape:connector-curvature="0"
     id="path99"
     d="m 553.35633,48.840772 a 17.11145,17.11145 0 0 1 13.89152,7.834925 5.361984,5.361984 0 0 1 0.85536,3.079468 q -0.0336,9.631095 0.007,19.263572 c 10e-4,0.771379 -0.1086,1.098489 -0.97062,1.098489 l -0.0439,-1.73e-4 q -2.91134,-0.04069 -5.82336,-0.03958 -2.92792,0 -5.85568,0.03577 l -0.0511,3.46e-4 c -0.8087,0 -1.01143,-0.25177 -1.00643,-1.069114 0.0346,-6.260889 0.0209,-12.522332 0.0185,-18.78336 a 5.872297,5.872297 0 0 0 -5.68183,-5.237084 4.2124493,4.2124493 0 0 0 -1.04994,0.129974 13.523777,13.523777 0 0 0 -2.66923,1.064448 4.7891693,4.7891693 0 0 0 -3.01968,4.914605 c 0.18144,5.97456 0.0382,11.958451 0.0804,17.938023 0.006,0.838598 -0.21964,1.042675 -0.99897,1.042675 l -0.0648,-5.19e-4 q -2.83635,-0.03473 -5.67388,-0.03493 -2.82165,0 -5.64243,0.03493 l -0.0582,5.19e-4 c -0.80749,0 -0.99895,-0.260755 -0.99567,-1.071015 q 0.043,-14.027385 -0.002,-28.053596 c -0.002,-0.867456 0.28684,-1.028298 1.03784,-1.028298 l 0.0589,3.46e-4 c 1.95955,0.02004 3.91926,0.03559 5.87933,0.03559 q 2.65914,0 5.31861,-0.04616 l 0.0744,-6.57e-4 c 0.9409,0 1.15085,0.350093 1.05719,1.210637 a 17.476352,17.476352 0 0 0 -0.01,1.758586 28.085011,28.085011 0 0 0 4.03275,-2.09209 14.522717,14.522717 0 0 1 7.30812,-1.986336 m 2.8e-4,-12.096 h -1.6e-4 a 26.545985,26.545985 0 0 0 -8.87277,1.538611 14.163414,14.163414 0 0 0 -3.51423,-0.429408 c -0.0715,0 -0.21756,0.0014 -0.2891,0.0026 -1.70985,0.03232 -3.4071,0.04423 -5.10399,0.04423 -1.91895,0 -3.83718,-0.01538 -5.75561,-0.03491 l -0.18265,-0.001 a 12.89952,12.89952 0 0 0 -9.39479,3.770496 13.07232,13.07232 0 0 0 -3.73888,9.405504 c 0.0325,8.868234 0.0337,18.018202 0.002,27.964916 a 12.834253,12.834253 0 0 0 13.09168,13.203993 c 0.0563,0 0.1709,-8.99e-4 0.2274,-0.0017 1.81147,-0.02246 3.64244,-0.03372 5.47326,-0.03372 q 2.76307,0 5.52545,0.03407 c 0.0494,4.84e-4 0.16364,0.0014 0.21324,0.0014 a 13.123693,13.123693 0 0 0 7.17863,-2.008454 13.23845,13.23845 0 0 0 7.14861,2.008281 c 0.0482,0 0.14758,-5.18e-4 0.19573,-0.0012 q 2.85405,-0.03396 5.71104,-0.03491 2.82788,0 5.65437,0.03836 c 0.0563,8.64e-4 0.15655,0.0016 0.21288,0.0016 A 12.819133,12.819133 0 0 0 580.20793,78.98157 c -0.0288,-6.013267 -0.0312,-12.281587 -0.007,-19.184429 A 17.505539,17.505539 0 0 0 577.31324,49.964994 29.332126,29.332126 0 0 0 553.35811,36.74493 Z" />
  <path
     style="fill:#fe0000;fill-rule:evenodd;stroke-width:1.72800004"
     inkscape:connector-curvature="0"
     id="path101"
     d="m 428.45423,85.160359 q -2.48832,-0.05048 -4.9782,-0.04715 c -1.88819,0 -3.77828,0.01693 -5.66663,0.03802 h -10e-4 a 6.8170982,6.8170982 0 0 1 -7.21251,-7.101043 q 0.0509,-14.085187 0.006,-28.149984 a 6.7148179,6.7148179 0 0 1 6.94397,-7.011533 c 1.99291,0.01936 3.88973,0.02868 5.78656,0.02868 q 2.81725,0 5.63103,-0.02627 h 10e-4 a 7.6744282,7.6744282 0 0 1 3.61982,0.825293 20.739542,20.739542 0 0 1 8.75128,-1.944864 22.497454,22.497454 0 0 1 15.48288,6.360077 15.86081,15.86081 0 0 1 5.42195,12.642048 c -0.18401,4.692038 -0.12168,9.552902 -0.0607,14.254272 l 0.0337,2.658701 a 7.013952,7.013952 0 0 1 -7.34901,7.472217 c -0.0337,0 -0.17712,-8.64e-4 -0.21099,-0.0017 q -2.69827,-0.04562 -5.4,-0.04476 -2.73871,0 -5.47586,0.04562 c -0.0337,8.64e-4 -0.15017,0.0017 -0.18403,0.0017 a 6.9375571,6.9375571 0 0 1 -7.24098,-7.333977 c 0.0372,-4.622919 0.0322,-9.23737 0.0287,-13.852685 l -0.002,-3.713299 c -0.10968,0.04976 -0.22793,0.105408 -0.3527,0.167961 0.0862,3.453408 0.0742,6.828365 0.0606,10.098778 -0.008,2.368397 -0.0173,4.736794 0.012,7.104326 a 7.323264,7.323264 0 0 1 -2.0183,5.45737 7.2164736,7.2164736 0 0 1 -5.35282,2.075639 c -0.0422,0 -0.2295,-0.0026 -0.27164,-0.0035 z" />
  <path
     style="fill:#ffffff;stroke-width:1.72800004"
     inkscape:connector-curvature="0"
     id="path103"
     d="m 441.33491,47.819869 a 16.582009,16.582009 0 0 1 11.31805,4.697568 9.896377,9.896377 0 0 1 3.54431,8.018784 c -0.22464,5.731604 -0.0962,11.478068 -0.0322,17.217447 0.012,1.114214 -0.3304,1.357344 -1.30479,1.357344 l -0.10704,-0.001 q -2.74959,-0.04588 -5.49971,-0.04562 -2.7895,0 -5.57833,0.04628 l -0.0833,7.26e-4 c -0.92174,0 -1.19874,-0.26041 -1.19148,-1.245197 0.0481,-6.141312 0.0245,-12.283142 0.0245,-18.424454 a 5.801881,5.801881 0 0 0 -5.7164,-5.432003 4.8268397,4.8268397 0 0 0 -1.30516,0.1775 12.9417,12.9417 0 0 0 -2.54223,1.066176 4.7127053,4.7127053 0 0 0 -2.90252,4.749927 c 0.1766,5.894899 0.0187,11.799993 0.0901,17.699904 0.0156,1.156723 -0.31467,1.412813 -1.3252,1.412813 -0.046,0 -0.0935,-5.19e-4 -0.14228,-0.0017 -1.70467,-0.03559 -3.40969,-0.0489 -5.11539,-0.0489 -1.9072,0 -3.81526,0.01676 -5.72193,0.03785 l -0.0563,3.45e-4 c -0.76326,0 -1.047,-0.181094 -1.0444,-1.041293 q 0.0498,-14.089075 0.006,-28.17815 c -10e-4,-0.716774 0.16917,-0.94729 0.8932,-0.94729 l 0.0386,1.73e-4 q 2.84627,0.02903 5.69358,0.02834 2.87246,0 5.74492,-0.02662 l 0.0452,-1.73e-4 c 0.7261,0 1.05857,0.171245 0.96664,0.978048 a 19.749986,19.749986 0 0 0 -0.0156,2.062887 c 1.21928,-0.651111 2.31379,-1.144627 3.31222,-1.784506 a 14.708736,14.708736 0 0 1 8.00704,-2.375136 m 10e-4,-12.096 h -1.7e-4 a 26.690359,26.690359 0 0 0 -8.87741,1.519949 14.135507,14.135507 0 0 0 -3.39468,-0.401242 l -0.15448,6.92e-4 q -2.81724,0.02566 -5.6357,0.02609 -2.78614,0 -5.57072,-0.02765 l -0.1614,-8.64e-4 A 12.752743,12.752743 0 0 0 404.5526,49.905101 c 0.0274,10.335686 0.0257,19.528646 -0.006,28.114387 a 13.091846,13.091846 0 0 0 3.74838,9.410688 12.907693,12.907693 0 0 0 9.39186,3.769459 l 0.18783,-0.001 c 1.86471,-0.02074 3.72799,-0.03715 5.59042,-0.03715 1.62156,0 3.24225,0.01238 4.86294,0.04631 l 0.39468,0.0042 a 13.536461,13.536461 0 0 0 7.47326,-2.098103 13.348195,13.348195 0 0 0 7.395,2.093645 c 0.0638,0 0.21096,-0.0012 0.27489,-0.002 q 2.70087,-0.04493 5.38669,-0.04493 2.64929,0 5.29754,0.04406 l 0.30916,0.0026 A 13.049856,13.049856 0 0 0 468.25917,77.61202 l -0.0329,-2.663712 c -0.0624,-4.835635 -0.1211,-9.403085 0.0564,-13.938048 a 21.866112,21.866112 0 0 0 -7.30106,-17.263505 28.52083,28.52083 0 0 0 -19.64669,-8.022758 z" />
  <path
     style="fill:#fe0000;fill-rule:evenodd;stroke-width:1.72800004"
     inkscape:connector-curvature="0"
     id="path105"
     d="m 635.41261,87.111271 a 27.741882,27.741882 0 0 1 -17.42515,-5.942592 20.970127,20.970127 0 0 1 0.79315,-33.987133 27.957312,27.957312 0 0 1 16.70458,-5.286851 27.487798,27.487798 0 0 1 16.96273,5.58303 21.484985,21.484985 0 0 1 8.83065,16.578951 21.519838,21.519838 0 0 1 -8.19786,16.93319 27.759664,27.759664 0 0 1 -17.6681,6.121405 z m 0.81838,-31.085475 -1.79038,-0.0035" />
  <path
     style="fill:#ffffff;stroke-width:1.72800004"
     inkscape:connector-curvature="0"
     id="path107"
     d="m 635.52666,47.942212 a 21.483446,21.483446 0 0 1 13.25876,4.349376 c 8.42591,6.412262 8.61599,17.301427 0.44911,24.030605 a 22.499165,22.499165 0 0 1 -27.44767,0.140832 14.92992,14.92992 0 0 1 0.57001,-24.403853 21.837773,21.837773 0 0 1 13.16979,-4.11696 m -5.37046,16.522099 h 0.007 c 0,2.886451 -0.0347,5.772902 0.012,8.658144 a 3.4901453,3.4901453 0 0 0 3.07757,3.707078 8.6809536,8.6809536 0 0 0 1.95731,0.197684 c 0.42474,0 0.85034,-0.02039 1.27491,-0.04721 a 3.7737446,3.7737446 0 0 0 4.01674,-4.125393 q 0.0648,-8.357645 0,-16.716326 a 4.8009542,4.8009542 0 0 0 -5.05226,-5.195405 h -0.007 a 4.852224,4.852224 0 0 0 -5.2768,5.223571 c -0.0408,2.765664 -0.01,5.531674 -0.01,8.297856 m 5.37344,-28.618099 -0.0874,3.46e-4 a 33.879168,33.879168 0 0 0 -20.23626,6.456844 27.011508,27.011508 0 0 0 -1.01779,43.571002 34.580736,34.580736 0 0 0 42.73984,-0.218108 27.523255,27.523255 0 0 0 10.39772,-21.71626 27.489785,27.489785 0 0 0 -11.2149,-21.274099 33.349312,33.349312 0 0 0 -20.53917,-6.819552 z m 6.73103,20.498746 z M 630.1635,76.560312 Z" />
  <path
     style="fill:#fe0000;fill-rule:evenodd;stroke-width:1.72800004"
     inkscape:connector-curvature="0"
     id="path109"
     d="m 503.77411,87.116317 a 27.79336,27.79336 0 0 1 -18.17266,-6.513696 20.678147,20.678147 0 0 1 -0.0676,-32.201798 27.710882,27.710882 0 0 1 18.1981,-6.507856 27.3719,27.3719 0 0 1 18.49668,6.818378 21.205687,21.205687 0 0 1 7.14652,13.865299 7.2289325,7.2289325 0 0 1 -0.99225,4.742669 6.8279328,6.8279328 0 0 1 -0.32901,4.458412 22.64074,22.64074 0 0 1 -9.84994,11.435386 28.001825,28.001825 0 0 1 -14.42812,3.903206 z" />
  <path
     style="fill:#ffffff;stroke-width:1.72800004"
     inkscape:connector-curvature="0"
     id="path111"
     d="m 503.73144,47.941348 a 21.529514,21.529514 0 0 1 14.43467,5.251011 15.235776,15.235776 0 0 1 5.19298,10.003254 c 0.087,0.86089 -0.0541,1.180916 -0.96474,1.180916 l -0.0619,-5.54e-4 c -1.73353,-0.02468 -3.46688,-0.03125 -5.20093,-0.03125 -2.03817,0 -4.07705,0.0092 -6.11539,0.0092 -1.99166,0 -3.98304,0.0064 -5.97526,0.0064 q -2.67002,0 -5.34108,-0.02436 l -0.0613,-1.72e-4 c -0.75409,0 -1.04854,0.164643 -1.02573,1.027641 0.0654,2.485866 0.002,4.976295 0.0308,7.463405 a 3.772224,3.772224 0 0 0 3.98114,4.152038 c 0.41092,0.02678 0.82253,0.04717 1.23361,0.04717 a 8.116295,8.116295 0 0 0 1.88093,-0.195264 3.772224,3.772224 0 0 0 3.25555,-4.001391 c 0.0259,-1.122301 0.0322,-2.247748 -0.001,-3.370257 -0.0185,-0.555759 0.13104,-0.760838 0.71782,-0.760838 h 0.012 q 3.19205,0.01918 6.38392,0.02018 2.88645,0 5.77377,-0.02018 h 0.0206 c 0.94176,0 0.66424,0.497111 0.48055,0.978566 a 16.571158,16.571158 0 0 1 -7.28956,8.350906 22.572864,22.572864 0 0 1 -25.54727,-2.010874 14.642467,14.642467 0 0 1 -0.053,-23.042707 21.810608,21.810608 0 0 1 14.23958,-5.0328 m -4.41138,11.395123 0.0578,-3.45e-4 q 0.98573,-0.0098 1.97217,-0.0084 c 0.82494,0 1.64989,0.0028 2.47398,0.0028 h 1.92273 c 3.47988,0 3.47988,0 3.24053,-3.511987 a 5.0691053,5.0691053 0 0 0 -5.11506,-4.872096 c -0.0648,-0.0017 -0.12888,-0.0026 -0.19284,-0.0026 a 4.6944749,4.6944749 0 0 0 -4.98632,4.407609 c -0.12111,1.109376 -0.0236,2.241562 -0.0656,3.361479 -0.0224,0.565056 0.27129,0.623462 0.69261,0.623462 M 503.732,35.845234 a 33.753214,33.753214 0 0 0 -22.15448,7.981805 26.71882,26.71882 0 0 0 0.0798,41.359852 34.658496,34.658496 0 0 0 39.65903,3.212871 28.501994,28.501994 0 0 0 12.35583,-14.380935 13.204582,13.204582 0 0 0 0.95938,-5.731776 13.652772,13.652772 0 0 0 0.7628,-6.3072 27.45341,27.45341 0 0 0 -9.1035,-17.749152 33.401738,33.401738 0 0 0 -22.55886,-8.385465 z" />
  <path
     style="fill:#fe0000;fill-rule:evenodd;stroke-width:1.72800004"
     inkscape:connector-curvature="0"
     id="path113"
     d="m 476.5766,85.158839 q -2.74881,-0.04438 -5.49279,-0.04303 -2.8906,0 -5.78136,0.03715 h -0.002 a 6.806039,6.806039 0 0 1 -7.19216,-7.161005 c 0.0302,-3.430598 0.0269,-6.866415 0.0218,-10.303027 0,0 -0.01,-10.855676 -0.007,-12.674016 l -0.13996,8.64e-4 a 6.7177555,6.7177555 0 0 1 -6.89223,-6.713656 c -0.0726,-2.368362 -0.15361,-4.96641 2.00985,-7.196394 a 7.3776787,7.3776787 0 0 1 5.02191,-2.178489 6.6744,6.6744 0 0 1 1.86987,-4.398451 6.7740192,6.7740192 0 0 1 5.01189,-2.015021 c 2.03333,0.01452 3.99255,0.02195 5.95175,0.02195 q 2.97665,0 5.95348,-0.0235 a 6.9190848,6.9190848 0 0 1 5.18745,2.053555 6.7026874,6.7026874 0 0 1 1.85125,4.291315 c 0.0606,-6.91e-4 0.1467,-0.0016 0.18555,-0.0016 a 6.6756096,6.6756096 0 0 1 6.8427,6.820762 8.9416224,8.9416224 0 0 1 -2.0637,7.096032 7.3924877,7.3924877 0 0 1 -4.96455,2.167603 l -0.001,1.157587 c -0.007,7.241011 -0.0144,14.482195 0.0218,21.722308 a 6.9305069,6.9305069 0 0 1 -7.21923,7.340544 c -0.0302,0 -0.13997,-6.57e-4 -0.17212,-0.0016 z" />
  <path
     style="fill:#ffffff;stroke-width:1.72800004"
     inkscape:connector-curvature="0"
     id="path115"
     d="m 476.98749,38.560209 c 0.70144,0 0.95559,0.18334 0.92781,0.935712 -0.0605,1.523232 0.0173,3.051648 -0.0334,4.576262 -0.0215,0.664934 0.18421,0.862963 0.79747,0.862963 l 0.0762,-8.99e-4 c 0.54968,-0.01382 1.0997,-0.01759 1.64989,-0.01759 0.66114,0 1.32245,0.0055 1.98341,0.0055 0.55537,0 1.11076,-0.0041 1.66579,-0.01812 l 0.078,-0.001 c 0.61361,0 0.78468,0.205977 0.79557,0.86241 0.0494,3.189404 0.0715,3.168322 -3.13197,3.199254 l -0.044,1.72e-4 c -0.73458,0 -1.60411,-0.181958 -2.34369,-0.181958 a 1.6895174,1.6895174 0 0 0 -1.296,0.418694 c -0.6293,0.68498 -0.21099,2.357165 -0.21099,3.593031 -0.007,8.351942 -0.0222,16.703366 0.0185,25.054963 0.006,0.964224 -0.22585,1.262477 -1.17158,1.262477 l -0.0761,-6.91e-4 q -2.78208,-0.04536 -5.56468,-0.0432 -2.93855,0 -5.87744,0.0375 l -0.0521,3.45e-4 c -0.79128,0 -1.03131,-0.214099 -1.02388,-1.054771 0.0432,-4.696877 0.0197,-9.395482 0.0197,-14.092877 0,-4.658515 -0.0222,-9.315821 0.0222,-13.973161 0.007,-0.810916 -0.2217,-1.051626 -0.93761,-1.051626 -0.0449,0 -0.0922,8.64e-4 -0.14083,0.0028 -0.59046,0.02162 -1.18123,0.0275 -1.77258,0.0275 -0.69673,0 -1.39398,-0.008 -2.09106,-0.008 -0.39779,0 -0.79574,0.0026 -1.19335,0.01104 l -0.079,6.56e-4 c -0.58441,0 -0.82564,-0.154794 -0.84672,-0.848448 -0.0986,-3.200739 -0.12456,-3.200048 3.10487,-3.200048 0.61776,0 1.23621,-0.012 1.85414,-0.012 0.42651,0 0.8526,0.0058 1.27786,0.02506 q 0.0586,0.0023 0.1122,0.0024 c 0.53585,0 0.72317,-0.196992 0.70485,-0.80473 -0.0458,-1.564876 0.0174,-3.132518 -0.0296,-4.696704 -0.0193,-0.675475 0.18904,-0.87143 0.84672,-0.87143 h 0.0283 q 2.98365,0.0223 5.96733,0.02246 2.97842,0 5.95725,-0.02368 l 0.0287,-1.73e-4 m 5.2e-4,-12.096 h -5.2e-4 l -0.11508,5.19e-4 c -1.96456,0.0159 -3.91789,0.02333 -5.87085,0.02333 q -2.93885,0 -5.87747,-0.02212 l -0.1182,-3.46e-4 a 12.871354,12.871354 0 0 0 -9.35488,3.851366 12.70963,12.70963 0 0 0 -2.4344,3.583872 12.684505,12.684505 0 0 0 -4.45928,2.995488 14.725481,14.725481 0 0 0 -3.71502,11.519712 12.824282,12.824282 0 0 0 7.03209,11.28505 q 5.5e-4,0.386726 8.7e-4,0.773626 l 0.002,3.483648 0.002,3.682368 c 0.006,3.433363 0.008,6.866899 -0.0223,10.299398 a 12.837641,12.837641 0 0 0 13.11934,13.261882 l 0.19437,-0.001 q 2.86779,-0.03396 5.73523,-0.0368 2.68406,0 5.36683,0.04164 c 0.0658,0.001 0.20788,0.0023 0.27389,0.0023 a 12.965581,12.965581 0 0 0 13.2674,-13.41913 c -0.0295,-6.098112 -0.0294,-12.296102 -0.0245,-18.366912 a 12.754852,12.754852 0 0 0 3.25193,-2.428704 14.791472,14.791472 0 0 0 3.78052,-11.349677 12.735878,12.735878 0 0 0 -8.32654,-12.050553 12.683623,12.683623 0 0 0 -2.24675,-3.224794 12.949217,12.949217 0 0 0 -9.46252,-3.90407 z" />
  <path
     style="fill:#fe0000;fill-rule:evenodd;stroke-width:1.72800004"
     inkscape:connector-curvature="0"
     id="path117"
     d="m 408.08265,85.156247 q -2.70578,-0.03914 -5.41174,-0.03802 -2.81724,0 -5.63118,0.03386 h -0.002 a 6.8283821,6.8283821 0 0 1 -7.19554,-7.149946 q 0.0404,-13.978915 -0.002,-27.99982 a 6.9869606,6.9869606 0 0 1 1.97784,-5.123382 6.9163546,6.9163546 0 0 1 5.09968,-1.990276 c 1.95903,0.02108 3.79174,0.03024 5.62602,0.03024 q 2.84524,0 5.6903,-0.02954 h 10e-4 a 6.759936,6.759936 0 0 1 7.11107,7.085837 c -0.0287,3.528576 -0.0253,7.058016 -0.0218,10.587456 l -10e-4,7.070595 c -0.006,3.42977 -0.01,6.858813 0.0253,10.286992 a 6.8300064,6.8300064 0 0 1 -7.10277,7.237728 c -0.0304,0 -0.13161,-8.64e-4 -0.16036,-0.0017 z" />
  <path
     style="fill:#ffffff;stroke-width:1.72800004"
     inkscape:connector-curvature="0"
     id="path119"
     d="m 396.91097,48.936676 0.0619,3.45e-4 q 2.79106,0.03059 5.58351,0.03007 2.86701,0 5.73505,-0.02954 l 0.0444,-1.72e-4 c 0.737,0 0.96614,0.199756 0.96009,0.987033 -0.0395,4.69584 -0.0197,9.391991 -0.0197,14.088211 0,4.65696 -0.0259,9.313402 0.0223,13.968807 0.008,0.880381 -0.20979,1.127865 -1.05546,1.127865 l -0.0714,-5.18e-4 q -2.75789,-0.03991 -5.51578,-0.03818 -2.84187,0 -5.68305,0.03314 l -0.0524,3.8e-4 c -0.78819,0 -1.03632,-0.231206 -1.03252,-1.06583 q 0.0425,-14.027386 -10e-4,-28.058054 c -0.002,-0.851904 0.25626,-1.04354 1.02539,-1.04354 m 0,-12.096 a 12.835584,12.835584 0 0 0 -13.1214,13.19155 c 0.0317,8.871725 0.0325,18.023559 10e-4,27.969581 a 12.858307,12.858307 0 0 0 13.12835,13.198291 l 0.19366,-0.0012 c 1.84137,-0.02022 3.69171,-0.03248 5.54157,-0.03248 q 2.67074,0 5.34035,0.03715 c 0.0586,8.64e-4 0.18835,0.0017 0.24692,0.0017 a 12.867949,12.867949 0 0 0 13.15068,-13.354476 c -0.0348,-3.374092 -0.0301,-6.8472 -0.0252,-10.206086 l 0.002,-3.632083 -0.002,-3.531687 c -0.002,-3.485238 -0.007,-6.970233 0.0217,-10.455436 A 12.792384,12.792384 0 0 0 408.33511,36.841373 l -0.15622,6.56e-4 c -1.88198,0.01901 -3.75321,0.02906 -5.6238,0.02906 q -2.72652,0 -5.45095,-0.02938 z" />
  <path
     style="fill:#fe0000;fill-rule:evenodd;stroke-width:1.72800004"
     inkscape:connector-curvature="0"
     id="path121"
     d="m 396.69721,48.615959 a 6.7261363,6.7261363 0 0 1 -4.94951,-1.99463 6.8058144,6.8058144 0 0 1 -1.90183,-5.056682 c 0.0372,-2.058704 0.0271,-4.127466 0.002,-6.195536 a 6.5879136,6.5879136 0 0 1 6.76685,-6.880032 c 2.02676,0.01368 4.001,0.01952 5.97369,0.01952 q 2.96421,0 5.92479,-0.01866 a 6.591577,6.591577 0 0 1 6.82267,6.871565 c -0.0304,2.112825 -0.0406,4.212 10e-4,6.309619 a 6.6168576,6.6168576 0 0 1 -6.83442,6.940685 c -0.99895,-0.01282 -1.84948,-0.01607 -2.7,-0.01607 l -6.54929,-0.0043 c -0.78624,0 -1.57266,0.0052 -2.35731,0.02195 -0.0456,8.64e-4 -0.1569,0.0026 -0.20082,0.0026 z" />
  <path
     style="fill:#ffffff;stroke-width:1.72800004"
     inkscape:connector-curvature="0"
     id="path123"
     d="m 396.61375,34.537425 h 0.0156 q 2.97769,0.01944 5.95555,0.01936 2.98313,0 5.96679,-0.01884 h 0.0144 c 0.57728,0 0.73038,0.189734 0.72312,0.752198 -0.0296,2.167603 -0.0396,4.336589 0.002,6.503674 0.0144,0.660096 -0.24884,0.770342 -0.78831,0.770342 l -0.0581,-5.18e-4 c -0.87317,-0.01267 -1.74632,-0.01607 -2.61948,-0.01607 -1.09417,0 -2.18868,0.0055 -3.28199,0.0055 -1.09434,-3.11e-4 -2.18864,-0.0094 -3.2832,-0.0094 -0.83238,0 -1.66506,0.0052 -2.49714,0.0235 l -0.0667,8.64e-4 c -0.63568,0 -0.81751,-0.230343 -0.80576,-0.883008 0.0396,-2.127687 0.0295,-4.255719 0.006,-6.383232 -0.007,-0.552096 0.126,-0.764468 0.71712,-0.764468 m 0,-12.096 A 12.632682,12.632682 0 0 0 383.80186,35.46211 c 0.019,1.650931 0.036,3.845837 -0.002,5.998061 a 12.717994,12.717994 0 0 0 12.89969,13.20382 c 0.0944,0 0.25558,-0.0019 0.35027,-0.0042 0.72627,-0.0159 1.47018,-0.02022 2.21357,-0.02022 l 1.61965,0.0044 1.65991,0.0049 1.6741,-0.0028 1.61152,-0.0028 c 0.81527,0 1.63054,0.0031 2.44582,0.01486 0.0578,8.64e-4 0.17405,0.0017 0.23172,0.0017 A 12.659466,12.659466 0 0 0 421.388,41.554849 c -0.0347,-1.742342 -0.0354,-3.679776 -10e-4,-6.099494 A 12.630851,12.630851 0 0 0 408.56882,22.441914 l -0.0977,3.46e-4 c -1.95541,0.0121 -3.9198,0.01849 -5.88332,0.01849 q -2.93855,0 -5.87641,-0.01901 z" />
  <path
     style="fill:#fe0000;fill-rule:evenodd;stroke-width:1.72800004"
     inkscape:connector-curvature="0"
     id="path125"
     d="m 496.95042,8.4798758 q 73.11925,0 146.23733,-0.016764 a 47.864096,47.864096 0 0 1 25.27441,6.5930462 c 13.22409,7.964525 21.26149,19.59984 23.40386,34.923053 a 47.955024,47.955024 0 0 1 -32.80101,52.579069 50.039234,50.039234 0 0 1 -15.749,2.36494 q -129.8566,-0.0138 -259.70926,-0.007 c -11.60387,0 -23.20877,0.0895 -34.81125,-0.0339 A 48.207122,48.207122 0 0 1 334.72473,10.860898 50.134464,50.134464 0 0 1 350.71445,8.4712466 q 73.11902,0.023064 146.23597,0.00864 z m 0.007,85.0623552 q 73.0562,0 146.11254,-0.0019 a 43.782233,43.782233 0 0 0 7.66713,-0.626227 36.811169,36.811169 0 0 0 -6.77116,-73.037722 q -147.01618,-0.01572 -294.0332,-0.0026 a 36.803273,36.803273 0 0 0 -29.19628,59.48913 36.476179,36.476179 0 0 0 29.98737,14.179968 q 73.11565,-0.0037 146.2336,-6.56e-4 z" />
  <path
     style="fill:#fe0000;fill-rule:evenodd;stroke-width:1.72800004"
     inkscape:connector-curvature="0"
     id="path165"
     d="m 374.13541,65.220829 v -1.271116 c 0,-9.393581 0.0173,-18.787853 -0.0247,-28.180778 -0.006,-1.013782 0.26663,-1.258122 1.25626,-1.242742 3.73299,0.06065 7.46599,0.04697 11.2002,0.0062 0.78002,-0.0072 1.00448,0.1944 1.00207,0.9936 q -0.037,21.254659 0.001,42.511737 c 10e-4,0.846375 -0.22585,1.078445 -1.06978,1.067904 q -5.66073,-0.06842 -11.32119,0.0043 a 1.6566336,1.6566336 0 0 1 -1.6067,-0.926726 Q 363.97483,63.264493 354.33752,48.371812 a 3.8078381,3.8078381 0 0 0 -0.94521,-1.087949 v 1.216166 c 0,9.714471 -0.0286,19.42946 0.0358,29.14393 0.007,1.273536 -0.3677,1.494547 -1.53015,1.470355 -3.57144,-0.07706 -7.14511,-0.05426 -10.71654,-0.0092 -0.85398,0.0098 -1.17228,-0.14688 -1.17123,-1.100736 q 0.0502,-21.194784 -0.001,-42.39216 c -0.002,-0.966816 0.32573,-1.087085 1.15863,-1.079827 4.05388,0.03958 8.10898,0.04752 12.16287,-0.0049 a 1.7459021,1.7459021 0 0 1 1.70173,0.963152 q 9.40715,14.894462 18.85629,29.764662 c 0.0814,-0.01176 0.16537,-0.02232 0.24675,-0.03456 z" />
  <path
     style="fill:#fe0000;fill-rule:evenodd;stroke-width:1.72800004"
     inkscape:connector-curvature="0"
     id="path167"
     d="m 596.98862,50.860113 c 0,-4.370976 -0.012,-8.538394 0.008,-12.70633 0.006,-1.154512 -0.48729,-2.651443 0.18767,-3.37271 0.68602,-0.734746 2.19905,-0.205978 3.348,-0.218938 2.93086,-0.03404 5.86292,0.01354 8.79258,-0.02851 0.78486,-0.01104 1.10316,0.1173 1.10074,1.018829 q -0.0478,21.260621 -0.006,42.521069 c 10e-4,0.76063 -0.15915,1.040774 -0.98362,1.031616 -3.81318,-0.0432 -7.62895,-0.01411 -11.44195,-0.02522 -0.43218,-0.0019 -0.94297,0.203385 -1.04544,-0.60048 -0.09,-0.715047 -0.59478,-0.115944 -0.80573,-0.03526 a 23.789532,23.789532 0 0 1 -7.37722,1.592662 14.714905,14.714905 0 0 1 -13.65483,-7.488253 15.547697,15.547697 0 0 1 20.62713,-22.38935 c 0.3456,0.189389 0.6862,0.384998 1.25021,0.700877 z m -0.01,13.636822 c 0,-2.125578 0.0418,-4.253091 -0.01,-6.376976 a 5.1471936,5.1471936 0 0 0 -10.28583,-0.355312 c -0.16295,4.445661 -0.10224,8.903037 -0.0222,13.352464 a 3.347015,3.347015 0 0 0 3.13441,3.394829 11.50378,11.50378 0 0 0 3.95021,0.0432 3.4644154,3.4644154 0 0 0 3.22209,-3.681159 c 0.042,-2.124438 0.01,-4.251225 0.01,-6.377046 z" />
  <path
     style="fill:#fe0000;fill-rule:evenodd;stroke-width:1.72800004"
     inkscape:connector-curvature="0"
     id="path169"
     d="m 542.01547,52.919197 a 28.06158,28.06158 0 0 0 4.03276,-2.092262 c 7.75474,-4.467398 16.69178,-0.91584 21.19962,5.848762 a 5.361984,5.361984 0 0 1 0.85536,3.079468 q -0.0336,9.631095 0.007,19.263572 c 10e-4,0.784166 -0.11232,1.109376 -1.01451,1.098316 q -5.83788,-0.08165 -11.67903,-0.0037 c -0.85139,0.01056 -1.06256,-0.234489 -1.05754,-1.068768 0.0346,-6.260889 0.0209,-12.522332 0.0185,-18.78336 a 5.7942605,5.7942605 0 0 0 -6.73177,-5.107104 13.523777,13.523777 0 0 0 -2.66925,1.064448 4.7891693,4.7891693 0 0 0 -3.01968,4.914605 c 0.18144,5.97456 0.0382,11.958451 0.0804,17.938023 0.006,0.861408 -0.23206,1.053216 -1.06375,1.042156 q -5.65704,-0.06947 -11.3163,0 c -0.85657,0.01238 -1.05737,-0.241228 -1.05391,-1.070496 q 0.043,-14.027385 -0.002,-28.053596 c -0.002,-0.889712 0.30206,-1.036074 1.09676,-1.027952 3.73199,0.03818 7.46597,0.05978 11.19794,-0.01056 1.00448,-0.01846 1.22774,0.327145 1.13167,1.20998 a 17.476352,17.476352 0 0 0 -0.01,1.758586 z" />
  <path
     style="fill:#fe0000;fill-rule:evenodd;stroke-width:1.72800004"
     inkscape:connector-curvature="0"
     id="path171"
     d="m 430.01564,51.979511 c 1.21929,-0.65111 2.31379,-1.144627 3.31223,-1.784506 a 15.565462,15.565462 0 0 1 19.32509,2.322432 9.896377,9.896377 0 0 1 3.54431,8.018784 c -0.22464,5.731604 -0.0962,11.478068 -0.0322,17.217447 0.0144,1.153958 -0.35546,1.373587 -1.41178,1.356307 q -5.53824,-0.09253 -11.07804,6.56e-4 c -0.98842,0.01538 -1.28218,-0.230653 -1.27475,-1.24447 0.0481,-6.141312 0.0245,-12.283143 0.0245,-18.424455 a 5.7538771,5.7538771 0 0 0 -7.02155,-5.254502 12.9417,12.9417 0 0 0 -2.54223,1.066176 4.7127053,4.7127053 0 0 0 -2.90253,4.749926 c 0.17661,5.894899 0.0187,11.799994 0.0901,17.699904 0.0156,1.209255 -0.3456,1.434067 -1.46742,1.411085 -3.61082,-0.07534 -7.22528,-0.05114 -10.83732,-0.01104 -0.80576,0.0086 -1.10332,-0.15984 -1.10073,-1.040947 q 0.0498,-14.089335 0.006,-28.178151 c -10e-4,-0.729388 0.17539,-0.955238 0.93174,-0.947116 q 5.71795,0.05806 11.43849,0.0017 c 0.75773,-0.007 1.10574,0.15431 1.01192,0.977875 a 19.749986,19.749986 0 0 0 -0.0156,2.062886 z" />
  <path
     style="fill:#fe0000;fill-rule:evenodd;stroke-width:1.72800004"
     inkscape:connector-curvature="0"
     id="path173"
     d="m 635.52666,47.942212 a 21.483446,21.483446 0 0 1 13.25876,4.349376 c 8.42591,6.412262 8.61599,17.301427 0.44911,24.030605 a 22.499597,22.499597 0 0 1 -27.44767,0.140832 14.92992,14.92992 0 0 1 0.57001,-24.403853 21.837773,21.837773 0 0 1 13.16979,-4.11696 z m -5.37046,16.522099 h 0.007 c 0,2.886451 -0.0347,5.772902 0.012,8.658144 a 3.4901453,3.4901453 0 0 0 3.07757,3.707078 11.182078,11.182078 0 0 0 3.23222,0.150474 3.7737446,3.7737446 0 0 0 4.01674,-4.125392 q 0.0648,-8.357645 0,-16.716326 a 4.8014381,4.8014381 0 0 0 -5.05958,-5.195405 4.852224,4.852224 0 0 0 -5.2768,5.223571 c -0.0408,2.765664 -0.01,5.531674 -0.01,8.297856 z" />
  <path
     style="fill:#fe0000;fill-rule:evenodd;stroke-width:1.72800004"
     inkscape:connector-curvature="0"
     id="path175"
     d="m 511.01616,64.353892 c -3.77136,0 -7.54373,0.02281 -11.31633,-0.01798 -0.79954,-0.0086 -1.11058,0.14135 -1.08708,1.027469 0.0654,2.485866 0.002,4.976294 0.0308,7.463404 a 3.772224,3.772224 0 0 0 3.98114,4.152039 10.465684,10.465684 0 0 0 3.11455,-0.14809 3.772224,3.772224 0 0 0 3.25555,-4.001391 c 0.0259,-1.122302 0.0322,-2.247748 -0.001,-3.370257 -0.0185,-0.559699 0.1332,-0.763776 0.7306,-0.760838 q 6.07875,0.03629 12.15769,0 c 0.9663,-0.0072 0.68622,0.493655 0.50112,0.978566 a 16.571158,16.571158 0 0 1 -7.28957,8.350906 22.5579,22.5579 0 0 1 -25.54727,-2.010874 14.642467,14.642467 0 0 1 -0.053,-23.042707 22.560509,22.560509 0 0 1 28.67425,0.218212 15.235309,15.235309 0 0 1 5.19299,10.003254 c 0.0888,0.879897 -0.0605,1.194739 -1.0266,1.180362 -3.77136,-0.05357 -7.54393,-0.02209 -11.31632,-0.02209 z m -7.19211,-5.023296 h 1.92275 c 3.47987,0 3.47987,0 3.24052,-3.511987 a 5.0691053,5.0691053 0 0 0 -5.11505,-4.872096 4.71744,4.71744 0 0 0 -5.17916,4.405017 c -0.12111,1.109376 -0.0236,2.241562 -0.0656,3.361479 -0.0233,0.590457 0.29862,0.627574 0.75046,0.623116 1.48191,-0.01469 2.96525,-0.0055 4.44615,-0.0055 z" />
  <path
     style="fill:#fe0000;fill-rule:evenodd;stroke-width:1.72800004"
     inkscape:connector-curvature="0"
     id="path177"
     d="m 464.17406,63.958353 c 0,-4.658516 -0.0222,-9.315821 0.0222,-13.973162 0.007,-0.861891 -0.2516,-1.079792 -1.07845,-1.048896 -1.68324,0.06172 -3.37133,-0.005 -5.05699,0.03026 -0.64177,0.01354 -0.90357,-0.12358 -0.92569,-0.847756 -0.0986,-3.200602 -0.12456,-3.199911 3.10488,-3.199911 1.04404,0 2.09055,-0.03404 3.132,0.01296 0.62208,0.02713 0.83668,-0.153792 0.81699,-0.802137 -0.0458,-1.564877 0.0174,-3.132692 -0.0296,-4.696704 -0.0197,-0.685014 0.19509,-0.87696 0.87505,-0.871431 q 5.96213,0.04433 11.9246,-0.0012 c 0.72319,-0.005 0.98478,0.1728 0.95647,0.935539 -0.0605,1.523232 0.0173,3.051648 -0.0334,4.576263 -0.0223,0.691718 0.20114,0.878169 0.87367,0.862064 1.76602,-0.04438 3.53429,0.01486 5.29909,-0.03022 0.67738,-0.01728 0.86248,0.177811 0.87367,0.861375 0.0494,3.189403 0.0715,3.168321 -3.13196,3.199252 -1.26856,0.01296 -2.96179,-0.547257 -3.68378,0.236909 -0.62931,0.684979 -0.21099,2.357165 -0.21099,3.593031 -0.007,8.351942 -0.0222,16.703366 0.0185,25.05479 0.006,0.989626 -0.23809,1.277856 -1.24761,1.261958 -3.81318,-0.06238 -7.62875,-0.05083 -11.44214,-0.0058 -0.83289,0.0094 -1.08345,-0.195609 -1.07602,-1.054425 0.0432,-4.696877 0.0197,-9.395482 0.0197,-14.092877 z" />
  <path
     style="fill:#fe0000;fill-rule:evenodd;stroke-width:1.72800004"
     inkscape:connector-curvature="0"
     id="path179"
     d="m 409.27619,64.012612 c 0,4.656787 -0.0259,9.313401 0.0223,13.968806 0.01,0.904573 -0.22205,1.140999 -1.12683,1.127347 -3.73283,-0.05426 -7.46703,-0.04631 -11.19882,-0.005 -0.82944,0.01008 -1.08864,-0.212682 -1.08485,-1.06545 q 0.0425,-14.027385 -10e-4,-28.058054 c -0.002,-0.874368 0.27027,-1.053216 1.08726,-1.043194 q 5.65679,0.06194 11.31858,5.19e-4 c 0.77242,-0.0079 1.0107,0.183859 1.00449,0.986688 -0.0395,4.696013 -0.0197,9.392163 -0.0197,14.088384 z" />
  <path
     style="fill:#fe0000;fill-rule:evenodd;stroke-width:1.72800004"
     inkscape:connector-curvature="0"
     id="path181"
     d="m 402.54441,42.553063 c -1.92637,-4.83e-4 -3.85377,-0.02831 -5.78032,0.01411 -0.68982,0.01607 -0.88474,-0.207187 -0.87248,-0.882144 0.0396,-2.127686 0.0295,-4.255718 0.006,-6.383232 -0.007,-0.557107 0.12845,-0.768268 0.73302,-0.764467 q 5.96031,0.03888 11.92234,5.19e-4 c 0.58856,-0.0029 0.7439,0.185241 0.73664,0.752198 -0.0296,2.167603 -0.0396,4.336589 0.002,6.503501 0.0144,0.683597 -0.26766,0.777427 -0.84637,0.769997 -1.96733,-0.02834 -3.93552,-0.01056 -5.90147,-0.01056 z" />
</svg>
