<?xml version="1.0" encoding="UTF-8" standalone="no"?>
<svg
   xmlns:dc="http://purl.org/dc/elements/1.1/"
   xmlns:cc="http://creativecommons.org/ns#"
   xmlns:rdf="http://www.w3.org/1999/02/22-rdf-syntax-ns#"
   xmlns:svg="http://www.w3.org/2000/svg"
   xmlns="http://www.w3.org/2000/svg"
   xmlns:sodipodi="http://sodipodi.sourceforge.net/DTD/sodipodi-0.dtd"
   xmlns:inkscape="http://www.inkscape.org/namespaces/inkscape"
   viewBox="0 0 1000 114.00004"
   version="1.1"
   id="svg120"
   sodipodi:docname="logo.svg"
   inkscape:version="0.92.4 (5da689c313, 2019-01-14)">
  <metadata
     id="metadata126">
    <rdf:RDF>
      <cc:Work
         rdf:about="">
        <dc:format>image/svg+xml</dc:format>
        <dc:type
           rdf:resource="http://purl.org/dc/dcmitype/StillImage" />
        <dc:title>logo</dc:title>
      </cc:Work>
    </rdf:RDF>
  </metadata>
  <defs
     id="defs124" />
  <sodipodi:namedview
     pagecolor="#ffffff"
     bordercolor="#666666"
     borderopacity="1"
     objecttolerance="10"
     gridtolerance="10"
     guidetolerance="10"
     inkscape:pageopacity="0"
     inkscape:pageshadow="2"
     inkscape:window-width="1920"
     inkscape:window-height="1017"
     id="namedview122"
     showgrid="false"
     inkscape:pagecheckerboard="false"
     inkscape:zoom="1.6065466"
     inkscape:cx="500"
     inkscape:cy="57.000019"
     inkscape:window-x="-8"
     inkscape:window-y="-8"
     inkscape:window-maximized="1"
     inkscape:current-layer="svg120" />
  <title
     id="title2">logo</title>
  <path
     style="fill:#ffffff;stroke-width:1.44000006"
     inkscape:connector-curvature="0"
     id="path7"
     d="m 288.05474,79.740464 8.33457,2.651919 v 0.05115 l -8.33457,-2.703067 m -0.003,-10.082678 a 10.081627,10.081627 0 0 0 -3.10722,19.671005 l 8.33456,2.703067 a 10.104307,10.104307 0 1 0 6.16601,-19.244952 l -8.33415,-2.651919 a 10.074154,10.074154 0 0 0 -3.05876,-0.477201 z" />
  <path
     style="fill:#ffffff;stroke-width:1.44000006"
     inkscape:connector-curvature="0"
     id="path9"
     d="m 628.96699,50.654397 a 6.0474672,6.0474672 0 0 1 4.73115,1.855353 c 0.92769,1.11312 2.04091,3.432298 2.04091,10.297095 0,6.864797 -1.11322,9.183945 -2.04091,10.297181 a 6.9600096,6.9600096 0 0 1 -9.46224,0 c -0.92769,-1.11312 -2.04091,-3.432298 -2.04091,-10.297181 0,-6.864883 1.11322,-9.183859 2.04091,-10.297095 a 6.047424,6.047424 0 0 1 4.73106,-1.855353 m 0,-10.08 a 16.054171,16.054171 0 0 0 -12.47462,5.482166 c -3.06831,3.681994 -4.37735,8.691351 -4.37735,16.750282 0,8.059277 1.30913,13.068749 4.37739,16.750454 a 16.9344,16.9344 0 0 0 24.9493,-8.6e-5 c 3.06829,-3.681994 4.37734,-8.691379 4.37734,-16.750368 0,-8.058989 -1.30913,-13.068663 -4.37738,-16.750368 a 16.054315,16.054315 0 0 0 -12.47472,-5.48208 z" />
  <path
     style="fill:#ffffff;stroke-width:1.44000006"
     inkscape:connector-curvature="0"
     id="path11"
     d="m 296.38931,70.269325 v 6.667661 l -8.33457,2.803449 -8.56196,2.879194 a 8.3132928,8.3132928 0 0 1 -2.69255,0.458194 c -4.16696,0 -6.74185,-3.35425 -2.45968,-4.928559 l 4.16725,-1.439568 -0.0403,-0.01282 17.92183,-6.427613 m -7.9e-4,-10.08 a 10.073074,10.073074 0 0 0 -3.40213,0.59184 l -17.92187,6.427584 q -0.28224,0.101204 -0.55536,0.2178 l -3.45987,1.1952 q -0.0937,0.0324 -0.18693,0.06664 c -7.16988,2.635891 -9.49913,8.760124 -8.62692,13.660214 1.11481,6.26328 7.2402,10.809216 14.56479,10.809216 a 18.357394,18.357394 0 0 0 5.95843,-1.001923 l 8.50896,-2.861194 8.33533,-2.80368 a 10.08,10.08 0 0 0 6.86639,-9.553997 v -6.667646 a 10.080115,10.080115 0 0 0 -10.08079,-10.08 z" />
  <path
     style="fill:#de1528;stroke-width:1.44000006"
     inkscape:connector-curvature="0"
     id="path13"
     d="m 314.57353,103.87478 a 5.0286384,5.0286384 0 0 1 -1.55742,-0.24749 l -18.18492,-5.910471 a 5.0372352,5.0372352 0 0 1 -3.48192,-4.792507 v -5.356411 a 5.061384,5.061384 0 0 1 0.0759,-0.873274 V 83.29712 a 4.84848,4.84848 0 0 1 -0.0759,-0.853589 V 13.215243 a 5.0390496,5.0390496 0 0 1 6.32953,-4.8719515 l 23.18554,6.1368765 c 18.45216,4.990075 27.71017,15.160075 27.54212,30.235075 -0.20251,21.10922 -12.01992,24.262042 -19.04555,24.262042 a 33.099235,33.099235 0 0 1 -9.14906,-1.44563 4.9778928,4.9778928 0 0 1 -0.56251,-0.199685 l -0.004,3.483273 a 4.9817808,4.9817808 0 0 1 -0.031,0.552658 v 9.523123 c 0.013,0.14485 0.019,0.292507 0.019,0.440165 l -0.007,6.904685 c 0,0.111096 -0.004,0.220781 -0.0115,0.331877 v 10.267027 a 5.0388768,5.0388768 0 0 1 -5.0407,5.040002 z" />
  <path
     style="fill:#ffffff;stroke-width:1.44000006"
     inkscape:connector-curvature="0"
     id="path15"
     d="m 296.38931,13.215171 23.18544,6.13728 c 14.85079,4.015743 23.94308,11.744223 23.79155,25.306848 -0.12125,12.671352 -4.80189,19.27813 -14.00479,19.27813 A 27.982584,27.982584 0 0 1 321.6205,62.692347 V 31.47548 c 0.0398,-1.944259 -1.8737,-2.932603 -3.70565,-2.932603 -1.66622,0 -3.26513,0.81792 -3.26513,2.478038 l -0.0445,39.78841 -0.0312,-0.0096 v 10.531944 l 0.0196,-0.0066 -0.007,6.905491 -0.0115,-0.0037 v 10.304568 l 3.6e-4,6.91e-4 -3.6e-4,0.3024 -18.18456,-5.910004 v -5.35572 c 0.025,-0.0086 0.0508,-0.01511 0.0757,-0.02382 v -5.076547 l -0.0757,-0.02462 V 13.215171 m -8e-4,-10.0800859 A 10.08013,10.08013 0 0 0 286.30931,13.215171 v 69.177197 a 10.147867,10.147867 0 0 0 0.0758,1.238098 v 2.70144 a 10.114171,10.114171 0 0 0 -0.0758,1.236557 v 5.355806 a 10.08,10.08 0 0 0 6.96442,9.586401 l 18.18453,5.91002 a 10.08,10.08 0 0 0 13.19559,-9.574421 l 3.6e-4,-0.3024 -3.6e-4,-9.824918 q 0.0115,-0.237874 0.0115,-0.477245 l 0.007,-6.905477 q 3.9e-4,-0.321811 -0.0196,-0.640584 v -7.034112 a 32.749229,32.749229 0 0 0 4.70757,0.35591 c 5.58421,0 23.82438,-2.110147 24.08436,-29.261592 0.1355,-12.128832 -5.17417,-28.085572 -31.23998,-35.1339115 L 298.96871,3.4708067 a 10.075378,10.075378 0 0 0 -2.57895,-0.3357216 z" />
  <path
     style="fill:#f4cb0e;stroke-width:1.44000006"
     inkscape:connector-curvature="0"
     id="path17"
     d="m 282.11095,95.002765 a 52.92144,52.92144 0 0 1 -8.75808,-0.745315 l -2.3611,-0.36 c -10.62632,-1.603123 -21.61405,-3.261096 -22.13929,-11.801247 -0.4064,-6.595315 4.34812,-12.372192 12.40734,-15.077808 a 5.045904,5.045904 0 0 1 3.12048,-0.02814 l 15.15236,4.782657 c 0.14413,0.02953 0.28686,0.06751 0.4282,0.111096 a 5.0757408,5.0757408 0 0 1 3.51216,4.07952 l 2.97563,-0.999849 a 5.0343552,5.0343552 0 0 1 3.16054,-0.01686 l 8.33485,2.70288 a 5.1414624,5.1414624 0 0 1 3.56132,4.81922 v 5.076561 a 5.0410368,5.0410368 0 0 1 -3.4453,4.781247 c -0.0366,0.01267 -0.0802,0.02531 -0.12514,0.03937 a 48.530218,48.530218 0 0 1 -15.82327,2.636669 z" />
  <path
     style="fill:#ffffff;stroke-width:1.44000006"
     inkscape:connector-curvature="0"
     id="path19"
     d="m 262.86388,71.797424 15.56814,4.912287 0.0354,-0.01282 0.0403,0.01282 -4.16726,1.439582 c -4.28256,1.574424 -1.70784,4.928558 2.45968,4.928558 a 8.3161008,8.3161008 0 0 0 2.69257,-0.458193 l 8.56193,-2.879194 8.33458,2.703067 0.0757,0.0246 v 5.076576 c -0.0249,0.0086 -0.0508,0.01521 -0.0757,0.02382 a 43.35264,43.35264 0 0 1 -14.27675,2.394619 47.703456,47.703456 0 0 1 -7.92362,-0.675734 c -8.71344,-1.363896 -20.00304,-2.57616 -20.30611,-7.501118 -0.30232,-4.912748 4.22045,-8.392133 8.98105,-9.988863 m 0,-10.08 a 10.079093,10.079093 0 0 0 -3.20544,0.523224 c -10.16444,3.409171 -16.38068,11.324333 -15.83663,20.164795 0.27764,4.511708 2.75616,10.56384 12.98674,13.774176 a 93.206203,93.206203 0 0 0 13.43299,2.701829 c 0.79174,0.119419 1.57315,0.237255 2.33463,0.356242 a 58.020638,58.020638 0 0 0 9.53635,0.805453 53.584387,53.584387 0 0 0 17.43376,-2.90084 q 0.11894,-0.03832 0.23645,-0.0792 a 10.08,10.08 0 0 0 6.76224,-9.5184 v -5.076576 a 10.08,10.08 0 0 0 -6.96766,-9.58752 l -0.0757,-0.0246 -8.33721,-2.703902 a 10.079899,10.079899 0 0 0 -5.23613,-0.26483 10.060589,10.060589 0 0 0 -4.38336,-2.789165 q -0.32622,-0.103104 -0.65839,-0.183831 l -14.9895,-4.729694 a 10.07928,10.07928 0 0 0 -3.03318,-0.467179 z" />
  <path
     style="fill:#f4cb0e;stroke-width:1.44000006"
     inkscape:connector-curvature="0"
     id="path21"
     d="m 314.72611,103.87619 a 5.0418864,5.0418864 0 0 1 -4.50843,-2.78719 l -0.1512,-0.3024 a 5.0412384,5.0412384 0 0 1 -0.53227,-2.254222 V 88.226024 a 5.0404752,5.0404752 0 0 1 6.63468,-4.781246 l 15.98695,5.052657 a 5.0394816,5.0394816 0 0 1 0.13637,9.565316 l -15.91172,5.532189 a 5.0285952,5.0285952 0 0 1 -1.65442,0.28125 z" />
  <path
     style="fill:#ffffff;stroke-width:1.44000006"
     inkscape:connector-curvature="0"
     id="path23"
     d="m 314.57388,88.226658 0.0115,0.0037 16.0512,5.072774 -15.91145,5.531127 -0.1512,-0.3024 -3.6e-4,-6.92e-4 V 88.226629 m 0.009,-10.076774 a 10.086062,10.086062 0 0 0 -10.0884,10.076774 v 10.304554 a 10.08,10.08 0 0 0 1.06503,4.509617 l 0.15163,0.30312 a 10.073002,10.073002 0 0 0 12.3247,5.01152 l 15.91155,-5.5311 a 10.08,10.08 0 0 0 -0.27216,-19.132559 l -16.05124,-5.072774 a 10.08841,10.08841 0 0 0 -3.04102,-0.469124 z" />
  <path
     style="fill:#4177b3;stroke-width:1.44000006"
     inkscape:connector-curvature="0"
     id="path25"
     d="m 296.38931,70.15712 a 5.023728,5.023728 0 0 1 -1.47168,-0.219369 l -7.1979,-2.197973 a 5.0407344,5.0407344 0 0 1 -0.13708,-9.5976 l 7.19788,-2.42437 a 5.0404608,5.0404608 0 0 1 6.64875,4.777027 v 4.6224 a 5.0386752,5.0386752 0 0 1 -5.04,5.04 z" />
  <path
     style="fill:#ffffff;stroke-width:1.44000006"
     inkscape:connector-curvature="0"
     id="path27"
     d="m 296.38931,60.495123 v 4.621882 l -7.19807,-2.197282 7.19807,-2.424643 m -7.6e-4,-10.080072 a 10.073362,10.073362 0 0 0 -3.21696,0.527443 l -7.19806,2.424658 a 10.08,10.08 0 0 0 0.27478,19.193443 l 7.19807,2.197282 a 10.08,10.08 0 0 0 13.02298,-9.6408 V 60.495123 A 10.080158,10.080158 0 0 0 296.38859,50.415051 Z" />
  <path
     style="fill:#4177b3;stroke-width:1.44000006"
     inkscape:connector-curvature="0"
     id="path29"
     d="m 357.00502,89.023381 a 5.0623488,5.0623488 0 0 1 -1.52298,-0.23485 l -16.97202,-5.378904 a 5.04468,5.04468 0 0 1 -3.41508,-3.789849 l -2.62548,0.881726 a 5.0368608,5.0368608 0 0 1 -3.09024,0.03937 l -16.21477,-5.000631 a 5.04,5.04 0 0 1 -0.25664,-9.545616 l 1.44,-0.530164 c 10.00336,-3.365151 18.16524,-4.90922 25.82297,-4.90922 1.32192,0 2.64727,0.04782 3.93891,0.140631 10.62,0.802973 24.98485,3.029069 27.27985,13.073904 0.53712,2.25563 1.26422,10.136246 -12.42704,14.897822 -0.14055,0.04922 -0.28266,0.0914 -0.4275,0.127959 l -0.3024,0.07595 a 5.0436,5.0436 0 0 1 -1.22758,0.151877 z" />
  <path
     style="fill:#ffffff;stroke-width:1.44000006"
     inkscape:connector-curvature="0"
     id="path31"
     d="m 340.17063,65.595171 q 1.78328,0 3.57442,0.128045 c 13.03225,0.98496 21.51844,3.864211 22.7307,9.168048 0.75772,3.182271 -2.19726,6.591874 -9.16804,9.016531 l -0.30305,0.07574 -16.97229,-5.37958 4.69767,-1.5912 c 7.5774,-2.424744 6.57167,-4.994684 0.78314,-4.994684 a 29.213784,29.213784 0 0 0 -5.17776,0.524319 l -9.4711,3.1824 -16.21467,-5.000861 1.43964,-0.530323 a 75.977986,75.977986 0 0 1 24.08134,-4.598439 m 0,-10.08 c -8.22112,0 -16.89368,1.628108 -27.29303,5.123765 q -0.13709,0.04608 -0.27269,0.09602 l -1.43963,0.530324 a 10.08,10.08 0 0 0 0.51366,19.090929 l 16.21463,5.000803 a 10.07987,10.07987 0 0 0 4.89956,0.261447 10.059206,10.059206 0 0 0 4.19361,2.594347 l 16.97225,5.379595 a 10.080331,10.080331 0 0 0 5.49018,0.170237 l 0.30309,-0.07576 q 0.43906,-0.1098 0.867,-0.258581 C 374.6317,88.554339 377.90453,79.489554 376.29419,72.60981 373.23481,59.351946 356.68905,56.59279 344.50475,55.671867 c -1.44242,-0.104731 -2.89045,-0.156701 -4.3341,-0.156701 z m 5.96456,26.611661 z" />
  <path
     style="fill:#1ba0a5;stroke-width:1.44000006"
     inkscape:connector-curvature="0"
     id="path33"
     d="m 296.38866,87.432901 a 5.049504,5.049504 0 0 1 -1.52784,-0.2376 l -8.33485,-2.652178 a 5.0398992,5.0398992 0 0 1 -0.0788,-9.579384 l 8.33485,-2.804054 a 5.040936,5.040936 0 0 1 6.64734,4.777027 v 5.456247 a 5.0401152,5.0401152 0 0 1 -5.04071,5.04 z" />
  <path
     style="fill:#ffffff;stroke-width:1.44000006"
     inkscape:connector-curvature="0"
     id="path35"
     d="m 296.38931,76.937015 v 5.455353 l -8.33457,-2.651904 8.33457,-2.803449 m -7.5e-4,-10.080072 a 10.072325,10.072325 0 0 0 -3.21285,0.526075 l -8.33459,2.803435 a 10.08,10.08 0 0 0 0.15735,19.159488 l 8.33456,2.651904 a 10.08,10.08 0 0 0 13.13628,-9.605477 V 76.937015 A 10.080115,10.080115 0 0 0 296.38856,66.856943 Z" />
  <path
     style="fill:#1ba0a5;stroke-width:1.44000006"
     inkscape:connector-curvature="0"
     id="path37"
     d="m 330.63712,98.3426 a 5.0434704,5.0434704 0 0 1 -1.52508,-0.236261 l -15.9877,-5.076561 a 5.0399136,5.0399136 0 0 1 -3.51492,-4.803754 V 87.3176 a 5.04036,5.04036 0 0 1 3.40805,-4.768603 l 25.23168,-8.63712 a 5.0458896,5.0458896 0 0 1 3.12257,-0.04641 l 17.12391,5.302973 a 5.0402592,5.0402592 0 0 1 0.18843,9.566712 l -26.36718,9.319219 a 5.0261616,5.0261616 0 0 1 -1.67976,0.288229 z" />
  <path
     style="fill:#ffffff;stroke-width:1.44000006"
     inkscape:connector-curvature="0"
     id="path39"
     d="m 339.88084,78.679703 17.12382,5.303851 -26.36771,9.31968 -15.9873,-5.076576 v -0.909173 l 25.23119,-8.637725 m 0,-10.08 a 10.079755,10.079755 0 0 0 -3.26487,0.543355 l -25.23115,8.637668 a 10.08,10.08 0 0 0 -6.81517,9.536702 v 0.909202 a 10.08,10.08 0 0 0 7.02933,9.607291 l 15.98728,5.076572 a 10.080202,10.080202 0 0 0 6.40982,-0.10346 l 26.36772,-9.31968 a 10.08,10.08 0 0 0 -0.37679,-19.132531 l -17.12379,-5.30388 a 10.078906,10.078906 0 0 0 -2.98231,-0.451296 z" />
  <path
     style="fill:#1ba0a5;stroke-width:1.44000006"
     inkscape:connector-curvature="0"
     id="path41"
     d="m 314.5876,86.365559 a 5.049072,5.049072 0 0 1 -5.05336,-5.03437 V 70.799778 a 5.0398992,5.0398992 0 0 1 6.56928,-4.8024 l 16.16976,4.986561 a 5.04,5.04 0 0 1 0.14198,9.586412 c 0,0 -16.32375,5.567342 -16.38844,5.587027 a 5.040504,5.040504 0 0 1 -1.43928,0.208181 z" />
  <path
     style="fill:#ffffff;stroke-width:1.44000006"
     inkscape:connector-curvature="0"
     id="path43"
     d="m 314.57388,70.799691 0.0312,0.0096 16.1834,4.991127 -16.19507,5.524445 -0.0196,0.0066 v -10.53193 m 0.0215,-10.071562 A 10.096085,10.096085 0 0 0 304.4939,70.799533 v 10.53193 a 10.07977,10.07977 0 0 0 13.33055,9.54144 l 16.21846,-5.53248 a 10.08,10.08 0 0 0 -0.28368,-19.172506 l -16.18342,-4.99104 a 10.111896,10.111896 0 0 0 -2.98059,-0.448934 z" />
  <path
     style="fill:#1ba0a5;stroke-width:1.44000006"
     inkscape:connector-curvature="0"
     id="path45"
     d="m 278.4189,81.744685 a 4.9899024,4.9899024 0 0 1 -1.50328,-0.227808 l -15.56859,-4.913438 a 5.0465808,5.0465808 0 0 1 0.54563,-9.772042 L 287.5771,58.145 a 5.0406336,5.0406336 0 0 1 3.08602,-0.04641 l 7.19789,2.197973 a 5.0418,5.0418 0 0 1 3.56832,4.820616 v 5.152507 a 5.0409936,5.0409936 0 0 1 -3.33844,4.744685 l -17.92197,6.427915 a 5.2205184,5.2205184 0 0 1 -1.75002,0.302399 z" />
  <path
     style="fill:#ffffff;stroke-width:1.44000006"
     inkscape:connector-curvature="0"
     id="path47"
     d="m 289.19124,62.919767 7.19807,2.197267 v 5.15232 l -17.92186,6.427613 -0.0354,0.01282 -15.56814,-4.912301 -0.0403,-0.01267 a 3.2783184,3.2783184 0 0 0 0.37881,-0.07586 L 289.19123,62.9198 m 0,-10.08 a 10.078445,10.078445 0 0 0 -3.2293,0.531274 l -25.39412,8.588016 a 10.080922,10.080922 0 0 0 -0.76408,19.442664 l 15.5952,4.920768 a 10.08,10.08 0 0 0 6.44884,-0.129139 l 17.94456,-6.435821 a 10.08,10.08 0 0 0 6.67708,-9.48816 V 65.11701 a 10.08,10.08 0 0 0 -7.13708,-9.6408 l -7.19807,-2.197267 a 10.080216,10.080216 0 0 0 -2.9429,-0.4392 z" />
  <path
     inkscape:connector-curvature="0"
     id="path49"
     d="m 391.11163,84.081736 a 5.0402448,5.0402448 0 0 1 -5.04,-5.04 V 36.64612 a 5.0402448,5.0402448 0 0 1 5.04,-5.04 h 14.37892 a 27.451771,27.451771 0 0 1 10.01742,1.773274 c 4.92961,2.264068 8.01,8.177342 8.01,15.41952 0,5.373288 -0.59485,10.939219 -4.90781,15.252192 -3.06422,3.062808 -8.06832,3.521246 -10.77821,3.521246 l -5.09344,-0.0042 v 11.473589 a 5.0402448,5.0402448 0 0 1 -5.04,5.04 z m 14.65736,-30.396082 c 0.0978,0 0.18144,-0.0029 0.25312,-0.0056 a 26.662234,26.662234 0 0 0 0.27281,-4.13856 11.85277,11.85277 0 0 0 -0.41344,-3.483288 9.04752,9.04752 0 0 0 -2.08617,-0.289684 h -1.0568 v 7.917192 z"
     style="stroke-width:1.44000006" />
  <path
     style="fill:#ffffff;stroke-width:1.44000006"
     inkscape:connector-curvature="0"
     id="path51"
     d="m 405.49064,36.646451 a 23.877,23.877 0 0 1 7.88531,1.298765 c 3.43238,1.577131 5.10212,6.215458 5.10212,10.853784 0,5.102251 -0.64932,8.905723 -3.4324,11.688667 -1.90837,1.908461 -6.06604,2.044714 -7.21474,2.044714 -0.19138,0 -0.29937,-0.0037 -0.29937,-0.0037 h -5.84428 V 58.72515 h 4.08174 a 4.8638736,4.8638736 0 0 0 4.63834,-2.319148 c 0.74215,-1.206029 0.92768,-4.638356 0.92768,-6.864783 0,-2.13372 -0.27824,-5.194944 -1.577,-6.864811 -1.48431,-1.948075 -5.93712,-1.948075 -5.93712,-1.948075 h -6.12264 v 38.312798 h -6.58656 v -42.39468 h 14.37886 m 0,-10.08 h -14.3788 a 10.08,10.08 0 0 0 -10.08,10.08 v 42.39468 a 10.08,10.08 0 0 0 10.08,10.08 h 6.58656 a 10.08,10.08 0 0 0 10.08,-10.08 v -6.428808 h 0.0527 c 4.26335,0 10.21241,-0.866981 14.34252,-4.997189 5.62608,-5.62582 6.38463,-12.668731 6.38463,-18.816192 0,-9.234446 -4.2048,-16.903036 -10.97355,-20.01312 a 31.95311,31.95311 0 0 0 -12.09389,-2.219371 z" />
  <rect
     id="rect53"
     rx="5.04"
     height="52.475632"
     width="16.666172"
     y="31.606125"
     x="418.72623"
     style="stroke-width:1.44000006" />
  <path
     style="fill:#ffffff;stroke-width:1.44000006"
     inkscape:connector-curvature="0"
     id="path55"
     d="m 430.35235,36.646451 v 42.39468 h -6.58656 v -42.39468 h 6.58656 m 0,-10.08 h -6.58656 a 10.08,10.08 0 0 0 -10.08,10.08 v 42.39468 a 10.08,10.08 0 0 0 10.08,10.08 h 6.58656 a 10.08,10.08 0 0 0 10.08,-10.08 v -42.39468 a 10.08,10.08 0 0 0 -10.08,-10.08 z" />
  <path
     inkscape:connector-curvature="0"
     id="path57"
     d="m 470.79893,100.4083 a 5.03964,5.03964 0 0 1 -4.66734,-6.942646 l 6.20578,-15.224068 -11.44054,-29.865932 a 5.0401584,5.0401584 0 0 1 4.70671,-6.84288 h 7.79273 a 5.0392656,5.0392656 0 0 1 4.77216,3.41856 l 3.48258,10.247343 3.80461,-10.362658 a 5.0403456,5.0403456 0 0 1 4.73133,-3.30336 h 6.12288 a 5.0395968,5.0395968 0 0 1 4.66243,6.953904 l -20.0376,48.79548 a 5.0406192,5.0406192 0 0 1 -4.66243,3.126077 z"
     style="stroke-width:1.44000006" />
  <path
     style="fill:#ffffff;stroke-width:1.44000006"
     inkscape:connector-curvature="0"
     id="path59"
     d="m 496.3099,46.572674 h 0.007 m -0.007,0 -20.03778,48.795465 h -5.47328 L 477.75643,78.29897 465.60391,46.572674 h 7.79248 l 8.07072,23.748393 8.72007,-23.748393 h 6.12273 m 0.007,-10.08 h -6.12993 a 10.081613,10.081613 0 0 0 -8.39535,4.5 10.080965,10.080965 0 0 0 -8.39544,-4.5 h -7.79248 a 10.08,10.08 0 0 0 -9.41306,13.685601 l 10.72731,28.005538 -5.45366,13.37963 a 10.08,10.08 0 0 0 9.33434,13.884697 h 5.47328 a 10.08,10.08 0 0 0 9.32444,-6.25094 L 505.51108,50.701758 A 10.083888,10.083888 0 0 0 496.3171,36.492616 Z m -0.007,20.16 z" />
  <path
     inkscape:connector-curvature="0"
     id="path61"
     d="m 501.04246,83.80049 a 5.04144,5.04144 0 0 1 -4.8558,-5.03712 v -3.98952 a 5.041296,5.041296 0 0 1 5.04,-5.04 c 0.0668,0 0.13435,0.0014 0.2018,0.0042 2.75625,0.109684 7.22532,0.274219 8.23993,0.274219 a 9.6059808,9.6059808 0 0 0 1.98985,-0.171562 14.136826,14.136826 0 0 0 0.39234,-2.240165 17.769226,17.769226 0 0 0 -0.21168,-2.252808 c -0.25242,-0.02532 -0.52171,-0.05485 -0.8064,-0.08578 -1.03782,-0.112508 -2.21414,-0.24048 -3.52266,-0.295316 a 13.761662,13.761662 0 0 1 -9.69187,-4.687027 c -1.67696,-2.008123 -3.394,-4.935945 -3.394,-11.387822 0,-7.398274 2.31539,-11.268274 4.25808,-13.211712 a 13.716274,13.716274 0 0 1 7.60571,-3.625315 42.13836,42.13836 0 0 1 5.5139,-0.355781 c 0.0507,0 9.42822,0.281246 9.42822,0.281246 a 5.039136,5.039136 0 0 1 4.8888,5.03712 v 3.989535 a 5.0399136,5.0399136 0 0 1 -5.04,5.04 q -0.1034,0 -0.20673,-0.0042 c -2.68101,-0.109685 -7.03688,-0.27422 -8.04937,-0.27422 a 8.4956832,8.4956832 0 0 0 -1.43712,0.08859 4.38624,4.38624 0 0 0 -0.20249,0.998439 18.025099,18.025099 0 0 0 0.14483,2.093904 c 0.23485,0.02531 0.49993,0.05344 0.77978,0.08438 1.0378,0.112492 2.21483,0.24048 3.52265,0.2953 a 13.772592,13.772592 0 0 1 9.69187,4.685631 c 2.25216,2.704219 3.39399,6.754219 3.39399,12.038904 0,6.129849 -1.59264,11.380781 -4.26024,14.047041 a 13.700448,13.700448 0 0 1 -7.60218,3.625301 51.936595,51.936595 0 0 1 -5.3529,0.444384 c -0.0541,0.0014 -0.10828,0.0029 -0.16241,0.0029 -0.0612,-7.2e-5 -10.2959,-0.372729 -10.2959,-0.372729 z"
     style="stroke-width:1.44000006" />
  <path
     style="fill:#ffffff;stroke-width:1.44000006"
     inkscape:connector-curvature="0"
     id="path63"
     d="m 511.80199,36.739288 9.27671,0.278251 v 3.989002 c 0,0 -6.77197,-0.278338 -8.25626,-0.278338 -3.24684,0 -4.17456,0.64944 -5.38048,1.94809 a 7.4336544,7.4336544 0 0 0 -1.29875,4.17456 16.816075,16.816075 0 0 0 0.64944,4.824 4.01616,4.01616 0 0 0 3.33958,2.226369 c 1.20597,0.09281 3.06132,0.37116 5.28776,0.463882 a 8.5721616,8.5721616 0 0 1 6.02983,2.87581 c 0.92768,1.113206 2.22644,3.617899 2.22644,8.8128 0,5.287766 -1.39148,9.091137 -2.78303,10.482624 a 9.094536,9.094536 0 0 1 -4.91662,2.226456 c -1.76265,0.278251 -4.63841,0.371073 -4.63841,0.371073 L 501.22652,78.76288 v -3.98903 c 0,0 6.9576,0.27828 8.4419,0.27828 3.24685,0 4.82387,-0.64934 6.0298,-1.948018 0.74217,-0.742133 1.39151,-4.267253 1.39151,-5.473282 a 18.182376,18.182376 0 0 0 -0.74215,-5.009529 4.1584896,4.1584896 0 0 0 -3.33959,-2.226442 c -1.20597,-0.09271 -3.06131,-0.371073 -5.28776,-0.463809 a 8.57232,8.57232 0 0 1 -6.02982,-2.875767 c -0.92769,-1.113206 -2.22645,-2.875766 -2.22645,-8.163446 0,-5.28768 1.39148,-8.256355 2.78304,-9.647856 a 9.0946224,9.0946224 0 0 1 4.91662,-2.226442 38.399112,38.399112 0 0 1 4.6384,-0.278251 m 0,-10.08 a 45.415541,45.415541 0 0 0 -6.21017,0.401544 q -0.0903,0.01426 -0.18043,0.03015 a 18.80051,18.80051 0 0 0 -10.29204,5.025355 c -2.6164,2.616278 -5.73542,7.650547 -5.73542,16.775496 0,8.102246 2.43847,12.067344 4.56283,14.616576 a 17.465256,17.465256 0 0 0 2.47089,2.406413 10.08059,10.08059 0 0 0 -5.27116,8.859024 v 3.989016 a 10.08,10.08 0 0 0 9.71045,10.073217 l 10.11168,0.370987 q 0.18472,0.0072 0.36958,0.0072 0.16262,0 0.32515,-0.0058 a 55.841098,55.841098 0 0 0 5.88502,-0.489124 q 0.0903,-0.0144 0.18027,-0.0301 a 18.800222,18.800222 0 0 0 10.29222,-5.025399 c 3.64488,-3.644726 5.7354,-10.063469 5.7354,-17.610264 0,-6.496617 -1.53517,-11.632838 -4.56281,-15.265987 a 17.074886,17.074886 0 0 0 -1.84921,-1.88496 q 0.37008,-0.293659 0.71424,-0.623707 a 10.08,10.08 0 0 0 3.10032,-7.272519 v -3.988987 a 10.08,10.08 0 0 0 -9.77778,-10.075478 l -9.27669,-0.278237 q -0.15109,-0.0046 -0.30224,-0.0046 z" />
  <path
     inkscape:connector-curvature="0"
     id="path65"
     d="m 536.38503,83.988928 c -5.89359,0 -9.6624,-3.761712 -10.33876,-7.477027 q -0.0359,-0.200405 -0.0563,-0.400781 c -0.0978,-0.971726 -0.2932,-3.981096 -0.2932,-3.981096 -0.007,-0.109685 -0.0101,-0.21515 -0.0101,-0.32485 V 40.728462 a 5.0402448,5.0402448 0 0 1 5.04,-5.04 h 6.58688 a 5.0396544,5.0396544 0 0 1 5.03931,5.121562 l -0.0101,0.63 h 2.39202 a 5.0402448,5.0402448 0 0 1 5.04,5.04 v 3.988123 a 5.0402448,5.0402448 0 0 1 -5.04,5.04 h -2.47429 v 13.328439 c 0,0.0071 10e-4,0.426096 0.0253,1.029369 0.41132,-0.01827 0.70383,-0.03234 0.71297,-0.03374 0.0844,-0.0042 0.16804,-0.0056 0.25172,-0.0056 a 5.0398848,5.0398848 0 0 1 5.04,5.04 v 3.989534 a 5.04108,5.04108 0 0 1 -4.9718,5.04 c 0,0 -6.91101,0.09281 -6.93352,0.09281 z"
     style="stroke-width:1.44000006" />
  <path
     style="fill:#ffffff;stroke-width:1.44000006"
     inkscape:connector-curvature="0"
     id="path67"
     d="m 537.31298,40.728304 h 0.007 m -0.007,0 -0.0929,5.751533 h 7.5142 v 3.989016 h -7.5142 v 18.36792 a 34.551533,34.551533 0 0 0 0.27835,4.17456 c 0.27825,1.855281 1.66982,1.948017 2.78304,1.948017 1.11322,0 2.96852,-0.09274 2.96852,-0.09274 v 3.989045 l -6.86478,0.09269 c -3.80347,0 -5.19496,-2.319149 -5.38048,-3.339562 -0.0927,-0.927691 -0.2782,-3.803371 -0.2782,-3.803371 V 40.728304 h 6.58643 m 0.007,-10.08 h -6.59363 a 10.08,10.08 0 0 0 -10.08,10.08 v 31.077115 q 0,0.324619 0.0209,0.648749 c 0.0328,0.509846 0.20223,3.106584 0.30744,4.158144 q 0.0403,0.401918 0.11246,0.799531 c 1.04953,5.772658 6.64128,11.61648 15.29793,11.61648 q 0.068,0 0.13608,-9.21e-4 l 6.86478,-0.09274 a 10.08,10.08 0 0 0 9.94396,-10.079007 v -3.989073 a 10.080547,10.080547 0 0 0 -6.02996,-9.23017 v -5.417021 a 10.083773,10.083773 0 0 0 7.51426,-9.750542 v -3.989016 a 10.08288,10.08288 0 0 0 -8.31986,-9.926842 10.076314,10.076314 0 0 0 -9.17433,-5.904691 z" />
  <rect
     id="rect69"
     rx="5.04"
     height="42.548904"
     width="16.666876"
     y="41.532837"
     x="596.18927"
     style="stroke-width:1.44000006" />
  <path
     style="fill:#ffffff;stroke-width:1.44000006"
     inkscape:connector-curvature="0"
     id="path71"
     d="m 607.81611,46.572573 v 32.468544 h -6.58656 V 46.572573 h 6.58656 m 0,-10.08 h -6.58656 a 10.08,10.08 0 0 0 -10.08,10.08 v 32.468544 a 10.08,10.08 0 0 0 10.08,10.08 h 6.58656 a 10.08,10.08 0 0 0 10.08,-10.08 V 46.572573 a 10.08,10.08 0 0 0 -10.08,-10.08 z" />
  <rect
     id="rect73"
     rx="5.04"
     height="16.017191"
     width="16.666876"
     y="31.606125"
     x="596.18927"
     style="stroke-width:1.44000006" />
  <path
     style="fill:#ffffff;stroke-width:1.44000006"
     inkscape:connector-curvature="0"
     id="path75"
     d="m 607.81611,36.646466 v 5.937192 h -6.58656 v -5.937192 h 6.58656 m 0,-10.08 h -6.58656 a 10.08,10.08 0 0 0 -10.08,10.08 v 5.937192 a 10.08,10.08 0 0 0 10.08,10.08 h 6.58656 a 10.08,10.08 0 0 0 10.08,-10.08 v -5.937192 a 10.08,10.08 0 0 0 -10.08,-10.08 z" />
  <path
     inkscape:connector-curvature="0"
     id="path77"
     d="m 628.78198,84.358778 c -5.38032,0 -9.9914,-1.255781 -12.9825,-3.536727 -4.23,-3.382027 -6.15797,-9.082973 -6.15797,-18.015465 0,-8.928288 1.92656,-14.630631 6.06376,-17.9424 2.91093,-2.355466 7.44048,-3.60985 13.07671,-3.60985 5.46192,0 10.07156,1.281096 12.98109,3.608438 4.14422,3.315946 6.15939,9.185631 6.15939,17.943754 0,9.043589 -1.98704,14.76985 -6.255,18.018288 -2.81103,2.251483 -7.4208,3.533962 -12.88548,3.533962 z m -0.72562,-14.574384 a 3.142944,3.142944 0 0 0 1.82249,0 c 0.18563,-0.376877 0.81985,-2.022178 0.81985,-6.977808 0,-4.947192 -0.63282,-6.596712 -0.82124,-6.977808 a 3.1382352,3.1382352 0 0 0 -1.8211,0 c -0.18704,0.376876 -0.82126,2.025 -0.82126,6.977808 0,4.94015 0.63,6.589713 0.82133,6.977808 z"
     style="stroke-width:1.44000006" />
  <path
     style="fill:#ffffff;stroke-width:1.44000006"
     inkscape:connector-curvature="0"
     id="path79"
     d="m 628.78146,46.294379 c 4.5456,0 7.978,1.020413 9.83337,2.504707 1.85537,1.484295 4.26727,4.731149 4.26727,14.007831 0,9.276681 -2.31917,12.52368 -4.26727,14.00783 -1.85537,1.484295 -5.38049,2.504707 -9.83337,2.504707 -4.54553,0 -7.97793,-1.020412 -9.92611,-2.504707 -1.85528,-1.484208 -4.17446,-4.731062 -4.17446,-14.00783 0,-9.276768 2.31918,-12.523536 4.17446,-14.007831 1.94818,-1.57703 5.38058,-2.504707 9.92611,-2.504707 m 0.18553,28.664986 a 6.047424,6.047424 0 0 0 4.73115,-1.855267 c 0.92769,-1.113236 2.04091,-3.432384 2.04091,-10.297181 0,-6.864797 -1.11322,-9.183946 -2.04091,-10.297095 a 6.9597792,6.9597792 0 0 0 -9.46224,0 c -0.92769,1.113236 -2.04091,3.432384 -2.04091,10.297095 0,6.86471 1.11322,9.184032 2.04091,10.297181 a 6.0473808,6.0473808 0 0 0 4.73106,1.855267 m -0.1855,-38.744986 c -6.90126,0 -12.37466,1.598112 -16.2683,4.749955 -5.30938,4.247568 -7.91227,11.404167 -7.91227,21.842583 0,10.438646 2.60298,17.59536 7.95754,21.878985 q 0.0932,0.07456 0.18808,0.14688 c 3.92124,2.987568 9.46604,4.566701 16.03495,4.566701 6.54468,0 12.2306,-1.644725 16.03019,-4.63415 5.48411,-4.232679 8.1504,-11.417098 8.1504,-21.958387 0,-10.388708 -2.63328,-17.545392 -8.05037,-21.879015 -3.85445,-3.083587 -9.43226,-4.713523 -16.13026,-4.713523 z" />
  <path
     inkscape:connector-curvature="0"
     id="path81"
     d="m 649.83916,84.081736 a 5.0407056,5.0407056 0 0 1 -5.04,-5.04 V 46.85127 a 5.0392512,5.0392512 0 0 1 4.94579,-5.03856 l 14.76985,-0.277027 c 0.13219,-0.0056 0.37686,-0.01411 0.71156,-0.01411 2.45249,0 7.0664,0.397973 10.3964,3.064219 3.37782,2.570631 5.13844,6.667028 5.13844,12.097973 v 22.265122 a 5.0406912,5.0406912 0 0 1 -5.04,5.04 h -6.58547 a 5.0406912,5.0406912 0 0 1 -5.04,-5.04 V 57.240654 a 3.3779808,3.3779808 0 0 0 -0.16593,-1.25856 3.9882096,3.9882096 0 0 0 -0.8297,-0.101246 l -1.55671,0.0661 -0.0773,23.111712 a 5.0398272,5.0398272 0 0 1 -5.04,5.023123 z"
     style="stroke-width:1.44000006" />
  <path
     style="fill:#ffffff;stroke-width:1.44000006"
     inkscape:connector-curvature="0"
     id="path83"
     d="m 665.22587,46.561514 c 1.37176,0 5.02282,0.178243 7.24896,1.95922 1.94818,1.484338 3.24686,3.989031 3.24686,8.163562 v 22.264099 h -6.58638 V 57.240842 a 6.866568,6.866568 0 0 0 -1.48431,-4.731077 6.0941664,6.0941664 0 0 0 -4.63834,-1.669853 l -6.4937,0.278352 -0.0927,27.922954 H 649.8397 V 46.850925 l 14.84278,-0.27828 c 0,0 0.20031,-0.01109 0.54339,-0.01109 m 0,-10.08 c -0.38553,0 -0.68224,0.0082 -0.87042,0.01549 l -14.70468,0.275674 a 10.08,10.08 0 0 0 -9.89107,10.078257 v 32.190279 a 10.08,10.08 0 0 0 10.08,10.08 h 6.58656 a 10.040213,10.040213 0 0 0 6.41163,-2.30161 10.037765,10.037765 0 0 0 6.29745,2.208787 h 6.58643 a 10.08,10.08 0 0 0 10.08,-10.08 V 56.684296 c 0,-8.748 -3.85379,-13.583822 -7.12754,-16.11216 -4.51999,-3.55716 -10.35733,-4.090651 -13.44832,-4.090651 z" />
  <path
     inkscape:connector-curvature="0"
     id="path85"
     d="m 587.12885,83.988928 c -5.89358,0 -9.6624,-3.761712 -10.33875,-7.477027 -0.0239,-0.133603 -0.0436,-0.267192 -0.0563,-0.400781 -0.0971,-0.971726 -0.29391,-3.981096 -0.29391,-3.981096 -0.007,-0.109685 -0.0101,-0.21515 -0.0101,-0.32485 V 40.728462 a 5.0407056,5.0407056 0 0 1 5.04,-5.04 h 6.49407 a 5.0406912,5.0406912 0 0 1 5.04,5.04 v 0.711562 h 2.38078 a 5.0406912,5.0406912 0 0 1 5.04,5.04 v 3.988123 a 5.0406912,5.0406912 0 0 1 -5.04,5.04 h -2.38078 v 13.328439 c 0,0.0071 10e-4,0.426096 0.0254,1.029369 0.4176,-0.01827 0.71297,-0.03374 0.71297,-0.03374 0.0858,-0.0042 0.17156,-0.0056 0.25593,-0.0056 a 5.0350608,5.0350608 0 0 1 5.03578,5.04 v 3.989534 a 5.041224,5.041224 0 0 1 -4.97251,5.04 c 0,0 -6.9103,0.09281 -6.9328,0.09281 z"
     style="stroke-width:1.44000006" />
  <path
     style="fill:#ffffff;stroke-width:1.44000006"
     inkscape:connector-curvature="0"
     id="path87"
     d="m 587.96395,40.728304 v 5.751533 h 7.4213 v 3.989016 h -7.4213 v 18.36792 a 34.563888,34.563888 0 0 0 0.27825,4.17456 c 0.27827,1.855281 1.66976,1.948017 2.78298,1.948017 1.11322,0 2.96859,-0.09274 2.96859,-0.09274 v 3.989045 l -6.86479,0.09269 c -3.80337,0 -5.19494,-2.319149 -5.38048,-3.339562 -0.0927,-0.927691 -0.27826,-3.803371 -0.27826,-3.803371 V 40.728304 h 6.49371 m 0,-10.08 h -6.49371 a 10.08,10.08 0 0 0 -10.08,10.08 v 31.077115 q 0,0.324763 0.0209,0.649051 c 0.033,0.50976 0.20228,3.105778 0.30727,4.156589 q 0.0403,0.402595 0.11275,0.801058 c 1.04968,5.772542 6.64146,11.616235 15.29789,11.616235 q 0.068,0 0.13608,-9.22e-4 l 6.86478,-0.09274 a 10.08,10.08 0 0 0 9.94389,-10.079064 v -3.989073 a 10.08049,10.08049 0 0 0 -6.02986,-9.230112 v -5.441947 a 10.084032,10.084032 0 0 0 7.4213,-9.725674 v -3.988987 a 10.082477,10.082477 0 0 0 -8.32439,-9.927634 10.081814,10.081814 0 0 0 -9.17688,-5.903899 z" />
  <path
     inkscape:connector-curvature="0"
     id="path89"
     d="m 449.46261,83.89612 a 34.894512,34.894512 0 0 1 -10.44773,-1.454069 c -4.76579,-1.906877 -7.57969,-6.880781 -7.57969,-13.327027 0,-5.432342 1.76062,-9.527342 5.23266,-12.172507 a 11.005085,11.005085 0 0 1 1.91881,-1.226247 5.0424336,5.0424336 0 0 1 -2.97702,-4.598438 v -4.35937 a 5.040864,5.040864 0 0 1 4.90641,-5.03856 l 10.47312,-0.278438 c -0.006,0 0.16522,-0.0056 0.44928,-0.0056 2.48343,0 7.15641,0.388123 10.55249,2.992493 3.49946,2.830781 5.2207,6.896261 5.2207,12.162657 v 21.986741 a 5.0397696,5.0397696 0 0 1 -4.9296,5.03856 c 0,0 -12.78288,0.279821 -12.81943,0.279821 z m -0.84727,-14.134219 a 13.30249,13.30249 0 0 0 1.97156,0.150465 l -0.0232,-2.15856 h -1.19391 a 6.0449904,6.0449904 0 0 0 -0.75656,0.03937 6.02352,6.02352 0 0 0 -0.0478,0.857808 10.282133,10.282133 0 0 0 0.05,1.110917 z"
     style="stroke-width:1.44000006" />
  <path
     style="fill:#ffffff;stroke-width:1.44000006"
     inkscape:connector-curvature="0"
     id="path91"
     d="m 451.43848,46.475819 c 1.12933,0 5.11554,0.134741 7.48617,1.952165 1.94807,1.577117 3.24685,3.98903 3.24685,8.163562 v 21.985776 l -12.70915,0.278265 a 32.141981,32.141981 0 0 1 -8.62737,-1.113235 c -2.78293,-1.113206 -4.36006,-4.267267 -4.36006,-8.627328 0,-4.17456 1.29878,-6.679238 3.24685,-8.163446 2.22643,-1.781151 5.87761,-1.959264 7.24912,-1.95925 0.34291,0 0.54335,0.01109 0.54335,0.01109 h 4.0818 v 3.71065 h -2.22643 a 5.4278352,5.4278352 0 0 0 -4.45279,1.577116 5.8559616,5.8559616 0 0 0 -1.39158,4.360004 c 0,2.875766 0.55659,4.267353 1.94819,5.194944 1.20595,0.927676 3.33959,1.113235 5.8443,1.113235 l 4.36006,-0.278266 -0.18553,-17.440329 a 6.8662944,6.8662944 0 0 0 -1.48431,-4.731063 6.09408,6.09408 0 0 0 -4.63834,-1.669824 l -8.72015,0.278352 v -4.360089 l 10.48271,-0.278352 c 0,0 0.10987,-0.004 0.30631,-0.004 m 0,-10.08 c -0.32131,0 -0.53803,0.0059 -0.62956,0.0091 l -10.42704,0.276868 a 10.08,10.08 0 0 0 -9.81243,10.076458 v 4.36009 a 10.077638,10.077638 0 0 0 0.77728,3.881476 20.051366,20.051366 0 0 0 -4.95183,14.115269 c 0,8.583322 3.99865,15.3072 10.69632,17.986349 l 0.10483,0.04118 a 38.19024,38.19024 0 0 0 12.26624,1.792973 q 0.11031,0 0.22064,-0.0029 l 12.70915,-0.278266 a 10.08,10.08 0 0 0 9.85936,-10.077581 V 56.591488 c 0,-6.863587 -2.34986,-12.246106 -6.98431,-15.997997 q -0.10368,-0.08398 -0.20964,-0.165197 c -4.57662,-3.508617 -10.4972,-4.032518 -13.61907,-4.032518 z" />
  <path
     inkscape:connector-curvature="0"
     id="path93"
     d="m 560.96839,83.89612 a 34.894512,34.894512 0 0 1 -10.44773,-1.454069 c -4.76578,-1.906877 -7.57969,-6.880781 -7.57969,-13.327027 0,-5.433754 1.76062,-9.528754 5.23335,-12.172507 a 11.148278,11.148278 0 0 1 1.96243,-1.248739 5.040576,5.040576 0 0 1 -2.92851,-4.575946 v -4.35937 a 5.040864,5.040864 0 0 1 4.9064,-5.03856 l 10.47375,-0.278438 c -0.006,0 0.16524,-0.0056 0.44928,-0.0056 2.49751,0 7.18664,0.39515 10.52507,3.043123 3.43407,2.781562 5.15532,6.845631 5.15532,12.112027 v 21.986741 a 5.0397696,5.0397696 0 0 1 -4.92961,5.03856 c 0,0 -12.7835,0.279821 -12.82006,0.279821 z m -0.94078,-14.142658 a 13.274424,13.274424 0 0 0 2.02359,0.158904 v -2.15856 h -1.26844 a 6.04512,6.04512 0 0 0 -0.75656,0.03937 6.0085584,6.0085584 0 0 0 -0.0478,0.857808 10.387685,10.387685 0 0 0 0.0493,1.102435 z"
     style="stroke-width:1.44000006" />
  <path
     style="fill:#ffffff;stroke-width:1.44000006"
     inkscape:connector-curvature="0"
     id="path95"
     d="m 563.03721,46.475819 c 1.12759,0 5.10209,0.134741 7.39366,1.952165 1.94809,1.577117 3.24686,3.98903 3.24686,8.163562 v 21.985776 l -12.70908,0.278265 a 32.141707,32.141707 0 0 1 -8.62734,-1.113235 c -2.78306,-1.113206 -4.36008,-4.267267 -4.36008,-8.627328 0,-4.17456 1.29877,-6.679238 3.24685,-8.163446 2.22632,-1.781151 5.87755,-1.959264 7.24909,-1.95925 0.34291,0 0.54339,0.01109 0.54339,0.01109 h 4.08179 v 3.71065 h -2.31916 a 5.4281376,5.4281376 0 0 0 -4.4529,1.577116 5.8560048,5.8560048 0 0 0 -1.39148,4.360004 c 0,2.875766 0.55661,4.267353 1.9481,5.194944 1.20603,0.927676 3.43238,1.113235 5.84437,1.113235 l 4.36008,-0.278266 V 57.240813 a 6.8662944,6.8662944 0 0 0 -1.4843,-4.731063 6.229152,6.229152 0 0 0 -4.63834,-1.669824 l -8.72015,0.278352 v -4.360089 l 10.48271,-0.278352 c 0,0 0.10987,-0.004 0.306,-0.004 m 0,-10.08 c -0.32093,0 -0.53764,0.0059 -0.62916,0.0091 l -10.42704,0.276869 a 10.08,10.08 0 0 0 -9.81247,10.076457 v 4.36009 a 10.0764,10.0764 0 0 0 0.74866,3.812097 20.020867,20.020867 0 0 0 -5.01592,14.184648 c 0,8.583408 3.99872,15.307316 10.6965,17.986407 l 0.10469,0.04118 a 38.189491,38.189491 0 0 0 12.26624,1.793001 q 0.1103,0 0.22061,-0.0029 l 12.70912,-0.278265 A 10.08,10.08 0 0 0 583.75786,78.57694 V 56.591488 c 0,-6.863587 -2.34985,-12.246106 -6.98432,-15.997997 l -0.0789,-0.06336 c -4.53581,-3.597293 -10.50359,-4.134413 -13.65723,-4.134413 z" />
  <g
     id="g4209"
     transform="matrix(1.44,0,0,1.44,-409.77006,3.1350851)">
    <g
       id="g4783">
      <path
         style="fill:#de1528"
         inkscape:connector-curvature="0"
         d="m 503.06927,19.36516 -0.0526,47.09263 -12.62819,-4.10415 V 7.00006 l 16.10094,4.262 c 10.313,2.78872 16.62712,8.1557 16.52189,17.57423 -0.10524,10.997 -5.15652,15.41691 -15.10122,12.52295 V 19.68086 c 0.0526,-2.57824 -4.8408,-2.7361 -4.8408,-0.3157 z"
         id="path97" />
      <path
         style="fill:#f4cb0e"
         inkscape:connector-curvature="0"
         d="m 484.60054,53.19819 -5.94578,1.99945 c -3.84107,1.31544 -7.156,-1.789 -3.578,-3.10442 l 2.894,-0.99973 -10.8392,-3.42014 c -3.3149,1.105 -6.47195,3.52538 -6.26148,6.94551 0.21047,3.42013 8.05047,4.262 14.10148,5.20913 a 30.80935,30.80935 0 0 0 15.46953,-1.2102 v -3.52537 l -5.84053,-1.89423 z m 18.52134,13.2596 11.04967,-3.84106 -11.1549,-3.52538 v 7.156 l 0.10523,0.21046 z"
         id="path99" />
      <path
         style="fill:#4177b3"
         inkscape:connector-curvature="0"
         d="m 532.48243,56.14477 0.21047,-0.05262 c 4.84081,-1.68377 6.89289,-4.05155 6.36671,-6.26148 -0.84188,-3.68322 -6.735,-5.68268 -15.78524,-6.36671 -6.52456,-0.47356 -12.94389,0.99972 -19.20537,3.10442 l -0.99973,0.36833 11.26013,3.47276 6.57719,-2.20994 c 6.89288,-1.26282 9.629,0.99973 3.05181,3.10442 l -3.26228,1.105 11.78631,3.73585 z m -42.094,-16.31142 -4.99866,1.68377 4.99866,1.5259 z"
         id="path16" />
      <path
         style="fill:#1ba0a5"
         inkscape:connector-curvature="0"
         d="M 514.17155,62.61673 532.48243,56.14478 520.59088,52.46156 503.06926,58.46 v 0.63141 l 11.10229,3.52537 z m -23.78309,-11.36538 -5.78792,1.94685 5.78792,1.84161 z m 12.62819,3.05181 v -7.31383 l 11.26014,3.47276 z M 477.91812,51.09349 490.38846,46.621 v -3.578 l -4.99866,-1.5259 -18.0478,6.10365 a 2.27875,2.27875 0 0 1 -0.26309,0.05262 l 10.8392,3.42012 z"
         id="path102" />
    </g>
  </g>
  <g
     id="g4781"
     transform="matrix(1.44,0,0,1.44,-186.58325,-58.711861)">
    <path
       inkscape:connector-curvature="0"
       d="m 401.1771,66.22109 v 29.44073 h 4.5739 V 69.05566 h 4.25183 c 0,0 3.09225,0 4.123,1.35284 0.9019,1.15958 1.09516,3.28549 1.09516,4.76722 0,1.54614 -0.12884,3.92971 -0.64421,4.76722 a 3.37772,3.37772 0 0 1 -3.22109,1.61054 h -2.83456 v 2.64128 h 4.05857 c 0,0 3.672,0.12885 5.21816,-1.41729 1.93265,-1.93265 2.3836,-4.57392 2.3836,-8.11712 0,-3.22108 -1.15959,-6.44217 -3.54319,-7.53734 a 16.58094,16.58094 0 0 0 -5.47585,-0.90192 h -9.98532"
       id="path3003" />
    <path
       inkscape:connector-curvature="0"
       d="m 423.85355,95.66182 h 4.57394 V 66.22109 h -4.57394 z"
       id="path3005" />
    <path
       inkscape:connector-curvature="0"
       d="m 452.90773,73.11422 8.43927,22.03223 -4.83163,11.85361 h 3.80088 l 13.91509,-33.8858 h -4.25184 l -6.05565,16.49194 -5.60469,-16.49194 h -5.41143"
       id="path3007" />
    <path
       inkscape:connector-curvature="0"
       d="m 477.64567,95.46856 v -2.77013 c 0,0 4.83163,0.19326 5.86238,0.19326 2.25476,0 3.34993,-0.451 4.18741,-1.35284 0.51538,-0.51537 0.96633,-2.96338 0.96633,-3.8009 a 12.62724,12.62724 0 0 0 -0.51538,-3.47878 2.88788,2.88788 0 0 0 -2.31918,-1.54614 c -0.83749,-0.06441 -2.12592,-0.2577 -3.672,-0.32211 a 5.95312,5.95312 0 0 1 -4.18741,-1.99706 c -0.64422,-0.77307 -1.54612,-1.99705 -1.54612,-5.6691 0,-3.67205 0.96633,-5.73355 1.93266,-6.69987 a 6.31555,6.31555 0 0 1 3.41435,-1.54614 26.6611,26.6611 0 0 1 3.22108,-0.19326 l 6.44217,0.19326 v 2.77013 c 0,0 -4.70278,-0.19326 -5.73352,-0.19326 -2.25476,0 -2.899,0.451 -3.73646,1.35284 a 5.16224,5.16224 0 0 0 -0.9019,2.899 11.67868,11.67868 0 0 0 0.45095,3.34993 2.7891,2.7891 0 0 0 2.31918,1.54614 c 0.83748,0.0644 2.12592,0.2577 3.672,0.32211 a 5.95318,5.95318 0 0 1 4.18741,1.99705 c 0.64421,0.77307 1.54611,2.51247 1.54611,6.12007 0,3.672 -0.96632,6.31332 -1.93265,7.27964 a 6.31555,6.31555 0 0 1 -3.41435,1.54614 c -1.224,0.19326 -3.22109,0.2577 -3.22109,0.2577 l -7.022,-0.25766"
       id="path3009" />
    <path
       inkscape:connector-curvature="0"
       d="m 502.70571,69.05566 h -4.57394 v 21.58127 c 0,0 0.12884,1.99706 0.19327,2.64127 0.12884,0.70863 1.09516,2.31917 3.73646,2.31917 l 4.7672,-0.06441 v -2.77012 c 0,0 -1.28844,0.0644 -2.06149,0.0644 -0.77305,0 -1.73939,-0.0644 -1.93266,-1.35284 a 23.99891,23.99891 0 0 1 -0.19326,-2.899 V 75.81994 h 5.21816 v -2.77013 h -5.21816 l 0.0644,-3.99415"
       id="path3011" />
    <path
       inkscape:connector-curvature="0"
       d="m 547.09228,95.66182 h 4.57394 v -22.5476 h -4.57394 z"
       id="path3013" />
    <path
       inkscape:connector-curvature="0"
       d="m 547.09228,70.34409 h 4.57394 v -4.123 h -4.57394 z"
       id="path3015" />
    <path
       inkscape:connector-curvature="0"
       d="m 566.22551,72.921 c 3.15666,0 5.54027,0.70862 6.82871,1.73939 1.28844,1.03077 2.9634,3.2855 2.9634,9.72767 0,6.44217 -1.61054,8.69693 -2.9634,9.72766 -1.28844,1.03073 -3.73646,1.73939 -6.82871,1.73939 -3.15666,0 -5.54027,-0.70862 -6.89313,-1.73939 -1.28843,-1.03073 -2.899,-3.28549 -2.899,-9.72766 0,-6.44217 1.61055,-8.69693 2.899,-9.72767 1.35288,-1.09521 3.73647,-1.73939 6.89313,-1.73939 z m -3.15666,4.31626 c -0.64422,0.77307 -1.41728,2.38361 -1.41728,7.1508 0,4.76719 0.77306,6.37776 1.41728,7.15079 a 4.83326,4.83326 0 0 0 6.571,0 c 0.64422,-0.77307 1.41729,-2.38361 1.41729,-7.15079 0,-4.76718 -0.77307,-6.37777 -1.41729,-7.1508 a 4.83326,4.83326 0 0 0 -6.571,0"
       id="path3017" />
    <path
       inkscape:connector-curvature="0"
       d="m 585.48762,76.2709 4.50952,-0.19326 a 4.232,4.232 0 0 1 3.22108,1.15958 4.76858,4.76858 0 0 1 1.03075,3.28549 v 15.0747 h 4.57395 V 80.1362 c 0,-2.899 -0.9019,-4.63837 -2.25476,-5.6691 -1.93265,-1.54614 -5.41142,-1.35284 -5.41142,-1.35284 l -10.30747,0.19325 v 22.35434 h 4.57394 l 0.0644,-19.391"
       id="path3019" />
    <path
       inkscape:connector-curvature="0"
       d="m 537.94439,69.05566 h -4.57395 v 21.58127 c 0,0 0.12885,1.99706 0.19326,2.64127 0.12885,0.70863 1.09517,2.31917 3.73645,2.31917 l 4.7672,-0.06441 v -2.77012 c 0,0 -1.28843,0.0644 -2.0615,0.0644 -0.77307,0 -1.7394,-0.0644 -1.93265,-1.35284 a 23.99891,23.99891 0 0 1 -0.19326,-2.899 V 75.81994 h 5.15374 v -2.77013 h -5.15374 v -3.99415"
       id="path3021" />
    <path
       inkscape:connector-curvature="0"
       d="m 445.88577,80.52271 a 4.76848,4.76848 0 0 0 -1.03075,-3.28549 4.232,4.232 0 0 0 -3.22109,-1.15958 l -6.05564,0.19326 v -3.02783 l 7.27965,-0.19326 c 0,0 3.47877,-0.12885 5.41142,1.35284 1.35286,1.09518 2.25476,2.77013 2.25476,5.6691 v 15.268 l -8.82577,0.19325 a 22.32123,22.32123 0 0 1 -5.99122,-0.77306 c -1.93265,-0.77307 -3.02782,-2.96339 -3.02782,-5.99122 0,-2.899 0.9019,-4.63837 2.25476,-5.6691 1.93265,-1.54613 5.41142,-1.35284 5.41142,-1.35284 h 2.83456 v 2.57687 h -1.54612 a 3.76957,3.76957 0 0 0 -3.09224,1.09518 4.06679,4.06679 0 0 0 -0.96633,3.02783 c 0,1.99705 0.38653,2.96338 1.35286,3.6076 0.83748,0.64421 2.31918,0.77306 4.05856,0.77306 l 3.02782,-0.19325 -0.12883,-12.11132"
       id="path3023" />
    <path
       inkscape:connector-curvature="0"
       d="m 523.38508,80.52271 a 4.76843,4.76843 0 0 0 -1.03076,-3.28549 4.32565,4.32565 0 0 0 -3.22108,-1.15958 l -6.05564,0.19326 v -3.02783 l 7.27966,-0.19326 c 0,0 3.47878,-0.12885 5.347,1.35284 1.35286,1.09518 2.25476,2.77013 2.25476,5.6691 v 15.268 l -8.82577,0.19325 a 22.32123,22.32123 0 0 1 -5.99122,-0.77306 c -1.93265,-0.77307 -3.02782,-2.96339 -3.02782,-5.99122 0,-2.899 0.9019,-4.63837 2.25476,-5.6691 1.93265,-1.54613 5.41142,-1.35284 5.41142,-1.35284 h 2.83455 v 2.57687 h -1.61054 a 3.76959,3.76959 0 0 0 -3.09225,1.09518 4.06683,4.06683 0 0 0 -0.96632,3.02783 c 0,1.99705 0.38653,2.96338 1.35286,3.6076 0.83748,0.64421 2.3836,0.77306 4.05857,0.77306 l 3.02782,-0.19325 V 80.52271"
       id="path3025" />
  </g>
</svg>
