<?xml version="1.0" encoding="UTF-8" standalone="no"?>
<svg
   xmlns:dc="http://purl.org/dc/elements/1.1/"
   xmlns:cc="http://creativecommons.org/ns#"
   xmlns:rdf="http://www.w3.org/1999/02/22-rdf-syntax-ns#"
   xmlns:svg="http://www.w3.org/2000/svg"
   xmlns="http://www.w3.org/2000/svg"
   xmlns:sodipodi="http://sodipodi.sourceforge.net/DTD/sodipodi-0.dtd"
   xmlns:inkscape="http://www.inkscape.org/namespaces/inkscape"
   id="Layer_1"
   data-name="Layer 1"
   viewBox="0 0 1000 114"
   version="1.1"
   sodipodi:docname="logo.svg"
   inkscape:version="0.92.4 (5da689c313, 2019-01-14)">
  <metadata
     id="metadata94">
    <rdf:RDF>
      <cc:Work
         rdf:about="">
        <dc:format>image/svg+xml</dc:format>
        <dc:type
           rdf:resource="http://purl.org/dc/dcmitype/StillImage" />
        <dc:title>logo</dc:title>
      </cc:Work>
    </rdf:RDF>
  </metadata>
  <defs
     id="defs92" />
  <sodipodi:namedview
     pagecolor="#ffffff"
     bordercolor="#666666"
     borderopacity="1"
     objecttolerance="10"
     gridtolerance="10"
     guidetolerance="10"
     inkscape:pageopacity="0"
     inkscape:pageshadow="2"
     inkscape:window-width="1920"
     inkscape:window-height="1017"
     id="namedview90"
     showgrid="false"
     inkscape:pagecheckerboard="true"
     inkscape:zoom="1.136"
     inkscape:cx="531.979"
     inkscape:cy="57"
     inkscape:window-x="-8"
     inkscape:window-y="-8"
     inkscape:window-maximized="1"
     inkscape:current-layer="Layer_1" />
  <title
     id="title2">logo</title>
  <g
     id="g989"
     transform="matrix(0.8,0,0,0.8,82.699949,10.380938)">
    <path
       style="fill:#ffffff"
       inkscape:connector-curvature="0"
       id="path15"
       d="m 662.2714,52.04124 c 0.0913,0 0.18311,4.9e-4 0.27484,0.0015 a 5.75753,5.75753 0 0 1 4.03278,2.2265 c 2.14282,2.28357 3.08307,5.14417 3.74475,8.10529 0.31988,1.43158 0.4436,2.907 0.65613,4.36261 0.28961,6.52991 -5.45478,11.33673 -10.3,12.41425 a 14.22877,14.22877 0 0 1 -3.08942,0.33819 13.14437,13.14437 0 0 1 -11.3067,-5.99505 c -2.84674,-4.74579 -2.27936,-9.44928 0.72022,-13.792 3.65014,-5.28442 8.93768,-7.66125 15.26745,-7.66125 m 0,-7 c -8.92853,0 -16.19958,3.69409 -21.027,10.68292 -4.75689,6.887 -5.09906,14.47669 -0.9635,21.37109 a 20.102,20.102 0 0 0 17.30957,9.39429 21.265,21.265 0 0 0 4.60907,-0.50513 c 8.1,-1.80133 16.21472,-9.60925 15.7735,-19.55743 a 6.98917,6.98917 0 0 0 -0.0665,-0.70117 c -0.0598,-0.40936 -0.11133,-0.8205 -0.16333,-1.23157 -0.13867,-1.0965 -0.29584,-2.33929 -0.58783,-3.64624 a 23.521,23.521 0 0 0 -5.47174,-11.36871 c -1.01727,-1.08411 -4.11285,-4.38294 -9.062,-4.43616 l -0.35016,-0.0019 z" />
    <path
       style="fill:#ffffff"
       inkscape:connector-curvature="0"
       id="path17"
       d="m 774.26518,55.2158 a 37.7967,37.7967 0 0 1 0.67205,3.88861 c 0.23005,3.19867 0.34345,6.40582 0.50379,9.6095 -0.17035,-1.40869 -0.36615,-2.81488 -0.50574,-4.22663 -0.29828,-3.016 -0.56879,-6.03479 -0.84039,-9.05334 -0.006,-0.06708 0.11078,-0.1452 0.17029,-0.21814 m 1.8e-4,-7.00031 a 7.0019,7.0019 0 0 0 -5.05975,2.16278 7.15576,7.15576 0 0 0 -2.08252,5.68342 l 0.0308,0.34185 c 0.2583,2.871 0.52539,5.83985 0.81543,8.77265 0.10547,1.06695 0.23633,2.10052 0.36291,3.10009 0.054,0.42591 0.10791,0.85181 0.15943,1.278 a 7.001,7.001 0 0 0 6.9422,6.16 q 0.29946,0 0.60266,-0.02575 a 7,7 0 0 0 6.39575,-7.32453 q -0.0682,-1.36431 -0.12885,-2.72925 c -0.105,-2.29144 -0.21362,-4.66095 -0.38421,-7.03247 a 26.53154,26.53154 0 0 0 -0.55951,-3.59143 c -0.0708,-0.34216 -0.14246,-0.68414 -0.20374,-1.027 a 7.00152,7.00152 0 0 0 -6.89056,-5.76838 z" />
    <path
       style="fill:#ffffff"
       inkscape:connector-curvature="0"
       id="path25"
       d="m 747.6829,53.35722 c 0.10785,0 0.21655,8.5e-4 0.32513,0.0026 1.39948,0.09943 2.84534,0.13367 4.2721,0.31671 a 11.19451,11.19451 0 0 1 8.61438,5.74774 c 1.37482,2.3678 1.04376,4.94471 0.35718,7.42945 -1.54657,5.5971 -5.53931,8.78216 -10.84894,10.4624 a 15.81389,15.81389 0 0 1 -4.77606,0.78259 13.16878,13.16878 0 0 1 -8.84522,-3.46838 11.52505,11.52505 0 0 1 -1.168,-15.86762 15.11408,15.11408 0 0 1 12.0694,-5.40545 m 0,-7 a 22.19717,22.19717 0 0 0 -17.38757,7.85388 18.58011,18.58011 0 0 0 1.88836,25.69745 20.28106,20.28106 0 0 0 13.443,5.19012 22.8532,22.8532 0 0 0 6.88806,-1.10882 c 10.202,-3.2284 14.05139,-10.0868 15.48413,-15.27179 0.884,-3.19922 1.73682,-8.00763 -1.05078,-12.80872 a 18.08722,18.08722 0 0 0 -13.77735,-9.176 c -1.23138,-0.158 -2.41156,-0.224 -3.45282,-0.28229 -0.40753,-0.02283 -0.8128,-0.04523 -1.21386,-0.07373 q -0.19337,-0.01374 -0.38727,-0.01672 c -0.1449,-0.0023 -0.29,-0.0034 -0.4339,-0.0034 z" />
    <path
       style="fill:#ffffff"
       inkscape:connector-curvature="0"
       id="path27"
       d="m 793.33897,44.39561 c 0.69293,0 1.379,0.0067 2.06439,0.02832 a 26.13452,26.13452 0 0 1 8.20972,1.193 3.12686,3.12686 0 0 1 2.22131,1.94416 18.74863,18.74863 0 0 1 -2.03992,2.24615 c -2.44995,1.98731 -9.81213,4.64728 -13.17065,4.82611 -0.24585,-3.37256 -0.492,-6.74786 -0.74518,-10.22015 1.19116,0 2.335,-0.01764 3.46033,-0.01764 m 0,-7 c -0.57239,0 -1.14936,0.0043 -1.73456,0.0088 -0.56586,0.0043 -1.13995,0.0088 -1.72577,0.0088 a 7,7 0 0 0 -6.98145,7.509 l 0.31678,4.345 0.4284,5.87512 a 7.00031,7.00031 0 0 0 6.97577,6.49121 q 0.188,0 0.37793,-0.01007 c 4.50122,-0.23968 13.32593,-3.23077 17.20819,-6.37988 a 16.82111,16.82111 0 0 0 2.46418,-2.55633 c 0.13085,-0.16 0.25744,-0.31842 0.38763,-0.46418 a 7,7 0 0 0 1.29877,-7.20825 10.00778,10.00778 0 0 0 -6.35474,-5.97833 32.56215,32.56215 0 0 0 -10.376,-1.60913 c -0.68713,-0.02173 -1.41327,-0.0318 -2.28515,-0.0318 z" />
    <path
       style="fill:#00b3dd"
       inkscape:connector-curvature="0"
       id="path29"
       d="m 817.40153,100.54112 a 9.412,9.412 0 0 1 -6.09278,-2.23829 q -3.85692,-3.16259 -7.73535,-6.2998 -2.644,-2.146 -5.28418,-4.29492 -2.14307,-1.74756 -4.28125,-3.50293 c -0.0625,1.90234 -0.168,3.83594 -0.41308,5.77344 a 10.11226,10.11226 0 0 1 -10.29981,9.22754 12.56855,12.56855 0 0 1 -3.2373,-0.43555 c -6.918,-1.84766 -10.65528,-7.46778 -9.75391,-14.668 a 23.97235,23.97235 0 0 1 0.97461,-4.05762 c 0.11326,-0.36816 0.22656,-0.73633 0.33106,-1.10449 a 14.51661,14.51661 0 0 0 0.41992,-5.91406 3.64067,3.64067 0 0 1 -0.0283,-0.38672 l -0.0596,-3.81152 c -0.0449,-0.90528 -0.0859,-1.81153 -0.12793,-2.7168 -0.10156,-2.22363 -0.207,-4.52246 -0.36719,-6.75684 a 17.85162,17.85162 0 0 0 -0.37012,-2.22168 c -0.0898,-0.43261 -0.17871,-0.86523 -0.25683,-1.29883 -0.008,-0.04785 -0.44239,-3.2041 -0.44239,-3.2041 -0.167,-0.66406 -0.34179,-1.32715 -0.5166,-1.99023 -0.44336,-1.68652 -0.90234,-3.42969 -1.24609,-5.22656 a 13.91824,13.91824 0 0 1 4.27832,-13.123 c 4.80273,-4.6377 10.69531,-7.15332 18.01465,-7.68848 1.01074,-0.07422 2.02832,-0.11133 3.02539,-0.11133 9.03808,0 17.73437,3.083 25.84863,9.165 3.13672,2.35157 6.54,6.75684 4.93945,14.39356 -1.35644,6.46191 -5.21,11.80176 -11.78222,16.32812 -1.10645,0.76172 -2.23633,1.47071 -3.35449,2.15332 q 0.94921,0.77345 1.89453,1.541 c 0,0 12.17382,9.8623 15.00781,12.16211 a 9.67135,9.67135 0 0 1 2.93066,11.2832 13.646,13.646 0 0 1 -7.375,7.96778 11.40673,11.40673 0 0 1 -4.64062,1.05668 z m -23.57422,-50.1045 a 39.8507,39.8507 0 0 0 5.81543,-2.20117 38.83737,38.83737 0 0 0 -4.34961,-0.31347 c -0.54883,-0.01661 -1.09766,-0.02442 -1.65039,-0.0254 z" />
    <path
       style="fill:#ffffff"
       inkscape:connector-curvature="0"
       id="path31"
       d="m 793.9351,27.99033 c 8.8161,0 16.63794,3.1366 23.74725,8.46613 3.66333,2.74628 4.51721,6.56036 3.61243,10.87451 -1.31482,6.269 -5.25482,10.66046 -10.34137,14.16284 -2.176,1.49829 -4.48493,2.80353 -6.73352,4.19623 -0.1908,0.11823 -0.38251,0.23505 -0.68622,0.42163 1.96472,1.60132 3.849,3.14362 5.74017,4.67731 q 7.50138,6.08349 15.00653,12.16254 a 6.20491,6.20491 0 0 1 1.85065,7.36108 10.17345,10.17345 0 0 1 -5.514,5.97516 7.93063,7.93063 0 0 1 -3.21478,0.753 5.97275,5.97275 0 0 1 -3.87384,-1.4444 c -4.32965,-3.54937 -8.68848,-7.06323 -13.02765,-10.60113 q -4.63925,-3.7826 -9.26019,-7.58747 c -0.12427,-0.1018 -0.26557,-0.18292 -0.561,-0.38391 0,0.45472 0.0115,0.76807 -0.002,1.08033 -0.16217,3.81451 -0.0781,7.66052 -0.55609,11.43524 a 6.65914,6.65914 0 0 1 -6.82635,6.16632 9.062,9.062 0 0 1 -2.33539,-0.31738 c -5.15656,-1.37616 -7.868,-5.38361 -7.1839,-10.85126 a 31.6873,31.6873 0 0 1 1.19922,-4.63855 18.07522,18.07522 0 0 0 0.52551,-7.31421 q -0.0299,-1.93524 -0.0598,-3.87042 c -0.16034,-3.20368 -0.27374,-6.41083 -0.50379,-9.6095 a 37.7967,37.7967 0 0 0 -0.67205,-3.88861 q -0.2233,-1.62452 -0.44672,-3.24963 l -2.4e-4,-3.7e-4 c -0.59717,-2.40186 -1.30164,-4.78351 -1.76667,-7.21082 a 10.40235,10.40235 0 0 1 3.27283,-9.94683 24.45769,24.45769 0 0 1 15.83911,-6.71583 q 1.4025,-0.10252 2.77161,-0.102 m -3.31128,26.64307 c 3.35852,-0.17883 10.7207,-2.8388 13.17065,-4.82611 a 18.74863,18.74863 0 0 0 2.03992,-2.24615 3.12686,3.12686 0 0 0 -2.22131,-1.94416 26.13452,26.13452 0 0 0 -8.20972,-1.193 c -0.68549,-0.02161 -1.3714,-0.02832 -2.06451,-0.02832 -1.12519,0 -2.26917,0.01764 -3.46021,0.01764 0.25317,3.47229 0.49933,6.84759 0.74518,10.22015 m 3.31128,-33.64307 c -1.08289,0 -2.18708,0.04059 -3.28186,0.12061 a 31.50044,31.50044 0 0 0 -20.19239,8.66272 17.27337,17.27337 0 0 0 -5.2843,16.29834 c 0.366,1.9104 0.83948,3.70972 1.29737,5.44983 0.1557,0.59186 0.31158,1.18365 0.46167,1.77661 l 0.39477,2.87061 q 0.0192,0.1398 0.0441,0.27862 c 0.0836,0.46729 0.1792,0.93372 0.27569,1.4 a 15.92423,15.92423 0 0 1 0.30512,1.75866 c 0.15753,2.19019 0.25726,4.36591 0.36279,6.66938 q 0.0611,1.33346 0.12567,2.66656 l 0.058,3.75043 a 6.99948,6.99948 0 0 0 0.0554,0.77728 11.06484,11.06484 0 0 1 -0.31458,4.51294 c -0.0986,0.34625 -0.205,0.69226 -0.311,1.0387 a 26.77337,26.77337 0 0 0 -1.10132,4.64642 c -1.11749,8.932 3.72028,16.18726 12.32483,18.48358 a 16.073,16.073 0 0 0 4.14032,0.55408 13.61551,13.61551 0 0 0 13.663,-11.56738 q 2.19068,1.78362 4.38513,3.5628 3.87873,3.14814 7.747,6.30866 a 13.00045,13.00045 0 0 0 8.31174,3.03092 14.872,14.872 0 0 0 6.06323,-1.35876 17.0683,17.0683 0 0 0 9.238,-9.96051 13.20175,13.20175 0 0 0 -4.01143,-15.20473 q -4.30225,-3.49236 -8.6095,-6.97882 l -4.56207,-3.69678 c 6.98657,-4.97448 11.11926,-10.89294 12.62524,-18.0733 1.54456,-7.3645 -0.68024,-13.72583 -6.26459,-17.91223 -8.73211,-6.54608 -18.13452,-9.86524 -27.946,-9.86524 z" />
    <path
       style="fill:#7942ba"
       inkscape:connector-curvature="0"
       id="path33"
       d="m 654.82047,97.28623 a 36.3989,36.3989 0 0 1 -12.72558,-2.33105 33.89253,33.89253 0 0 1 -8.84961,-5.1211 3.49885,3.49885 0 0 1 -1.28223,-1.99414 c -0.56836,-2.47265 -1.66015,-3.16015 -2.75586,-3.53515 a 3.49907,3.49907 0 0 1 -1.93554,-1.62988 c -4.82813,-8.8125 -2.57715,-17.56446 -0.46485,-23.38086 4.08008,-11.22657 11.64258,-19.1533 22.47852,-23.56055 a 28.37429,28.37429 0 0 1 10.709,-2.17871 c 6.06445,0 12.082,2.125 17.8877,6.31543 a 29.40193,29.40193 0 0 1 10.05957,12.82617 3.51515,3.51515 0 0 1 0.25683,1.09766 l 0.15332,2.22851 c 0.10938,1.56641 0.21875,3.13379 0.31836,4.70215 q 0.23585,3.72656 0.459,7.45215 l 0.22363,3.68359 a 3.48561,3.48561 0 0 1 -0.15723,1.27149 32.10806,32.10806 0 0 1 -5.127,10.167 35.71966,35.71966 0 0 1 -20.8291,13.01172 37.63876,37.63876 0 0 1 -8.41893,0.97557 z m 7.44825,-41.74511 c -5.47461,0 -9.52637,2.01171 -12.38477,6.15039 -2.41016,3.48828 -2.60059,6.667 -0.59961,10.00195 a 9.70137,9.70137 0 0 0 8.30664,4.2959 10.69119,10.69119 0 0 0 2.3291,-0.25488 c 3.26563,-0.72657 7.66895,-4.13868 7.56836,-8.68848 -0.0576,-0.40723 -0.10937,-0.81543 -0.16113,-1.22461 -0.12012,-0.9541 -0.23438,-1.85547 -0.41992,-2.68262 a 13.45363,13.45363 0 0 0 -2.87989,-6.47363 c -0.86621,-0.92383 -1.30371,-1.12012 -1.51855,-1.12207 z" />
    <path
       style="fill:#ffffff"
       inkscape:connector-curvature="0"
       id="path35"
       d="m 659.99326,37.05467 c 5.55927,0 10.84015,2.04455 15.83942,5.65387 a 25.89782,25.89782 0 0 1 8.87323,11.32409 c 0.15753,2.3042 0.32459,4.60816 0.47058,6.91345 0.23493,3.70887 0.45587,7.41864 0.68274,11.12806 a 28.6845,28.6845 0 0 1 -4.5564,9.07965 32.08951,32.08951 0 0 1 -18.84765,11.74566 33.98473,33.98473 0 0 1 -7.63544,0.88642 32.76325,32.76325 0 0 1 -11.50549,-2.11072 30.81435,30.81435 0 0 1 -7.94055,-4.619 c -0.65882,-2.86652 -2.12122,-5.0661 -5.03247,-6.06323 -3.72113,-6.79065 -2.73218,-13.654 -0.244,-20.5033 a 35.19836,35.19836 0 0 1 20.50647,-21.51416 24.76254,24.76254 0 0 1 9.38958,-1.92077 m -2.40285,42.43485 a 14.23636,14.23636 0 0 0 3.08942,-0.33819 c 4.84527,-1.07752 10.58966,-5.88434 10.3,-12.41425 -0.21253,-1.45557 -0.33625,-2.931 -0.65613,-4.36261 -0.66168,-2.96112 -1.60193,-5.82172 -3.74475,-8.10529 a 5.75753,5.75753 0 0 0 -4.03278,-2.2265 c -0.0922,-0.001 -0.18316,-0.0015 -0.27484,-0.0015 -6.32928,1.8e-4 -11.61749,2.37713 -15.26745,7.66125 -2.99958,4.34272 -3.567,9.04621 -0.72022,13.792 a 13.14346,13.14346 0 0 0 11.3067,5.99505 m 2.40283,-49.43487 a 31.84546,31.84546 0 0 0 -12.02679,2.43658 c -11.7923,4.79608 -20.01794,13.412 -24.44861,25.60828 -2.34521,6.45575 -4.82574,16.20147 0.68463,26.25732 a 6.99986,6.99986 0 0 0 3.87055,3.25836 1.16811,1.16811 0 0 1 0.14276,0.05786 3.25312,3.25312 0 0 1 0.33575,0.951 6.99973,6.99973 0 0 0 2.56476,3.98859 37.30842,37.30842 0 0 0 9.75751,5.62335 39.90033,39.90033 0 0 0 13.94592,2.54987 41.15847,41.15847 0 0 0 9.20392,-1.06439 39.12618,39.12618 0 0 0 22.80994,-14.277 35.52559,35.52559 0 0 0 5.69836,-11.255 7.00008,7.00008 0 0 0 0.31421,-2.54272 l -0.20136,-3.30994 q -0.23766,-3.91689 -0.4823,-7.83331 c -0.10156,-1.603 -0.21313,-3.20551 -0.3247,-4.8078 l -0.1482,-2.14056 a 7.00015,7.00015 0 0 0 -0.51348,-2.194 32.836,32.836 0 0 0 -11.24592,-14.32813 c -6.41387,-4.63061 -13.12158,-6.97845 -19.937,-6.97845 z m -2.40278,42.43487 a 6.24809,6.24809 0 0 1 -5.3038,-2.59579 c -1.06421,-1.77411 -1.39032,-3.50959 0.477,-6.213 a 10.36984,10.36984 0 0 1 8.71063,-4.62188 l 3.1e-4,3e-4 c 0.87243,0.92975 1.457,2.33252 2.0177,4.84186 0.14837,0.66394 0.25189,1.48267 0.36151,2.34949 0.0438,0.34613 0.0878,0.69214 0.13476,1.03747 -0.0721,2.43946 -2.85,4.59034 -4.82824,5.03028 a 7.24409,7.24409 0 0 1 -1.56983,0.17126 z" />
    <path
       style="fill:#f9e52d"
       inkscape:connector-curvature="0"
       id="path37"
       d="m 741.55387,96.96299 a 28.34925,28.34925 0 0 1 -8.59179,-1.30957 27.77636,27.77636 0 0 1 -10.17188,-6.248 3.50174,3.50174 0 0 1 -0.90918,-3.88183 l 0.0439,-0.11524 c 0.084,-0.22558 0.17285,-0.44922 0.27636,-0.665 a 5.65713,5.65713 0 0 0 -1.11425,-6.36621 8.926,8.926 0 0 0 -3.76075,-1.75976 3.49957,3.49957 0 0 1 -2.4414,-2.67285 33.03384,33.03384 0 0 1 27.25488,-38.34578 40.10427,40.10427 0 0 1 6.75391,-0.59277 32.69279,32.69279 0 0 1 23.959,10.19141 30.15867,30.15867 0 0 1 2.71289,3.28711 c 0.32813,0.43945 0.65625,0.8789 0.99512,1.30664 a 3.49713,3.49713 0 0 1 0.72558,1.70019 l 0.44629,3.249 a 3.50468,3.50468 0 0 1 -0.0684,1.3086 c 0.24317,2.69824 0.48731,5.39746 0.75489,8.09375 0.0928,0.9375 0.21093,1.87207 0.3291,2.80664 l 0.167,1.3457 a 3.47311,3.47311 0 0 1 0.0254,0.36328 l 0.0606,3.87012 a 3.492,3.492 0 0 1 -0.36231,1.60547 c -5.97558,12.10059 -16.36718,19.583 -30.88476,22.24121 a 34.49962,34.49962 0 0 1 -6.19922,0.58789 z m 6.13086,-40.10644 a 11.68785,11.68785 0 0 0 -9.41211,4.18164 8.01811,8.01811 0 0 0 0.80762,10.95214 9.67449,9.67449 0 0 0 6.54687,2.6084 12.38953,12.38953 0 0 0 3.71973,-0.61914 c 4.71387,-1.49218 7.42481,-4.05273 8.53223,-8.05859 0.627,-2.27149 0.624,-3.64551 -0.0107,-4.73926 a 7.73241,7.73241 0 0 0 -6.03321,-4.0332 c -0.85937,-0.11035 -1.75488,-0.16113 -2.7041,-0.21387 -0.42285,-0.02344 -0.84375,-0.04785 -1.26074,-0.07617 z" />
    <path
       style="fill:#ffffff"
       inkscape:connector-curvature="0"
       id="path39"
       d="m 748.89475,38.50584 a 29.29016,29.29016 0 0 1 21.46988,9.15216 50.82913,50.82913 0 0 1 3.45356,4.3078 l 2.4e-4,3.7e-4 q 0.2234,1.6255 0.44672,3.24963 c -0.0595,0.07294 -0.17633,0.15106 -0.17029,0.21814 0.2716,3.01855 0.54211,6.03735 0.84039,9.05334 0.13959,1.41175 0.33539,2.81794 0.50574,4.22663 q 0.0298,1.93524 0.0598,3.87042 C 769.659,84.4119 759.79022,90.61344 747.1236,92.93308 a 30.876,30.876 0 0 1 -5.56855,0.53016 24.71405,24.71405 0 0 1 -7.53412,-1.14533 24.27326,24.27326 0 0 1 -8.88433,-5.50952 c 0.0734,-0.18536 0.13641,-0.37561 0.22168,-0.5553 a 9.181,9.181 0 0 0 -1.81553,-10.37034 11.78906,11.78906 0 0 0 -5.22552,-2.6214 c -2.74213,-13.7608 6.07056,-31.06958 24.41333,-34.213 a 36.48312,36.48312 0 0 1 6.16418,-0.54248 m -3.26806,39.59283 a 15.81546,15.81546 0 0 0 4.77606,-0.78259 c 5.30963,-1.68024 9.30237,-4.8653 10.84894,-10.4624 0.68658,-2.48474 1.01764,-5.06165 -0.35718,-7.42945 a 11.19451,11.19451 0 0 0 -8.61438,-5.74774 c -1.42676,-0.183 -2.87262,-0.21728 -4.2721,-0.31671 -0.10888,-0.0017 -0.217,-0.0026 -0.32507,-0.0025 a 15.11531,15.11531 0 0 0 -12.06946,5.40539 11.52505,11.52505 0 0 0 1.168,15.86762 13.16773,13.16773 0 0 0 8.84522,3.46838 m 3.26806,-46.59283 a 43.65444,43.65444 0 0 0 -7.34649,0.64306 36.55368,36.55368 0 0 0 -24.21137,15.32563 35.93963,35.93963 0 0 0 -5.8847,27.15478 7,7 0 0 0 4.88409,5.34589 9.08844,9.08844 0 0 1 2.29486,0.89514 2.19944,2.19944 0 0 1 0.40345,2.381 c -0.18506,0.39008 -0.30988,0.72284 -0.38447,0.92163 l -0.0251,0.06659 a 6.98948,6.98948 0 0 0 1.81824,7.76239 29.47547,29.47547 0 0 0 21.11187,8.46131 38.06992,38.06992 0 0 0 6.82953,-0.64466 c 15.66468,-2.86871 26.89954,-10.98865 33.39234,-24.13434 a 7.00016,7.00016 0 0 0 0.723,-3.20813 l -10e-4,-0.08642 -0.0584,-3.78375 a 7.012,7.012 0 0 0 -0.0498,-0.73243 q -0.082,-0.678 -0.16907,-1.35577 c -0.12,-0.94775 -0.2334,-1.843 -0.32007,-2.7193 -0.24853,-2.51355 -0.48205,-5.0777 -0.70782,-7.58325 a 6.997,6.997 0 0 0 0.006,-1.9527 l -0.16223,-1.18048 -0.28443,-2.06885 a 6.9996,6.9996 0 0 0 -1.45031,-3.39667 c -0.31891,-0.40222 -0.62629,-0.81555 -0.93439,-1.22821 a 33.39862,33.39862 0 0 0 -3.02753,-3.65326 36.07882,36.07882 0 0 0 -26.44629,-11.22918 z m -3.26806,39.59283 a 6.24619,6.24619 0 0 1 -4.24744,-1.7467 4.539,4.539 0 0 1 -0.44751,-6.03778 8.16646,8.16646 0 0 1 6.75134,-2.957 l 0.0537,4.2e-4 c 0.397,0.02649 0.79712,0.04908 1.19916,0.0716 0.88452,0.0495 1.72,0.09625 2.45337,0.19037 a 4.2269,4.2269 0 0 1 3.45166,2.31952 5.39977,5.39977 0 0 1 -0.33642,2.05011 c -0.552,1.9978 -1.72193,4.23162 -6.21375,5.65307 a 8.91918,8.91918 0 0 1 -2.66412,0.45636 z" />
    <path
       style="fill:#ff004f"
       inkscape:connector-curvature="0"
       id="path41"
       d="m 611.96891,99.61241 q -0.98437,0 -1.96973,-0.01661 c -6.39843,-0.10839 -11.45214,-1.1289 -15.90429,-3.21093 A 26.88539,26.88539 0 0 1 580.7902,82.4835 32.75425,32.75425 0 0 1 578.28239,70.93075 c -0.52539,-8.79785 1.92773,-17.10546 7.501,-25.39941 3.291,-4.89746 7.2295,-10.50781 12.34473,-15.11328 4.9375,-4.44727 9.6084,-6.95215 14.69922,-7.88477 a 31.7053,31.7053 0 0 1 5.709,-0.53418 27.16724,27.16724 0 0 1 14.16114,3.91211 c 7.11523,4.2666 7.99609,13.21973 4.7334,19.06836 a 11.28587,11.28587 0 0 1 -9.94825,5.5918 12.16278,12.16278 0 0 1 -1.84668,-0.1416 10.65228,10.65228 0 0 1 -8.42578,-6.58008 18.5333,18.5333 0 0 0 -7.22656,4.86426 34.70958,34.70958 0 0 0 -9.56738,16.99219 12.079,12.079 0 0 0 0.01,6.03613 6.75234,6.75234 0 0 0 5.94336,5.41211 40.86581,40.86581 0 0 0 6.78125,0.48926 c 2.15625,0 4.2959,-0.1045 6.56055,-0.21387 3.1123,-0.15235 5.67773,-0.26074 8.29492,-0.30957 0.0215,-0.001 0.10156,-0.002 0.124,-0.002 a 9.95668,9.95668 0 0 1 2.26563,0.31153 c 0.18164,0.041 0.36426,0.084 0.5459,0.11523 a 3.444,3.444 0 0 1 0.5332,0.13672 c 3.84277,1.31641 6.30273,4.20606 7.31055,8.58984 a 3.5212,3.5212 0 0 1 0.0801,0.53516 c 0.45312,6.3418 -5.09473,11.8291 -10.16895,12.31836 -1.47949,0.14258 -2.92578,0.17285 -4.3252,0.20215 l -0.75,0.0166 c -1.24511,0.0293 -2.49023,0.06836 -3.73535,0.10645 -2.58694,0.08012 -5.26077,0.16216 -7.91702,0.16216 z" />
    <path
       style="fill:#ffffff"
       inkscape:connector-curvature="0"
       id="path43"
       d="m 618.53463,25.49937 a 23.66,23.66 0 0 1 12.36309,3.41376 c 5.30463,3.18035 5.932,9.96057 3.47663,14.36163 a 7.85134,7.85134 0 0 1 -6.89106,3.79669 8.53843,8.53843 0 0 1 -1.3103,-0.101 7.27836,7.27836 0 0 1 -6.16211,-5.81867 c -0.0302,-0.12872 -0.0782,-0.25323 -0.14056,-0.4519 a 4.4202,4.4202 0 0 0 -2.01874,-0.48816 5.18683,5.18683 0 0 0 -1.63995,0.28015 22.08056,22.08056 0 0 0 -8.72077,5.76642 38.419,38.419 0 0 0 -10.48723,18.67223 15.53085,15.53085 0 0 0 0.0521,7.75568 10.19681,10.19681 0 0 0 8.74164,7.9209 44.83867,44.83867 0 0 0 7.3551,0.53631 c 2.263,0 4.52942,-0.1112 6.79547,-0.22131 2.70649,-0.13147 5.41455,-0.25238 8.1233,-0.30255 l 0.0596,-5.5e-4 a 13.30159,13.30159 0 0 1 2.21045,0.3739 c 2.91125,0.99713 4.37365,3.19671 5.03247,6.06323 0.31738,4.43115 -3.87586,8.2829 -7.01331,8.58514 -1.5993,0.15406 -3.21387,0.16584 -4.82239,0.20392 -3.85345,0.09119 -7.70813,0.267 -11.56048,0.267 q -0.959,0 -1.9184,-0.01575 a 35.06876,35.06876 0 0 1 -14.48205,-2.882 23.33339,23.33339 0 0 1 -11.59211,-12.16016 29.00378,29.00378 0 0 1 -2.208,-10.33307 c -0.51642,-8.627 2.17767,-16.19208 6.91192,-23.2381 3.48779,-5.191 7.10718,-10.25573 11.7807,-14.46441 3.75879,-3.38489 7.90375,-6.111 12.98859,-7.04346 a 28.12413,28.12413 0 0 1 5.07642,-0.47589 m 1.8e-4,-7 v 0 a 35.25745,35.25745 0 0 0 -6.3393,0.59076 c -5.75628,1.05548 -10.97076,3.82855 -16.41015,8.72693 -5.41156,4.87329 -9.4997,10.69134 -12.90674,15.7622 -6.01715,8.95545 -8.66321,17.97046 -8.08911,27.56024 a 36.01308,36.01308 0 0 0 2.80585,12.7735 30.28655,30.28655 0 0 0 15.01745,15.64283 c 4.91443,2.29724 10.42029,3.422 17.32721,3.53955 q 1.01834,0.0174 2.03754,0.0168 c 2.70886,0 5.40936,-0.0831 8.02093,-0.16357 1.23511,-0.038 2.47022,-0.0761 3.7052,-0.10535 l 0.7367,-0.0162 c 1.46539,-0.031 2.98071,-0.0629 4.59118,-0.218 6.78571,-0.65369 13.9256,-7.65778 13.32428,-16.053 a 7.0054,7.0054 0 0 0 -0.16,-1.06781 c -1.61536,-7.02832 -6.10474,-9.92511 -9.58643,-11.11762 a 7.00062,7.00062 0 0 0 -1.06683,-0.2738 c -0.12579,-0.02191 -0.2511,-0.0531 -0.377,-0.08148 a 13.31105,13.31105 0 0 0 -3.03479,-0.3963 l -0.18927,0.0018 c -2.92261,0.05407 -5.83393,0.18817 -8.33332,0.30957 l -0.069,0.0033 c -2.21991,0.10785 -4.31665,0.20972 -6.38684,0.20972 a 37.54052,37.54052 0 0 1 -6.21081,-0.44214 c -1.87427,-0.31054 -2.60913,-0.98883 -3.14527,-2.903 a 8.57217,8.57217 0 0 1 0.0336,-4.31769 31.29865,31.29865 0 0 1 8.64856,-15.31067 19.34164,19.34164 0 0 1 3.33423,-2.77649 14.24654,14.24654 0 0 0 9.28597,5.49409 15.59034,15.59034 0 0 0 2.38458,0.1839 14.78643,14.78643 0 0 0 13.00409,-7.38635 c 4.05817,-7.27405 2.92188,-18.4325 -5.99023,-23.77564 a 30.62634,30.62634 0 0 0 -15.96234,-4.41009 z" />
    <path
       style="fill:#aae000"
       inkscape:connector-curvature="0"
       id="path45"
       d="m 695.15153,99.37608 a 16.70909,16.70909 0 0 1 -2.12207,-0.13477 9.47711,9.47711 0 0 1 -8.6084,-8.457 c -0.53223,-4.33105 -1.00488,-8.72949 -1.46191,-12.98437 q -0.28711,-2.67187 -0.57911,-5.34278 c -0.006,-0.05566 -0.0107,-0.1123 -0.0137,-0.16894 l -0.22462,-3.6836 q -0.22557,-3.71923 -0.458,-7.4375 c -0.0986,-1.55273 -0.207,-3.10644 -0.31445,-4.66015 L 681.214,54.27064 a 3.44587,3.44587 0 0 1 10e-4,-0.48145 16.92357,16.92357 0 0 0 -0.82617,-6.5625 c -0.43457,-1.30566 -0.89843,-2.59961 -1.3623,-3.89453 -0.42578,-1.19043 -0.85156,-2.38086 -1.25684,-3.57812 a 12.27521,12.27521 0 0 1 2.5791,-12.71094 10.43447,10.43447 0 0 1 12.43946,-2.42578 c 3.76758,1.86914 6.46484,5.04883 8.248,9.72168 a 31.48054,31.48054 0 0 1 2.00293,10.04785 c 0.0947,2.46387 0.14844,4.92969 0.20313,7.39648 0.0606,2.78321 0.123,5.66211 0.248,8.47071 0.16113,3.65039 0.417,7.3789 0.665,10.98535 l 0.0615,0.90527 q 0.35156,-0.12012 0.69433,-0.24707 a 30.70446,30.70446 0 0 1 10.9961,-2.27441 q 0.5332,0 1.07226,0.02539 c 0.38575,0.01758 0.77051,0.05078 1.15528,0.084 l 0.45507,0.03906 a 3.46528,3.46528 0 0 1 0.71875,0.13282 14.9579,14.9579 0 0 1 6.69043,3.48437 12.75884,12.75884 0 0 1 2.52154,14.36519 l -0.12793,0.33984 a 3.49641,3.49641 0 0 1 -0.583,0.97363 c -2.69726,3.19239 -6.30566,3.83594 -9.20605,4.35352 l -0.51368,0.0918 c -1.16113,0.21093 -2.30175,0.34765 -3.40527,0.47949 a 21.51854,21.51854 0 0 0 -5.94629,1.26074 l -0.77539,0.33691 c -1.99316,0.86719 -4.05566,1.7627 -6.17578,2.54 a 19.309,19.309 0 0 1 -6.63574,1.2461 z" />
    <path
       style="fill:#ffffff"
       inkscape:connector-curvature="0"
       id="path47"
       d="m 688.16911,27.03306 a 6.88359,6.88359 0 0 1 3.06384,0.719 c 3.31634,1.64527 5.2503,4.47229 6.53265,7.83423 a 27.91471,27.91471 0 0 1 1.777,8.93347 c 0.20227,5.29444 0.21594,10.59662 0.45075,15.88923 0.23022,5.18939 0.63629,10.371 0.97125,15.55566 a 5.88376,5.88376 0 0 0 0.18725,0.78082 c 1.69483,-0.528 3.369,-0.9674 4.98255,-1.56915 a 27.89284,27.89284 0 0 1 9.77295,-2.053 q 0.45245,0 0.90918,0.02112 c 0.50091,0.02338 1.00049,0.07715 1.50067,0.11688 a 11.78906,11.78906 0 0 1 5.22552,2.6214 9.181,9.181 0 0 1 1.81556,10.37036 c -0.0853,0.17969 -0.14832,0.36994 -0.22168,0.5553 -2.00782,2.37616 -4.88056,2.75384 -7.67121,3.26092 -3.38141,0.61445 -6.88525,0.57142 -10.11871,1.973 -2.23914,0.97058 -4.47412,1.963 -6.7638,2.80163 a 15.7521,15.7521 0 0 1 -5.43243,1.03247 13.14889,13.14889 0 0 1 -1.67432,-0.1065 5.97723,5.97723 0 0 1 -5.5819,-5.411 c -0.74622,-6.08637 -1.364,-12.18842 -2.035,-18.28437 -0.22693,-3.70978 -0.44787,-7.41955 -0.6828,-11.12842 -0.146,-2.30529 -0.31305,-4.60925 -0.47058,-6.91345 a 20.338,20.338 0 0 0 -0.99634,-7.91375 c -0.83612,-2.50849 -1.777,-4.98194 -2.62433,-7.48682 a 8.81917,8.81917 0 0 1 1.87482,-9.25891 6.98231,6.98231 0 0 1 5.209,-2.34009 m 5.5e-4,-7 h 8e-5 a 13.99881,13.99881 0 0 0 -10.43206,4.67908 15.79858,15.79858 0 0 0 -3.28321,16.163 c 0.41956,1.24017 0.85773,2.46405 1.28144,3.64764 0.47094,1.31537 0.91577,2.55787 1.333,3.80964 a 13.25383,13.25383 0 0 1 0.65424,5.212 6.9948,6.9948 0 0 0 -7.9e-4,0.96576 l 0.14941,2.15826 c 0.10956,1.57306 0.21918,3.14631 0.31891,4.72016 q 0.24656,3.8929 0.47937,7.78674 l 0.20245,3.3266 q 0.0104,0.16965 0.029,0.33856 0.29388,2.67042 0.57873,5.3418 c 0.45831,4.26428 0.93231,8.67371 1.46619,13.0285 a 13.0048,13.0048 0 0 0 11.63928,11.50226 20.23263,20.23263 0 0 0 2.56494,0.16333 22.80032,22.80032 0 0 0 7.84,-1.45947 c 2.21411,-0.81091 4.32013,-1.72644 6.35687,-2.61182 l 0.78326,-0.34021 a 18.94308,18.94308 0 0 1 4.96924,-0.99713 c 1.1554,-0.13812 2.35016,-0.28094 3.617,-0.51111 l 0.50415,-0.09057 c 3.08624,-0.55078 7.75018,-1.38312 11.26239,-5.53974 a 6.99908,6.99908 0 0 0 1.1618,-1.94146 c 0.0373,-0.09424 0.0734,-0.18915 0.109,-0.28418 a 16.09522,16.09522 0 0 0 -3.29987,-18.20551 18.25784,18.25784 0 0 0 -8.15618,-4.34766 7.00085,7.00085 0 0 0 -1.42658,-0.26416 l -0.41217,-0.03527 c -0.43854,-0.03876 -0.87732,-0.07544 -1.31665,-0.096 q -0.62035,-0.029 -1.23541,-0.02875 a 31.36938,31.36938 0 0 0 -8.50525,1.26465 c -0.16016,-2.43 -0.30884,-4.88178 -0.41559,-7.28919 -0.12323,-2.77758 -0.18573,-5.64459 -0.24615,-8.41717 -0.0529,-2.426 -0.10755,-4.93469 -0.20289,-7.42908 a 34.99113,34.99113 0 0 0 -2.23156,-11.161 c -2.11084,-5.534 -5.36945,-9.33172 -9.962,-11.61011 a 13.96856,13.96856 0 0 0 -6.17425,-1.44836 z" />
    <path
       style="fill:#00b3dd"
       inkscape:connector-curvature="0"
       id="path69"
       d="m 773.81847,51.96686 c -0.59715,-2.40238 -1.30181,-4.78416 -1.7669,-7.21184 a 10.40244,10.40244 0 0 1 3.27279,-9.94688 24.45768,24.45768 0 0 1 15.83916,-6.7158 c 9.96027,-0.72811 18.673,2.48246 26.51883,8.36414 3.66335,2.74625 4.51723,6.56037 3.61243,10.87453 -1.31481,6.269 -5.25483,10.66045 -10.3414,14.16285 -2.176,1.49829 -4.48488,2.80347 -6.73352,4.19621 -0.19079,0.1182 -0.38245,0.235 -0.68621,0.42161 1.96472,1.60135 3.849,3.1436 5.74019,4.67734 q 7.50141,6.08349 15.00651,12.1625 a 6.205,6.205 0 0 1 1.85065,7.36111 10.1732,10.1732 0 0 1 -5.514,5.97515 c -2.40426,1.071 -4.86338,1.1328 -7.08859,-0.69139 -4.32967,-3.54942 -8.68852,-7.06323 -13.02768,-10.60115 q -4.63922,-3.78257 -9.26015,-7.58746 c -0.12432,-0.10182 -0.26559,-0.18292 -0.561,-0.38395 0,0.45474 0.0115,0.76808 -0.002,1.08036 -0.16214,3.81452 -0.078,7.66052 -0.55607,11.43525 -0.59454,4.69434 -4.58733,7.06974 -9.16173,5.84894 -5.15659,-1.37616 -7.868,-5.38364 -7.18393,-10.85127 a 31.69711,31.69711 0 0 1 1.19922,-4.63857 18.07477,18.07477 0 0 0 0.5255,-7.31419 q -0.0299,-1.93521 -0.0598,-3.87041 c -0.16035,-3.20372 -0.27375,-6.41082 -0.50375,-9.60954 a 37.81,37.81 0 0 0 -0.67207,-3.88861 z m 32.0159,-4.40573 a 3.12691,3.12691 0 0 0 -2.22128,-1.94416 26.137,26.137 0 0 0 -8.20973,-1.193 c -1.79839,-0.05677 -3.60006,-0.01068 -5.52474,-0.01068 0.2532,3.47229 0.49932,6.84759 0.74522,10.22016 3.35852,-0.17883 10.72066,-2.83883 13.17063,-4.82611 a 18.74137,18.74137 0 0 0 2.0399,-2.24621 z" />
    <path
       style="fill:#7942ba"
       inkscape:connector-curvature="0"
       id="path71"
       d="m 685.85922,72.07416 a 28.68359,28.68359 0 0 1 -4.55641,9.07961 32.0892,32.0892 0 0 1 -18.84762,11.74571 32.70784,32.70784 0 0 1 -19.14092,-1.22429 30.81362,30.81362 0 0 1 -7.94056,-4.61907 c -0.65884,-2.86649 -2.12123,-5.0661 -5.03247,-6.06322 -3.72116,-6.79064 -2.73219,-13.654 -0.244,-20.50329 a 35.19821,35.19821 0 0 1 20.50648,-21.51414 c 9.07667,-3.69165 17.49012,-1.85414 25.229,3.73311 a 25.89819,25.89819 0 0 1 8.87324,11.324 c 0.15752,2.30421 0.32457,4.60817 0.47056,6.91346 0.23487,3.70894 0.45585,7.41871 0.6827,11.12812 z m -14.87933,-5.337 c -0.21253,-1.45559 -0.33624,-2.931 -0.65613,-4.36262 -0.66165,-2.96113 -1.6019,-5.8217 -3.74474,-8.10526 a 5.75749,5.75749 0 0 0 -4.03279,-2.22655 c -6.45146,-0.06951 -11.83948,2.29913 -15.54226,7.65985 -2.99962,4.34271 -3.567,9.04614 -0.72022,13.792 2.75486,4.59266 8.7493,6.9127 14.39612,5.65689 4.84524,-1.07761 10.58964,-5.88445 10.30002,-12.41435 z" />
    <path
       style="fill:#f9e52d"
       inkscape:connector-curvature="0"
       id="path73"
       d="m 775.44101,68.71394 q 0.0299,1.93521 0.0598,3.87041 c -5.84175,11.82757 -15.71055,18.02908 -28.37717,20.34875 a 26.66438,26.66438 0 0 1 -13.10269,-0.6152 24.27284,24.27284 0 0 1 -8.88431,-5.50951 c 0.0733,-0.18534 0.13639,-0.37561 0.22169,-0.5553 a 9.181,9.181 0 0 0 -1.81557,-10.37034 11.7889,11.7889 0 0 0 -5.22554,-2.62139 c -2.7421,-13.76082 6.0706,-31.0696 24.41336,-34.213 10.5384,-1.806 19.96354,0.8559 27.63409,8.60968 a 50.82079,50.82079 0 0 1 3.45378,4.30817 q 0.22339,1.62549 0.44675,3.24961 c -0.0595,0.073 -0.17635,0.15111 -0.1703,0.21818 0.27161,3.01855 0.54208,6.03732 0.84037,9.05332 0.13963,1.41172 0.33541,2.81791 0.50574,4.22662 z m -27.433,-15.35412 a 15.176,15.176 0 0 0 -12.39452,5.4029 11.525,11.525 0 0 0 1.168,15.86756 13.40153,13.40153 0 0 0 13.62129,2.68584 c 5.3096,-1.68027 9.30234,-4.86533 10.84891,-10.4624 0.68659,-2.48475 1.01767,-5.06169 -0.35715,-7.4295 a 11.1944,11.1944 0 0 0 -8.61437,-5.74771 c -1.42682,-0.18303 -2.87269,-0.21729 -4.27216,-0.31669 z" />
    <path
       style="fill:#ff004f"
       inkscape:connector-curvature="0"
       id="path75"
       d="m 630.34124,80.9929 c 2.91124,0.99712 4.37363,3.19673 5.03247,6.06322 0.31737,4.43121 -3.87588,8.283 -7.01334,8.58515 -1.59927,0.154 -3.21383,0.16584 -4.82237,0.20392 -4.49292,0.10636 -8.9886,0.32763 -13.4789,0.25122 a 35.06773,35.06773 0 0 1 -14.48206,-2.882 23.33354,23.33354 0 0 1 -11.59209,-12.16014 29.00446,29.00446 0 0 1 -2.208,-10.33309 c -0.51645,-8.627 2.17769,-16.19206 6.91191,-23.23809 3.48779,-5.191 7.10717,-10.25571 11.78071,-14.46438 3.75878,-3.3849 7.90375,-6.111 12.98859,-7.0435 a 24.40053,24.40053 0 0 1 17.43947,2.93791 c 5.30463,3.18039 5.932,9.96058 3.47666,14.36167 a 7.99549,7.99549 0 0 1 -8.20139,3.69568 7.27839,7.27839 0 0 1 -6.1621,-5.81869 c -0.0302,-0.12872 -0.0782,-0.25325 -0.14057,-0.45187 a 4.60818,4.60818 0 0 0 -3.65866,-0.20806 22.08126,22.08126 0 0 0 -8.7208,5.76643 38.41926,38.41926 0 0 0 -10.48723,18.67228 15.531,15.531 0 0 0 0.0521,7.75565 10.19689,10.19689 0 0 0 8.74165,7.92092 66.385,66.385 0 0 0 14.15054,0.315 c 2.7065,-0.13148 5.41455,-0.2524 8.12329,-0.30255 a 12.32552,12.32552 0 0 1 2.27014,0.37332 z" />
    <path
       style="fill:#aae000"
       inkscape:connector-curvature="0"
       id="path77"
       d="m 718.31722,73.26135 a 11.7889,11.7889 0 0 1 5.22554,2.62139 9.181,9.181 0 0 1 1.81557,10.37035 c -0.0853,0.17969 -0.14834,0.37 -0.22169,0.5553 -2.00779,2.37619 -4.88054,2.75383 -7.67121,3.26092 -3.38142,0.61446 -6.88527,0.57146 -10.11868,1.973 -2.23919,0.97059 -4.47418,1.963 -6.7638,2.80162 a 14.93814,14.93814 0 0 1 -7.10679,0.926 5.97719,5.97719 0 0 1 -5.5819,-5.411 c -0.74623,-6.08633 -1.36393,-12.18842 -2.03494,-18.28435 -0.22695,-3.70975 -0.44793,-7.41953 -0.68282,-11.12843 -0.146,-2.30529 -0.313,-4.60925 -0.47056,-6.91346 a 20.33753,20.33753 0 0 0 -0.99638,-7.91372 c -0.83609,-2.50849 -1.77694,-4.98192 -2.62429,-7.48682 a 8.81918,8.81918 0 0 1 1.87481,-9.25894 6.94972,6.94972 0 0 1 8.27284,-1.621 c 3.31635,1.64527 5.25035,4.47228 6.5327,7.8342 a 27.91548,27.91548 0 0 1 1.777,8.93349 c 0.20233,5.29445 0.216,10.59658 0.45077,15.88919 0.23021,5.1894 0.63628,10.371 0.97127,15.55566 a 5.88262,5.88262 0 0 0 0.18724,0.78088 c 1.69482,-0.528 3.36894,-0.96746 4.98253,-1.56921 a 26.80158,26.80158 0 0 1 10.68214,-2.03189 c 0.50093,0.02333 1.00047,0.0771 1.50065,0.11682 z" />
    <g
       data-name="Layer 1"
       id="Layer_1-2"
       transform="matrix(0.8,0,0,0.8,-25.008396,12.942256)">
      <rect
         id="rect7"
         height="63.110001"
         width="113.33"
         y="26"
         x="566.21997"
         style="fill:#ffffff" />
      <path
         id="path9"
         d="m 305.74,12.54 a 63.67,63.67 0 0 1 21,3.69 C 325.6,24.61 324,33.5 324,33.5 a 38.71,38.71 0 0 0 -15.93,-3.08 c -10.43,0 -21.87,3.26 -29.66,10.06 -15,13.15 -11.72,27.41 -8.16,33.8 3.88,7 11.35,9.68 18.16,9.68 a 23.13,23.13 0 0 0 8.43,-1.53 l 1.55,-8.53 h -13.51 l 2.51,-16 h 32.41 l -4.87,31 32.62,-74 h 21.53 l 11.46,68.69 22.31,-68.69 h 17.27 l 8.54,46.58 19.8,-46.58 h 21 l 3.68,85 H 455.63 L 453.3,47.28 430.6,99.86 H 419 l -9.71,-47.54 -15.16,47.54 h -29.7 L 360,74.45 H 339.8 L 328.34,99.86 H 310.1 l 2.55,-5.8 -0.62,0.37 a 46,46 0 0 1 -23,6.32 c -19.65,0 -36.84,-13.1 -38.63,-31 -2.13,-21.34 5.87,-37 22.51,-47.34 v 0 c 8.28,-5.15 19.34,-9.92 32.92,-9.92 m 41,45.41 h 10.58 L 354.2,41.4 346.77,58 m -41,-52.41 v 0 c -12.52,0 -24.8,3.66 -36.49,10.88 l -0.1,0.07 c -19.22,11.89 -28.13,30.56 -25.79,54 a 39.33,39.33 0 0 0 15.24,27 49,49 0 0 0 30.37,10.21 52.19,52.19 0 0 0 16.44,-2.69 7,7 0 0 0 4.7,1.8 h 18.24 a 7,7 0 0 0 6.38,-4.12 l 9.6,-21.29 h 9.79 l 3.43,19.62 a 7,7 0 0 0 6.89,5.79 h 29.7 A 7,7 0 0 0 400.8,102 l 7,-21.92 4.33,21.2 a 7,7 0 0 0 6.86,5.59 h 11.61 a 7,7 0 0 0 6.42,-4.22 L 447.66,78 l 1,22.16 a 7,7 0 0 0 7,6.69 h 17.46 a 7.05,7.05 0 0 0 5.06,-2.15 7,7 0 0 0 1.93,-5.15 l -3.68,-85 a 7,7 0 0 0 -7,-6.7 h -21 A 7,7 0 0 0 442,12.13 L 431.34,37.25 427,13.61 a 7,7 0 0 0 -6.89,-5.74 h -17.26 a 7,7 0 0 0 -6.66,4.84 L 382.73,54.16 376,13.72 a 7,7 0 0 0 -6.91,-5.85 h -21.54 a 7,7 0 0 0 -6.41,4.18 l -10.61,24.08 a 7.7,7.7 0 0 0 0.41,-1.42 C 331,34.34 332.53,25.6 333.7,17.2 A 7,7 0 0 0 329.06,9.62 71.24,71.24 0 0 0 305.75,5.54 Z M 324,40.5 a 7,7 0 0 0 6.32,-4 L 323.53,52 a 7,7 0 0 0 -3.73,-1 h -32.41 a 7,7 0 0 0 -6.91,5.91 l -2.51,16 v 0.18 A 10.3,10.3 0 0 1 276.44,71 c -1.7,-3 -6.23,-13.85 6.65,-25.12 6,-5.21 15.34,-8.33 25.05,-8.33 a 32,32 0 0 1 13,2.44 7.06,7.06 0 0 0 2.93,0.64 z"
         inkscape:connector-curvature="0"
         style="fill:#ffffff" />
      <path
         id="path11"
         d="m 536.35,14.87 v 0 m 0,0 -2.91,18.24 H 503 l -2.33,15.14 h 26.78 l -2.91,18.24 H 498 l -2.4,15.13 h 30.47 l -2.91,18.24 h -48.71 l 13.58,-85 h 48.32 m 0,-7 H 488 a 7,7 0 0 0 -6.91,5.9 l -13.58,85 a 7,7 0 0 0 5.81,8 6.8,6.8 0 0 0 1.1,0.09 h 48.71 A 7,7 0 0 0 530,101 l 3,-18.24 a 7,7 0 0 0 -6.92,-8.11 h -22.27 l 0.18,-1.13 h 20.53 a 7,7 0 0 0 6.91,-5.9 l 2.91,-18.24 a 7,7 0 0 0 -5.81,-8 6.8,6.8 0 0 0 -1.1,-0.09 h -18.62 l 0.17,-1.14 h 24.46 a 7,7 0 0 0 6.91,-5.9 l 2.87,-18 a 6.59,6.59 0 0 0 0.13,-1.33 7,7 0 0 0 -7,-7 z"
         inkscape:connector-curvature="0"
         style="fill:#ffffff" />
      <path
         id="path13"
         d="m 750,14.87 v 0 m 0,0 -31.44,49.48 -5.36,35.51 H 695.73 L 702.06,59.69 681.5,14.87 h 20 l 10.87,27.75 17.27,-27.75 H 750 m 0,-7 h -20.38 a 7,7 0 0 0 -5.94,3.3 L 713.78,27.08 708,12.32 a 7,7 0 0 0 -6.52,-4.45 h -20 a 7,7 0 0 0 -6.36,9.92 l 19.68,42.9 -6,38.08 a 7,7 0 0 0 5.82,8 6.8,6.8 0 0 0 1.1,0.09 h 17.48 a 7,7 0 0 0 6.92,-6 l 5.14,-34 30.55,-48.09 A 7,7 0 0 0 750,7.87 Z"
         inkscape:connector-curvature="0"
         style="fill:#ffffff" />
      <path
         id="path15-0"
         d="m 658,14.84 a 30.23,30.23 0 0 1 6.77,0.77 c 19.35,4.47 30.64,27.16 25.23,50.64 -4.79,20.75 -21,35.21 -38.13,35.21 a 30.23,30.23 0 0 1 -6.77,-0.77 C 625.7,96.22 614.45,73.55 619.88,50.05 v 0 c 4.79,-20.75 21,-35.21 38.09,-35.21 m -6.61,69.92 c 8,0 16.34,-7.55 20.21,-19.19 4.7,-14.13 1,-28.95 -8.19,-33.09 a 12.32,12.32 0 0 0 -5,-1.08 c -8,0 -16.33,7.56 -20.21,19.2 -4.71,14.14 -1.06,28.94 8.19,33.08 a 12.39,12.39 0 0 0 5,1.08 M 658,7.84 c -20.37,0 -39.09,16.75 -44.74,39.93 -0.08,0.23 -0.15,0.47 -0.21,0.71 -3,13 -1.61,26.14 3.86,37.14 5.71,11.48 15.16,19.25 26.61,21.89 a 37.26,37.26 0 0 0 8.35,0.95 c 20.61,0 39.52,-17.09 45,-40.64 6.28,-27.21 -7.39,-53.69 -30.48,-59 A 37.13,37.13 0 0 0 658,7.84 Z m -6.61,69.92 A 5.32,5.32 0 0 1 649.2,77.29 C 644,75 640.9,64.35 644.75,52.81 647.87,43.45 654.07,38.4 658.32,38.4 a 5.36,5.36 0 0 1 2.19,0.47 c 5.16,2.31 8.14,13.27 4.41,24.49 -3.12,9.35 -9.32,14.4 -13.57,14.4 z"
         inkscape:connector-curvature="0"
         style="fill:#ffffff" />
      <path
         id="path17-3"
         d="m 582.79,15.27 c 4.85,0 9.53,0 12.68,0.07 11.75,0.19 33.7,18.1 11.56,41 21.54,19.48 -2.12,43.33 -18.29,43.33 h -39.28 l 13.47,-84.34 h -0.2 c 0,0 10.36,-0.07 20.06,-0.07 M 575.25,49 h 12.11 c 11.71,0 14.25,-15.79 1.93,-15.79 H 577.92 L 575.25,49 m -5.39,34.23 h 15.4 c 15.41,0 15.79,-16.9 1.93,-16.9 h -14.66 l -2.67,16.9 m 12.93,-75 c -9.62,0 -20,0.07 -20.11,0.07 a 7,7 0 0 0 -6.95,7 v 0.52 l -13.19,82.76 a 7,7 0 0 0 6.92,8.11 h 39.28 c 12.72,0 27.08,-10.4 32,-23.19 3.63,-9.41 2,-19.08 -4.35,-27.32 9.58,-12.78 7.5,-23.6 5.15,-29.27 -4.75,-11.44 -16.93,-18.42 -26,-18.57 -2.82,0 -7.12,-0.07 -12.79,-0.07 z m 1.05,32 h 5.45 a 4.27,4.27 0 0 1 1.07,0.1 1.89,1.89 0 0 1 -0.41,0.73 3.31,3.31 0 0 1 -2.59,1 h -3.82 l 0.3,-1.79 z m -5.33,33.12 h 8.68 c 2.13,0 3,0.68 3,1 a 1.16,1.16 0 0 1 -0.51,0.78 c -0.41,0.35 -1.67,1.17 -4.45,1.17 H 578 l 0.45,-2.9 z"
         inkscape:connector-curvature="0"
         style="fill:#ffffff" />
      <g
         data-name="Capa 1"
         id="Capa_1">
        <path
           id="path19"
           d="M 357.35,58 354.14,41.5 346.77,58 h 10.58 M 473.09,99.86 H 455.63 L 453.3,47.28 430.6,99.86 H 419 l -9.71,-47.54 -15.16,47.54 h -29.7 L 360,74.45 H 339.8 L 328.34,99.86 H 310.1 l 37.45,-85 h 21.53 l 11.46,68.69 22.31,-68.69 h 17.27 l 8.54,46.58 19.8,-46.58 h 21 l 3.68,85"
           inkscape:connector-curvature="0"
           style="fill:#3c3f8b" />
        <polyline
           id="polyline21"
           points="523.16 99.86 526.08 81.63 495.6 81.63 498.02 66.49 524.52 66.49 527.43 48.25 500.65 48.25 502.98 33.11 533.44 33.11 536.35 14.87 488.03 14.87 474.45 99.86 523.16 99.86"
           style="fill:#3c3f8b" />
        <polyline
           id="polyline23"
           points="750 14.87 729.62 14.87 712.35 42.62 701.48 14.87 681.5 14.87 702.06 59.69 695.73 99.86 713.2 99.86 718.56 64.35 750 14.87"
           style="fill:#3c3f8b" />
        <path
           id="path25-8"
           d="m 646.3,83.68 c 9.24,4.13 20.55,-4 25.26,-18.11 4.71,-14.11 1.05,-28.95 -8.19,-33.09 -9.24,-4.14 -20.55,4 -25.26,18.12 -4.71,14.12 -1.06,28.94 8.19,33.08 M 619.87,50.05 c 5.43,-23.48 25.51,-38.91 44.86,-34.44 19.35,4.47 30.64,27.16 25.27,50.64 -5.37,23.48 -25.51,38.91 -44.9,34.44 -19.39,-4.47 -30.65,-27.14 -25.22,-50.64"
           inkscape:connector-curvature="0"
           style="fill:#3c3f8b" />
        <path
           id="path27-4"
           d="m 272.84,22.44 c -16.64,10.3 -24.64,26 -22.51,47.34 2.48,24.77 34.54,40.36 61.7,24.65 2.38,-1.38 1.45,-1.16 2.33,-2 L 319.8,58 h -32.41 l -2.51,16 h 13.55 l -1.55,8.53 c -7.76,3.12 -21,2 -26.59,-8.15 -3.56,-6.39 -6.87,-20.65 8.16,-33.8 12.21,-10.67 33.37,-12.61 45.59,-7 0,0 1.56,-8.89 2.72,-17.27 C 303.28,8.17 285,15 272.82,22.54"
           inkscape:connector-curvature="0"
           style="fill:#3c3f8b" />
        <path
           id="path29-1"
           d="m 562.93,15.35 -13.47,84.34 h 39.28 c 16.17,0 39.83,-23.85 18.29,-43.33 22.14,-22.92 0.19,-40.83 -11.56,-41 -9.44,-0.16 -32.74,0 -32.74,0 h 0.19 m 9.63,51 h 14.64 c 13.86,0 13.48,16.9 -1.93,16.9 h -15.4 l 2.67,-16.9 m 5.39,-33.12 h 11.37 c 12.32,0 9.78,15.79 -1.93,15.79 h -12.11 l 2.67,-15.79"
           inkscape:connector-curvature="0"
           style="fill:#3c3f8b" />
      </g>
    </g>
  </g>
</svg>
